<svg width="1041" height="1166" viewBox="0 0 1041 1166" fill="none" xmlns="http://www.w3.org/2000/svg">
<path opacity="0.91" d="M514.695 23.4352C523.205 22.32 531.755 21.4724 540.345 20.9148C548.935 20.4241 557.555 20.2456 566.225 20.3795C574.895 20.6248 583.605 21.2159 592.335 22.1527C601.085 23.2233 609.845 24.6397 618.635 26.4129C627.405 28.32 636.185 30.5728 644.945 33.1713C653.685 35.8925 662.385 38.9371 671.015 42.2939C679.575 45.7512 688.045 49.4984 696.365 53.5132C704.575 57.595 712.585 61.9221 720.375 66.4723C727.985 71.0448 735.305 75.818 742.305 80.7585C749.065 85.6879 755.445 90.7622 761.415 95.9704C767.125 101.123 772.405 106.387 777.245 111.74C781.835 117.015 786.025 122.368 789.815 127.777C795.165 135.784 804.765 151.933 809.495 160.052C812.975 165.372 816.675 170.758 820.695 176.201C825.295 181.543 830.375 186.952 836.025 192.439C842.385 197.847 849.375 203.334 856.965 208.922C865.215 214.442 873.955 220.063 883.095 225.807C892.545 231.494 902.075 237.316 911.515 243.26C920.715 249.182 929.395 255.238 937.345 261.45C944.475 267.65 950.525 273.996 955.345 280.498C959.005 287 961.315 293.669 962.305 300.494C962.285 307.331 961.185 314.323 959.225 321.472C956.915 328.643 954.315 335.97 951.745 343.442C949.785 350.936 948.495 358.587 948.155 366.371C949.205 374.178 951.565 382.13 955.315 390.193C960.555 398.289 967.005 406.509 974.425 414.84C982.615 423.182 991.075 431.646 999.365 440.2C1007.18 448.765 1013.95 457.431 1019.28 466.185C1023.04 474.951 1024.85 483.784 1024.6 492.706C1022.57 501.627 1018.7 510.616 1013.29 519.672C1006.99 528.728 1000.04 537.839 992.965 547.018C986.525 556.185 981.025 565.308 976.855 574.363C974.425 583.43 973.685 592.43 974.605 601.386C977.245 610.33 981.115 619.229 985.855 628.073C991.265 636.928 996.655 645.727 1001.55 654.493C1005.78 663.27 1008.73 672.003 1010.12 680.701C1009.99 689.445 1008.04 698.144 1004.3 706.831C999.085 715.564 992.425 724.285 984.605 732.995C976.095 741.772 967.105 750.549 958.025 759.348C949.265 768.203 941.035 777.091 933.585 786.013C927.205 795.002 921.905 804.036 917.715 813.091C914.765 822.248 912.805 831.437 911.695 840.66C911.445 849.961 911.645 859.296 912.055 868.642C912.675 878.054 913.055 887.478 912.975 896.891C912.495 906.337 911.225 915.749 909.075 925.084C906.155 934.418 902.245 943.652 897.365 952.753C891.675 961.764 885.095 970.608 877.735 979.229C869.785 987.704 861.255 995.89 852.305 1003.78C843.075 1011.43 833.635 1018.7 824.125 1025.56C814.645 1032.11 805.265 1038.21 796.065 1043.8C787.105 1049.03 778.425 1053.74 770.035 1057.88C761.985 1061.64 754.245 1064.83 746.795 1067.44C739.695 1069.71 732.835 1071.41 726.175 1072.59C719.795 1073.47 713.555 1073.86 707.395 1073.81C701.425 1073.6 695.465 1073.03 689.475 1072.16C683.595 1071.3 677.625 1070.25 671.535 1069.08C665.485 1068.1 659.285 1067.13 652.905 1066.24C646.525 1065.72 639.955 1065.4 633.195 1065.33C626.405 1065.78 619.415 1066.57 612.235 1067.73C605.025 1069.51 597.615 1071.69 590.025 1074.28C582.415 1077.48 574.625 1081.06 566.665 1084.98C558.695 1089.4 550.565 1094.08 542.285 1098.93C533.995 1104.08 525.575 1109.27 517.015 1114.37C508.455 1119.53 499.865 1124.37 491.265 1128.8C482.675 1133.02 474.075 1136.66 465.475 1139.66C456.875 1142.21 448.285 1144.02 439.715 1145.04C431.145 1145.49 422.605 1145.09 414.085 1143.86C405.595 1142.02 397.135 1139.35 388.725 1135.91C380.345 1131.9 372.025 1127.19 363.775 1121.8C355.565 1116 347.445 1109.66 339.435 1102.83C331.485 1095.76 323.645 1088.33 315.945 1080.65C308.325 1072.88 300.855 1064.97 293.545 1056.97C286.325 1049.08 279.285 1041.2 272.425 1033.4C265.655 1025.82 259.065 1018.4 252.665 1011.14C246.345 1004.2 240.195 997.474 234.225 990.961C228.285 984.805 222.495 978.883 216.845 973.162C211.185 967.786 205.635 962.612 200.175 957.604C194.655 952.909 189.205 948.336 183.805 943.853C178.315 939.626 172.875 935.444 167.465 931.284C161.965 927.292 156.505 923.266 151.105 919.162C145.635 915.169 140.255 911.065 134.975 906.805C129.675 902.601 124.525 898.218 119.525 893.623C114.565 889.028 109.805 884.21 105.235 879.158C100.725 874.062 96.4249 868.708 92.3449 863.099C88.3049 857.433 84.4549 851.5 80.7849 845.3C77.1149 839.043 73.6049 832.519 70.2249 825.749C66.8149 818.902 63.5249 811.809 60.3549 804.493C57.1449 797.11 54.0649 789.504 51.1249 781.697C48.1849 773.824 45.4249 765.761 42.8749 757.519C40.3749 749.233 38.1249 740.779 36.1349 732.17C34.2249 723.538 32.5949 714.75 31.2249 705.839C29.9049 696.906 28.8249 687.85 27.9549 678.683C27.0549 669.504 26.3049 660.226 25.6849 650.858C24.9749 641.478 24.3549 632.021 23.8249 622.475C23.1849 612.928 22.6549 603.315 22.2749 593.624C21.8549 583.943 21.6349 574.296 21.6649 564.705C21.7549 555.114 22.1349 545.579 22.8249 536.088C23.6249 526.598 24.7349 517.163 26.1449 507.784C27.6249 498.404 29.3649 489.07 31.3249 479.791C33.2949 470.501 35.4249 461.267 37.6949 452.077C39.9149 442.888 42.2349 433.743 44.6749 424.643C47.0449 415.531 49.5349 406.475 52.1649 397.464C54.7549 388.442 57.5249 379.464 60.4749 370.553C63.4449 361.62 66.6249 352.732 70.0249 343.91C73.4649 335.078 77.1249 326.312 80.9749 317.613C84.8649 308.914 88.9249 300.282 93.1449 291.739C97.3349 283.197 101.655 274.754 106.085 266.412C110.455 258.093 114.905 249.885 119.445 241.81C123.925 233.769 128.495 225.862 133.165 218.123C137.795 210.439 142.555 202.922 147.455 195.584C152.375 188.334 157.465 181.275 162.745 174.427C168.105 167.68 173.665 161.156 179.445 154.877C185.335 148.699 191.435 142.777 197.755 137.112C204.175 131.558 210.795 126.271 217.605 121.264C224.485 116.357 231.525 111.718 238.705 107.357C245.925 103.086 253.245 99.0819 260.655 95.3347C268.045 91.6656 275.515 88.2418 283.025 85.0522C290.495 81.9072 297.995 78.9853 305.535 76.2641C312.995 73.5429 320.485 71.0113 327.995 68.647C335.425 66.2493 342.895 63.9965 350.385 61.8775C357.805 59.6805 365.275 57.6062 372.775 55.6322C380.225 53.5467 387.735 51.5504 395.305 49.6434C402.825 47.6025 410.425 45.6508 418.105 43.766C425.755 41.7586 433.495 39.8292 441.335 37.9891C449.155 36.0374 457.075 34.1861 465.115 32.4575C473.135 30.6397 481.275 28.9668 489.535 27.4612C497.785 25.9111 506.165 24.5616 514.685 23.4352" stroke="black" stroke-opacity="0.05" stroke-width="2.5" stroke-linecap="round" stroke-dasharray="19 2"/>
<path opacity="0.36" d="M548.528 44.4203C556.894 43.8191 565.256 43.4858 573.614 43.4314C581.978 43.4333 590.327 43.7359 598.649 44.3495C606.975 45.0639 615.275 46.1118 623.546 47.4929C631.79 49.0063 639.997 50.8524 648.137 53.0292C656.248 55.3495 664.272 58.0103 672.199 60.9775C680.059 64.0856 687.793 67.4981 695.36 71.2015C702.843 75.0109 710.13 79.098 717.184 83.4267C724.113 87.8366 730.781 92.4639 737.157 97.3066C743.361 102.172 749.245 107.217 754.79 112.418C760.146 117.607 765.154 122.93 769.795 128.374C774.269 133.762 778.407 139.24 782.222 144.786C785.958 150.282 789.441 155.84 792.711 161.45C796.035 166.986 799.276 172.573 802.504 178.225C805.967 183.782 809.567 189.403 813.374 195.094C817.625 200.702 822.233 206.389 827.258 212.16C832.867 217.868 838.982 223.666 845.602 229.564C852.806 235.41 860.486 241.355 868.581 247.417C877.069 253.415 885.782 259.529 894.58 265.737C903.391 271.89 911.966 278.14 920.146 284.475C927.84 290.734 934.789 297.056 940.831 303.463C945.968 309.766 949.979 316.14 952.785 322.57C954.573 328.921 955.196 335.341 954.723 341.823C953.542 348.258 951.594 354.8 949.119 361.441C946.624 368.092 944.122 374.876 941.922 381.837C940.509 388.861 939.908 396.072 940.308 403.482C942.054 411.004 945.002 418.727 949.18 426.677C954.616 434.709 961.004 442.926 968.095 451.312C975.693 459.743 983.326 468.288 990.594 476.921C997.261 485.525 1002.83 494.158 1006.96 502.797C1009.59 511.338 1010.4 519.848 1009.33 528.324C1006.65 536.705 1002.34 545.058 996.652 553.398C990.194 561.699 983.162 570.03 976.007 578.43C969.451 586.87 963.725 595.33 959.168 603.846C956.189 612.453 954.72 621.127 954.778 629.878C956.424 638.733 959.26 647.634 962.975 656.569C967.43 665.553 972.004 674.534 976.291 683.463C980.137 692.385 982.956 701.217 984.479 709.952C984.701 718.636 983.307 727.203 980.257 735.649C975.796 744.048 969.868 752.361 962.711 760.594C954.684 768.825 945.966 777.023 936.869 785.217C927.778 793.468 918.906 801.756 910.502 810.097C902.873 818.544 896.071 827.079 890.207 835.699C885.447 844.457 881.655 853.291 878.75 862.194C876.792 871.204 875.472 880.267 874.612 889.338C874.23 898.473 873.909 907.58 873.481 916.634C872.964 925.671 871.992 934.601 870.416 943.39C868.344 952.08 865.471 960.582 861.778 968.864C857.392 976.977 852.16 984.822 846.132 992.358C839.474 999.685 832.124 1006.65 824.204 1013.24C815.845 1019.57 807.088 1025.49 798.054 1030.96C788.846 1036.13 779.531 1040.84 770.193 1045.06C760.921 1048.95 751.766 1052.35 742.769 1055.24C733.988 1057.81 725.434 1059.87 717.127 1061.44C709.096 1062.72 701.309 1063.54 693.768 1063.89C686.497 1064.05 679.427 1063.81 672.537 1063.2C665.852 1062.52 659.292 1061.55 652.813 1060.35C646.483 1059.21 640.168 1057.95 633.848 1056.61C627.616 1055.49 621.312 1054.41 614.933 1053.42C608.574 1052.81 602.096 1052.39 595.474 1052.2C588.847 1052.5 582.063 1053.12 575.101 1054.06C568.119 1055.56 560.949 1057.42 553.61 1059.63C546.233 1062.37 538.668 1065.44 530.948 1068.8C523.184 1072.6 515.259 1076.6 507.187 1080.74C499.091 1085.15 490.854 1089.56 482.482 1093.88C474.117 1098.24 465.728 1102.31 457.35 1105.99C448.982 1109.47 440.631 1112.43 432.302 1114.8C424.012 1116.79 415.76 1118.08 407.575 1118.66C399.428 1118.72 391.352 1118.01 383.356 1116.54C375.419 1114.51 367.573 1111.71 359.836 1108.18C352.166 1104.13 344.602 1099.4 337.171 1094.05C329.822 1088.29 322.602 1081.98 315.527 1075.21C308.526 1068.16 301.684 1060.76 295.009 1053.06C288.409 1045.26 281.969 1037.26 275.707 1029.14C269.511 1021.07 263.477 1012.98 257.623 1004.89C251.81 996.994 246.162 989.172 240.658 981.482C235.171 974.05 229.824 966.783 224.589 959.703C219.337 952.923 214.175 946.339 209.104 939.94C203.955 933.859 198.877 927.962 193.831 922.224C188.689 916.78 183.58 911.473 178.496 906.269C173.297 901.324 168.116 896.437 162.972 891.608C157.727 886.963 152.533 882.32 147.41 877.661C142.22 873.13 137.133 868.54 132.161 863.867C127.195 859.263 122.385 854.545 117.763 849.694C113.179 844.88 108.804 839.901 104.639 834.734C100.543 829.583 96.6891 824.224 93.0358 818.666C89.4341 813.079 86.0339 807.281 82.8357 801.261C79.6492 795.209 76.6254 788.922 73.7631 782.422C70.8738 775.864 68.1166 769.081 65.5104 762.095C62.8665 755.062 60.3643 747.815 58.0123 740.376C55.6533 732.881 53.474 725.209 51.4838 717.369C49.5259 709.488 47.7971 701.442 46.296 693.255C44.8467 685.038 43.6352 676.68 42.6709 668.194C41.7471 659.698 41.0307 651.071 40.5203 642.335C40.0012 633.576 39.6476 624.716 39.4497 615.754C39.1819 606.788 39.0597 597.72 39.052 588.57C38.9851 579.405 39.0626 570.159 39.2945 560.835C39.5065 551.509 39.9269 542.22 40.5652 532.978C41.2334 523.738 42.1594 514.549 43.3532 505.411C44.6069 496.276 46.1284 487.193 47.907 478.171C49.7256 469.152 51.7726 460.171 54.0164 451.258C56.2706 442.335 58.6823 433.466 61.2414 424.652C63.7711 415.825 66.4288 407.04 69.2133 398.319C71.9585 389.584 74.8411 380.903 77.8705 372.288C80.8906 363.66 84.0879 355.089 87.462 346.586C90.8561 338.084 94.4568 329.651 98.2537 321.298C102.101 312.949 106.133 304.678 110.363 296.488C114.6 288.32 119.004 280.242 123.542 272.262C128.059 264.314 132.691 256.463 137.417 248.729C142.071 241.036 146.808 233.471 151.607 226.044C156.324 218.668 161.114 211.442 165.964 204.387C170.761 197.396 175.649 190.578 180.646 183.969C185.619 177.436 190.73 171.124 195.99 165.035C201.296 159.038 206.778 153.287 212.438 147.782C218.183 142.384 224.134 137.245 230.281 132.375C236.523 127.613 242.971 123.121 249.605 118.898C256.324 114.781 263.219 110.933 270.269 107.363C277.386 103.864 284.629 100.62 291.99 97.6179C299.378 94.6845 306.863 91.9811 314.407 89.5048C321.96 87.0404 329.551 84.7908 337.194 82.7232C344.806 80.6426 352.45 78.7315 360.125 76.9901C367.744 75.1779 375.396 73.502 383.061 71.9498C390.681 70.3053 398.325 68.7741 405.994 67.3339C413.619 65.7791 421.29 64.3056 428.987 62.9119C436.66 61.3938 444.37 59.934 452.146 58.5678C459.888 57.0654 467.697 55.6456 475.57 54.3193C483.44 52.87 491.374 51.5366 499.392 50.3204C507.404 49.0257 515.499 47.8704 523.685 46.8887C531.874 45.8513 540.142 45.0202 548.518 44.4197" stroke="black" stroke-opacity="0.05" stroke-width="2.5" stroke-linecap="round" stroke-dasharray="13 16"/>
<path opacity="0.88" d="M577.371 67.5158C585.509 67.4093 593.589 67.5535 601.613 67.9486C609.62 68.4089 617.567 69.1531 625.422 70.1886C633.267 71.3237 641.009 72.7598 648.658 74.5092C656.263 76.3876 663.755 78.5656 671.112 81.0738C678.417 83.6987 685.556 86.6387 692.523 89.8817C699.408 93.2373 706.1 96.8821 712.573 100.801C718.934 104.818 725.057 109.084 730.914 113.584C736.662 118.16 742.116 122.944 747.279 127.914C752.318 132.913 757.056 138.086 761.497 143.399C765.847 148.723 769.902 154.165 773.705 159.709C777.46 165.235 781.012 170.858 784.385 176.569C787.822 182.233 791.161 187.973 794.471 193.8C797.987 199.575 801.576 205.428 805.308 211.355C809.386 217.249 813.717 223.222 818.361 229.292C823.471 235.322 828.963 241.459 834.857 247.705C841.258 253.905 848.061 260.215 855.234 266.641C862.796 273.016 870.628 279.495 878.623 286.052C886.754 292.559 894.829 299.126 902.717 305.747C910.352 312.279 917.522 318.828 924.066 325.395C929.971 331.822 935.019 338.249 939.094 344.648C943.349 354.002 945.364 372.426 943.501 381.547C941.574 387.57 939.195 393.669 936.596 399.862C934.224 406.085 932.107 412.477 930.472 419.067C929.731 425.775 929.85 432.73 930.968 439.942C933.327 447.327 936.756 454.978 941.203 462.897C946.683 470.953 952.855 479.223 959.471 487.675C966.366 496.164 973.098 504.756 979.312 513.391C984.841 521.936 989.226 530.442 992.22 538.866C993.803 547.116 993.707 555.245 991.903 563.238C988.678 571.056 983.983 578.77 978.087 586.427C971.535 593.997 964.467 601.589 957.29 609.256C950.65 616.994 944.736 624.817 939.865 632.766C936.385 640.898 934.267 649.199 933.511 657.667C934.234 666.331 936.07 675.131 938.771 684.044C942.266 693.062 945.98 702.108 949.575 711.128C952.93 720.139 955.49 729.045 956.998 737.812C957.451 746.463 956.492 754.939 954.044 763.218C950.291 771.36 945.127 779.326 938.69 787.136C931.306 794.866 923.065 802.505 914.228 810.066C905.147 817.651 895.995 825.238 887.021 832.859C878.509 840.586 870.581 848.402 863.349 856.309C857.037 864.371 851.558 872.554 846.936 880.817C843.245 889.236 840.281 897.717 837.919 906.232C836.213 914.823 834.821 923.399 833.597 931.907C832.566 940.396 831.379 948.752 829.908 956.924C828.209 964.977 825.991 972.792 823.16 980.314C819.846 987.637 815.824 994.62 811.095 1001.23C805.811 1007.57 799.846 1013.5 793.25 1019.01C786.185 1024.2 778.603 1028.95 770.598 1033.22C762.294 1037.18 753.719 1040.65 744.954 1043.64C736.08 1046.33 727.146 1048.54 718.222 1050.27C709.358 1051.72 700.602 1052.72 691.984 1053.28C683.52 1053.61 675.249 1053.55 667.17 1053.11C659.286 1052.54 651.596 1051.65 644.098 1050.47C636.783 1049.28 629.621 1047.88 622.597 1046.31C615.722 1044.87 608.937 1043.33 602.203 1041.78C595.564 1040.48 588.938 1039.25 582.302 1038.11C575.706 1037.36 569.049 1036.79 562.318 1036.46C555.588 1036.58 548.749 1036.98 541.797 1037.68C534.811 1038.89 527.683 1040.4 520.422 1042.22C513.119 1044.53 505.666 1047.1 498.078 1049.91C490.438 1053.11 482.661 1056.47 474.762 1059.93C466.839 1063.63 458.797 1067.29 450.654 1070.87C442.507 1074.49 434.38 1077.82 426.291 1080.8C418.219 1083.61 410.198 1085.94 402.255 1087.74C394.357 1089.19 386.545 1090.02 378.844 1090.2C371.209 1089.93 363.7 1088.95 356.316 1087.27C349.024 1085.1 341.867 1082.22 334.872 1078.67C327.958 1074.65 321.222 1069.99 314.64 1064.73C308.159 1059.09 301.854 1052.93 295.719 1046.3C289.673 1039.41 283.797 1032.14 278.095 1024.56C272.468 1016.85 267.005 1008.92 261.71 1000.83C256.454 992.748 251.338 984.583 246.385 976.395C241.421 968.317 236.594 960.28 231.87 952.313C227.113 944.555 222.437 936.898 217.845 929.397C213.168 922.121 208.545 915.01 203.954 908.06C199.255 901.376 194.581 894.842 189.91 888.465C185.111 882.341 180.319 876.341 175.535 870.466C170.635 864.823 165.746 859.26 160.891 853.768C155.943 848.478 151.054 843.207 146.242 837.968C141.394 832.882 136.66 827.766 132.069 822.624C127.487 817.596 123.093 812.502 118.878 807.331C114.736 802.225 110.797 797.023 107.092 791.695C103.463 786.41 100.052 780.974 96.8663 775.4C93.7406 769.833 90.8246 764.092 88.1174 758.188C85.4113 752.272 82.8875 746.156 80.5228 739.87C78.1417 733.548 75.9021 727.031 73.8115 720.343C71.6859 713.606 69.7006 706.685 67.8656 699.581C66.013 692.453 64.3305 685.145 62.8257 677.681C61.3244 670.184 60.0294 662.545 58.9419 654.754C57.8865 646.945 57.0461 639.007 56.4308 630.941C55.8464 622.868 55.4671 614.665 55.2906 606.354C55.1252 598.033 55.1316 589.612 55.321 581.08C55.4805 572.543 55.8118 563.906 56.3039 555.178C56.7562 546.444 57.389 537.622 58.2001 528.734C58.9925 519.832 59.9923 510.969 61.1895 502.142C62.4066 493.319 63.841 484.535 65.5014 475.804C67.2004 467.088 69.1068 458.412 71.2392 449.788C73.3804 441.176 75.7278 432.613 78.2405 424.107C80.7532 415.6 83.4225 407.136 86.236 398.736C89.0296 390.334 91.9599 381.972 95.0334 373.685C98.077 365.394 101.286 357.159 104.639 348.987C108.011 340.83 111.546 332.75 115.275 324.74C119.032 316.745 122.992 308.834 127.133 301.024C131.322 293.232 135.702 285.533 140.242 277.945C144.811 270.372 149.528 262.919 154.373 255.585C159.205 248.282 164.125 241.103 169.132 234.048C174.074 227.041 179.071 220.175 184.112 213.462C189.068 206.793 194.058 200.286 199.099 193.954C204.043 187.688 209.057 181.611 214.121 175.731C219.145 169.936 224.257 164.366 229.477 159.013C234.696 153.76 240.05 148.75 245.548 143.994C251.087 139.334 256.8 134.932 262.684 130.812C268.65 126.78 274.798 123.02 281.118 119.541C287.53 116.141 294.115 113.011 300.864 110.139C307.695 107.344 314.671 104.805 321.773 102.496C328.95 100.241 336.225 98.2018 343.606 96.3897C351.019 94.5706 358.511 92.9528 366.065 91.5116C373.632 90.0384 381.253 88.7295 388.909 87.5601C396.561 86.334 404.251 85.2251 411.959 84.231C419.657 83.1345 427.376 82.1306 435.115 81.2303C442.846 80.2055 450.59 79.2498 458.366 78.3769C466.125 77.3671 473.918 76.429 481.732 75.5724C489.541 74.5803 497.391 73.6722 505.271 72.858C513.144 71.9193 521.065 71.0992 529.035 70.3867C536.992 69.6051 545.006 68.9544 553.062 68.4778C561.113 67.9556 569.214 67.6197 577.361 67.5145" stroke="black" stroke-opacity="0.05" stroke-width="2.5" stroke-linecap="round" stroke-dasharray="21 26"/>
<path opacity="0.93" d="M600.163 91.7505C607.979 92.1041 615.689 92.6745 623.28 93.4818C630.852 94.342 638.3 95.4721 645.605 96.857C652.887 98.3278 660.021 100.086 666.979 102.116C673.909 104.264 680.649 106.704 687.193 109.421C693.687 112.265 699.973 115.384 706.033 118.776C712.025 122.278 717.771 126.049 723.284 130.068C728.7 134.182 733.876 138.53 738.785 143.086C743.619 147.729 748.188 152.569 752.506 157.585C756.775 162.648 760.806 167.868 764.618 173.248C768.417 178.648 772.042 184.184 775.524 189.849C779.067 195.516 782.53 201.302 785.956 207.195C789.554 213.087 793.186 219.088 796.912 225.199C800.922 231.31 805.109 237.523 809.512 243.848C814.29 250.179 819.355 256.613 824.726 263.175C830.506 269.717 836.602 276.378 843.004 283.157C849.767 289.905 856.757 296.756 863.937 303.689C871.277 310.575 878.659 317.515 885.974 324.498C893.182 331.381 900.105 338.274 906.613 345.153C912.698 351.881 918.163 358.552 922.875 365.165C928.486 374.732 934.004 393.139 933.92 401.992C932.192 410.575 925.759 427.682 922.106 436.426C920.13 442.365 918.568 448.512 917.597 454.901C917.564 461.464 918.387 468.323 920.136 475.49C922.977 482.875 926.715 490.563 931.272 498.527C936.605 506.656 942.413 514.993 948.428 523.496C954.533 532.006 960.302 540.585 965.455 549.143C969.85 557.55 973.113 565.857 975.041 574.001C975.67 581.885 974.765 589.579 972.306 597.076C968.609 604.316 963.624 611.413 957.571 618.4C950.966 625.276 943.911 632.166 936.743 639.134C930.065 646.212 924.019 653.404 918.877 660.787C914.976 668.417 912.263 676.294 910.774 684.403C910.621 692.79 911.51 701.395 913.236 710.167C915.76 719.097 918.606 728.103 921.451 737.119C924.225 746.133 926.427 755.045 927.801 763.792C928.343 772.407 927.684 780.784 925.732 788.926C922.607 796.846 918.169 804.527 912.5 811.964C905.85 819.251 898.245 826.348 889.899 833.309C881.117 840.206 872.03 847.042 862.852 853.872C853.88 860.754 845.212 867.696 837.011 874.708C829.485 881.878 822.636 889.137 816.509 896.517C811.233 904.043 806.674 911.655 802.765 919.328C799.592 927.103 796.905 934.884 794.573 942.61C792.655 950.351 790.838 957.965 789.008 965.406C787.225 972.744 785.181 979.814 782.797 986.59C780.16 993.168 777.034 999.378 773.363 1005.18C769.289 1010.72 764.626 1015.81 759.398 1020.42C753.743 1024.72 747.555 1028.54 740.909 1031.86C733.9 1034.85 726.52 1037.36 718.843 1039.38C710.931 1041.09 702.839 1042.34 694.609 1043.12C686.294 1043.66 677.948 1043.77 669.615 1043.47C661.309 1043.01 653.08 1042.19 644.955 1041.03C636.923 1039.81 629.024 1038.33 621.253 1036.62C613.609 1034.94 606.089 1033.11 598.7 1031.17C591.409 1029.38 584.215 1027.55 577.108 1025.75C570.072 1024.2 563.083 1022.75 556.133 1021.42C549.197 1020.46 542.262 1019.68 535.301 1019.13C528.332 1019.01 521.312 1019.14 514.228 1019.54C507.092 1020.4 499.881 1021.54 492.589 1022.93C485.236 1024.77 477.785 1026.83 470.234 1029.08C462.646 1031.68 454.957 1034.41 447.197 1037.21C439.391 1040.22 431.522 1043.19 423.606 1046.06C415.686 1048.96 407.817 1051.61 400.04 1053.94C392.286 1056.13 384.633 1057.87 377.095 1059.14C369.614 1060.12 362.276 1060.53 355.089 1060.37C347.988 1059.81 341.047 1058.62 334.29 1056.79C327.623 1054.53 321.149 1051.63 314.876 1048.11C308.701 1044.16 302.712 1039.63 296.944 1034.54C291.254 1029.08 285.766 1023.13 280.47 1016.74C275.248 1010.07 270.218 1003.03 265.36 995.675C260.549 988.159 255.907 980.405 251.408 972.464C246.926 964.47 242.563 956.375 238.324 948.202C234.056 940.081 229.87 931.953 225.763 923.84C221.573 915.87 217.445 907.958 213.341 900.141C209.139 892.497 204.949 884.968 200.76 877.565C196.445 870.374 192.12 863.306 187.786 856.361C183.325 849.639 178.856 843.03 174.399 836.536C169.826 830.257 165.281 824.063 160.772 817.955C156.193 812.037 151.695 806.181 147.29 800.377C142.859 794.738 138.567 789.115 134.435 783.513C130.333 778.041 126.426 772.551 122.715 767.044C119.071 761.629 115.659 756.159 112.468 750.642C107.904 742.405 99.9668 725.533 96.5451 716.821C93.3153 707.988 87.6478 689.562 85.1706 679.962C83.507 673.468 81.9878 666.834 80.6067 660.034C79.1997 653.206 77.9388 646.226 76.8439 639.098C75.731 631.955 74.8038 624.668 74.0685 617.26C73.3465 609.833 72.8281 602.276 72.5195 594.613C72.2342 586.932 72.1569 579.157 72.3011 571.267C72.4454 563.377 72.7995 555.382 73.3617 547.292C73.9141 539.2 74.663 531.023 75.6084 522.76C76.5457 514.484 77.676 506.145 79.0028 497.72C80.3297 489.295 81.8534 480.909 83.5544 472.558C85.2669 464.199 87.1746 455.889 89.2675 447.628C91.3686 439.38 93.6469 431.167 96.1104 423.002C98.5624 414.846 101.178 406.745 103.95 398.687C106.7 390.636 109.594 382.636 112.621 374.696C115.636 366.766 118.786 358.884 122.076 351.077C125.364 343.28 128.815 335.549 132.416 327.893C136.043 320.266 139.85 312.719 143.834 305.276C147.875 297.855 152.094 290.526 156.506 283.327C160.965 276.148 165.617 269.098 170.424 262.158C175.264 255.27 180.246 248.501 185.35 241.869C190.436 235.28 195.623 228.823 200.877 222.516C206.066 216.241 211.3 210.123 216.571 204.159C221.741 198.254 226.937 192.502 232.144 186.933C237.251 181.423 242.379 176.099 247.524 170.983C252.598 165.931 257.719 161.093 262.897 156.47C268.04 151.942 273.268 147.646 278.588 143.595C283.914 139.635 289.372 135.929 294.953 132.474C300.588 129.12 306.376 126.022 312.305 123.18C318.321 120.434 324.49 117.934 330.802 115.689C337.214 113.509 343.763 111.56 350.445 109.853C357.223 108.188 364.12 106.727 371.127 105.47C378.202 104.226 385.371 103.16 392.634 102.271C399.943 101.345 407.322 100.559 414.768 99.921C422.244 99.2215 429.764 98.6325 437.326 98.1541C444.917 97.5679 452.532 97.0773 460.175 96.6715C467.836 96.1448 475.527 95.6919 483.227 95.3087C490.946 94.8048 498.675 94.3707 506.424 93.9973C514.181 93.5122 521.956 93.0988 529.74 92.7662C537.539 92.3348 545.353 91.9971 553.168 91.7841C560.997 91.4833 568.823 91.3291 576.655 91.3235C584.495 91.274 592.324 91.415 600.153 91.7486" stroke="black" stroke-opacity="0.05" stroke-width="2.5" stroke-linecap="round" stroke-dasharray="13 18"/>
<path opacity="0.61" d="M617.107 116.235C624.536 116.983 631.796 117.938 638.911 119.094C646.006 120.292 652.936 121.732 659.681 123.409C666.4 125.16 672.92 127.167 679.244 129.419C685.524 131.775 691.596 134.385 697.457 137.259C703.253 140.242 708.83 143.477 714.17 146.957C719.455 150.549 724.511 154.39 729.334 158.455C734.103 162.631 738.64 167.021 742.958 171.616C747.251 176.284 751.344 181.163 755.242 186.231C759.145 191.369 762.91 196.676 766.535 202.152C770.231 207.682 773.841 213.372 777.42 219.203C781.124 225.079 784.856 231.111 788.64 237.284C792.642 243.492 796.77 249.836 801.042 256.323C805.605 262.841 810.363 269.504 815.351 276.296C820.654 283.104 826.196 290.045 831.966 297.115C838.019 304.169 844.271 311.346 850.679 318.61C857.251 325.826 863.88 333.115 870.481 340.442C877.058 347.682 883.461 354.922 889.59 362.146C895.444 369.215 900.848 376.222 905.696 383.138C910.042 389.851 913.687 396.433 916.578 402.883C919.545 412.14 920.551 429.658 918.838 438.007C916.099 446.106 909.268 462.388 906.132 470.85C904.24 479.703 904.845 499.131 907.79 509.828C910.962 517.316 914.833 525.094 919.31 533.161C924.353 541.367 929.643 549.766 934.949 558.283C940.179 566.769 944.958 575.249 949.041 583.669C952.348 591.87 954.552 599.891 955.488 607.687C955.247 615.169 953.612 622.393 950.594 629.35C946.515 636.035 941.295 642.518 935.129 648.863C928.528 655.08 921.521 661.315 914.406 667.624C907.729 674.05 901.592 680.644 896.232 687.445C891.96 694.548 888.725 701.941 886.568 709.633C885.624 717.661 885.632 725.943 886.434 734.461C888.023 743.189 889.977 752.037 892.058 760.919C894.192 769.839 895.945 778.668 897.075 787.331C897.578 795.849 897.097 804.115 895.517 812.087C892.938 819.827 889.175 827.239 884.252 834.352C878.372 841.232 871.522 847.841 863.835 854.227C855.59 860.486 846.862 866.593 837.848 872.601C828.793 878.609 819.812 884.603 811.053 890.621C802.733 896.746 794.882 902.939 787.6 909.214C781.015 915.642 775.068 922.161 769.746 928.742C765.145 935.46 761.087 942.185 757.515 948.902C754.476 955.67 751.745 962.349 749.201 968.871C745.77 978.47 738.508 996.082 734.181 1003.87C729.158 1010.88 716.476 1022.13 708.789 1026.31C703.192 1028.63 697.207 1030.44 690.867 1031.76C684.266 1032.81 677.388 1033.38 670.285 1033.51C662.997 1033.4 655.569 1032.89 648.04 1031.99C640.427 1030.95 632.772 1029.58 625.108 1027.92C617.433 1026.21 609.788 1024.27 602.203 1022.15C594.627 1020.08 587.125 1017.9 579.703 1015.64C572.307 1013.55 564.983 1011.46 557.723 1009.4C550.479 1007.6 543.275 1005.9 536.114 1004.35C528.948 1003.14 521.787 1002.11 514.641 1001.29C507.451 1000.87 500.241 1000.68 493.011 1000.73C485.722 1001.21 478.401 1001.92 471.021 1002.86C463.589 1004.19 456.102 1005.72 448.574 1007.4C440.977 1009.39 433.348 1011.49 425.688 1013.64C417.99 1015.97 410.278 1018.26 402.555 1020.46C394.827 1022.69 387.219 1024.69 379.724 1026.4C372.268 1027.98 364.953 1029.19 357.81 1029.99C350.713 1030.52 343.805 1030.56 337.097 1030.1C330.466 1029.27 324.036 1027.9 317.83 1025.97C311.719 1023.63 305.822 1020.74 300.16 1017.27C294.58 1013.43 289.239 1009.04 284.099 1004.16C279.054 998.923 274.212 993.224 269.585 987.102C265.006 980.705 260.61 973.933 256.394 966.854C252.207 959.588 248.157 952.071 244.246 944.339C240.323 936.513 236.514 928.544 232.791 920.461C229.008 912.374 225.296 904.237 221.631 896.078C217.869 887.984 214.144 879.912 210.421 871.875C206.591 863.959 202.754 856.121 198.912 848.35C194.931 840.749 190.951 833.239 186.972 825.822C182.859 818.598 178.766 811.471 174.681 804.45C170.506 797.611 166.382 790.866 162.318 784.229C158.206 777.762 154.18 771.376 150.281 765.069C146.386 758.936 142.644 752.855 139.075 746.832C135.548 740.946 132.208 735.099 129.092 729.265C124.62 720.696 116.892 703.64 113.612 695.079C110.586 686.529 105.452 669.078 103.279 660.102C101.191 651.011 97.5594 632.172 96.0266 622.416C94.9921 615.843 94.0898 609.134 93.3563 602.309C92.5862 595.463 91.9774 588.488 91.5449 581.411C91.117 574.312 90.8848 567.117 90.8579 559.827C90.8551 552.521 91.0553 545.132 91.49 537.656C91.9465 530.174 92.6158 522.612 93.5075 514.972C94.4284 507.339 95.5718 499.628 96.9158 491.845C98.2891 484.07 99.8727 476.224 101.655 468.317C103.456 460.416 105.437 452.539 107.603 444.712C109.759 436.882 112.081 429.096 114.568 421.355C117.035 413.608 119.648 405.9 122.412 398.256C125.147 390.604 128.016 382.999 131.007 375.45C133.966 367.903 137.059 360.404 140.269 352.982C143.459 345.555 146.779 338.197 150.237 330.91C153.681 323.642 157.293 316.454 161.067 309.378C164.869 302.309 168.852 295.358 173.008 288.51C177.227 281.702 181.625 275.022 186.211 268.472C190.859 261.962 195.684 255.591 200.673 249.368C205.703 243.189 210.868 237.15 216.162 231.272C221.44 225.423 226.817 219.739 232.262 214.211C237.657 208.726 243.093 203.39 248.551 198.232C253.911 193.105 259.284 188.154 264.651 183.373C269.905 178.642 275.15 174.092 280.395 169.738C285.536 165.435 290.696 161.333 295.85 157.447C300.952 153.616 306.075 150.02 311.253 146.645C316.395 143.341 321.62 140.276 326.927 137.452C332.239 134.697 337.664 132.18 343.199 129.921C348.783 127.721 354.5 125.763 360.34 124.045C366.241 122.377 372.287 120.943 378.462 119.727C384.714 118.531 391.094 117.553 397.6 116.758C404.176 115.97 410.869 115.352 417.65 114.905C424.519 114.425 431.472 114.082 438.5 113.874C445.592 113.603 452.753 113.441 459.973 113.388C467.243 113.244 474.568 113.184 481.915 113.21C489.326 113.128 496.753 113.118 504.207 113.173C511.696 113.111 519.208 113.135 526.72 113.205C534.275 113.172 541.826 113.207 549.368 113.331C556.943 113.35 564.516 113.471 572.057 113.698C579.623 113.851 587.173 114.127 594.682 114.552C602.197 114.944 609.677 115.499 617.098 116.233" stroke="black" stroke-opacity="0.05" stroke-width="2.5" stroke-linecap="round" stroke-dasharray="24 4"/>
<path opacity="0.18" d="M629.574 140.471C636.551 141.558 643.362 142.833 650 144.283C656.624 145.786 663.047 147.49 669.289 149.4C675.497 151.393 681.512 153.6 687.317 156.038C693.074 158.578 698.635 161.341 703.976 164.334C709.276 167.442 714.364 170.792 719.235 174.36C726.398 179.996 739.711 192.569 745.915 199.465C750.007 204.25 753.961 209.233 757.801 214.411C761.689 219.675 765.501 225.146 769.263 230.798C773.128 236.532 776.996 242.453 780.879 248.542C784.92 254.708 789.035 261.062 793.243 267.576C797.663 274.15 802.215 280.897 806.916 287.787C811.85 294.744 816.945 301.837 822.189 309.073C827.658 316.328 833.25 323.705 838.952 331.178C844.794 338.64 850.678 346.175 856.55 353.752C862.418 361.269 868.163 368.78 873.708 376.293C879.075 383.653 884.103 390.956 888.726 398.169C892.975 405.186 896.685 412.068 899.788 418.803C903.355 428.444 906.248 446.528 905.613 454.983C903.813 463.033 897.886 478.662 894.445 486.484C891.509 494.523 888.156 511.871 888.367 521.404C889.558 528.135 891.435 535.189 893.982 542.587C897.29 550.218 901.105 558.137 905.325 566.298C909.911 574.571 914.568 582.973 919.08 591.442C923.394 599.833 927.162 608.156 930.184 616.343C932.452 624.264 933.667 631.946 933.696 639.343C932.674 646.374 930.408 653.102 926.92 659.521C922.519 665.644 917.126 671.536 910.919 677.27C904.348 682.881 897.417 688.475 890.395 694.167C883.751 699.974 877.569 705.961 872.042 712.193C867.462 718.744 863.789 725.614 861.047 732.821C859.387 740.394 858.583 748.279 858.525 756.417C859.23 764.824 860.332 773.388 861.634 782.019C863.096 790.717 864.335 799.351 865.13 807.846C865.495 816.196 865.073 824.292 863.751 832.084C861.605 839.598 858.424 846.773 854.201 853.586C849.099 860.1 843.052 866.284 836.149 872.156C828.624 877.818 820.496 883.24 811.926 888.479C803.148 893.636 794.239 898.702 785.337 903.7C776.665 908.741 768.249 913.798 760.219 918.893C752.699 924.114 745.69 929.378 739.217 934.708C733.373 940.18 728.087 945.677 723.301 951.18C719.096 956.775 715.305 962.311 711.842 967.748C707.342 975.818 699.233 990.745 695.168 997.365C690.893 1003.33 680.799 1012.8 674.828 1016.2C668.159 1018.71 652.819 1021.02 644.242 1020.87C638.24 1020.42 632.012 1019.58 625.601 1018.37C619.038 1017.02 612.348 1015.38 605.546 1013.46C598.652 1011.49 591.695 1009.33 584.694 1006.98C577.633 1004.7 570.555 1002.34 563.477 999.886C556.344 997.604 549.23 995.329 542.126 993.093C534.978 991.098 527.842 989.211 520.712 987.455C513.53 986.008 506.355 984.726 499.169 983.639C491.926 982.916 484.669 982.399 477.385 982.094C470.044 982.155 462.674 982.439 455.283 982.913C447.825 983.715 440.348 984.697 432.853 985.824C425.301 987.2 417.733 988.675 410.178 990.178C402.586 991.855 395.009 993.478 387.473 995.023C379.933 996.589 372.548 997.963 365.313 999.096C358.11 1000.11 351.088 1000.81 344.26 1001.13C337.49 1001.25 330.93 1000.93 324.597 1000.16C318.348 999.091 312.324 997.533 306.538 995.485C300.838 993.082 295.378 990.178 290.157 986.782C285.024 983.021 280.117 978.776 275.438 974.073C270.837 969.046 266.438 963.586 262.253 957.721C258.099 951.587 254.135 945.097 250.322 938.286C246.53 931.283 242.876 924.001 239.346 916.493C235.785 908.869 232.326 901.059 228.937 893.109C225.49 885.104 222.098 877.013 218.745 868.853C215.303 860.711 211.878 852.55 208.464 844.382C204.948 836.284 201.436 828.211 197.919 820.194C194.3 812.283 190.683 804.443 187.084 796.689C183.396 789.07 179.736 781.541 176.113 774.106C172.434 766.839 168.83 759.678 165.308 752.604C161.768 745.71 158.348 738.914 155.059 732.21C151.8 725.667 148.702 719.225 145.792 712.859C142.923 706.646 140.256 700.501 137.796 694.403C134.304 685.486 128.434 667.935 126.035 659.224C123.835 650.592 120.204 633.144 118.716 624.275C117.26 615.323 114.794 596.895 113.794 587.421C113.095 581.032 112.523 574.558 112.078 567.964C111.604 561.36 111.28 554.667 111.131 547.869C110.972 541.068 111.001 534.191 111.24 527.234C111.501 520.272 111.975 513.254 112.669 506.159C113.421 499.083 114.399 491.944 115.609 484.755C116.871 477.572 118.355 470.336 120.073 463.051C121.826 455.789 123.805 448.464 126.001 441.107C128.211 433.743 130.595 426.427 133.154 419.158C135.695 411.882 138.378 404.655 141.199 397.463C143.988 390.271 146.911 383.125 149.937 376.025C152.921 368.923 156.011 361.856 159.197 354.857C162.345 347.845 165.592 340.89 168.955 334.009C172.277 327.126 175.715 320.317 179.285 313.598C182.848 306.902 186.557 300.289 190.42 293.798C194.309 287.328 198.381 280.989 202.618 274.776C206.916 268.607 211.395 262.581 216.052 256.708C220.789 250.885 225.691 245.224 230.749 239.719C235.865 234.269 241.125 228.985 246.506 223.869C251.894 218.802 257.382 213.909 262.94 209.18C268.458 204.483 274.021 199.965 279.611 195.619C285.119 191.304 290.625 187.151 296.123 183.182C301.507 179.244 306.868 175.473 312.208 171.894C317.431 168.356 322.628 164.996 327.814 161.831C335.444 157.242 350.606 149.161 358.223 145.698C365.838 142.514 381.438 137.32 389.467 135.301C397.665 133.549 414.693 131.098 423.526 130.353C429.539 129.913 435.653 129.637 441.873 129.512C448.174 129.357 454.57 129.35 461.058 129.468C467.627 129.519 474.268 129.688 480.984 129.965C487.768 130.147 494.621 130.423 501.523 130.785C508.483 131.051 515.495 131.392 522.532 131.799C529.626 132.11 536.746 132.476 543.875 132.927C551.046 133.263 558.234 133.687 565.402 134.186C572.616 134.595 579.803 135.1 586.974 135.705C594.162 136.245 601.318 136.903 608.418 137.694C615.53 138.476 622.585 139.391 629.565 140.468" stroke="black" stroke-opacity="0.05" stroke-width="2.5" stroke-linecap="round" stroke-dasharray="8 12"/>
<path opacity="0.46" d="M639.602 164.583C646.134 165.971 652.498 167.515 658.698 169.231C664.882 170.998 670.889 172.944 676.717 175.076C682.512 177.279 688.13 179.693 693.552 182.313C701.55 186.49 716.584 196.113 723.633 201.553C730.497 207.391 743.472 220.375 749.663 227.507C753.787 232.445 757.828 237.6 761.807 242.978C765.849 248.454 769.872 254.147 773.88 260.049C777.996 266.042 782.138 272.248 786.334 278.643C790.658 285.137 795.053 291.804 799.534 298.66C804.165 305.578 808.886 312.676 813.698 319.918C818.654 327.207 823.673 334.629 828.762 342.163C833.933 349.707 839.111 357.325 844.264 365.016C849.404 372.654 854.442 380.309 859.321 387.96C864.065 395.506 868.544 402.98 872.703 410.393C876.591 417.624 880.063 424.731 883.051 431.687C886.672 441.696 890.416 460.432 890.488 469.15C889.448 477.363 884.751 492.94 881.537 500.509C878.363 508.084 873.015 523.952 871.468 532.539C871.224 538.571 871.518 544.908 872.381 551.585C873.978 558.528 876.128 565.794 878.805 573.371C882.052 581.158 885.633 589.19 889.436 597.42C893.438 605.696 897.349 614.053 901.003 622.412C904.364 630.627 907.128 638.715 909.141 646.59C910.423 654.164 910.716 661.439 909.936 668.381C908.231 674.93 905.422 681.145 901.54 687.026C896.888 692.59 891.38 697.91 885.171 703.061C878.665 708.077 871.852 713.087 864.939 718.174C858.368 723.39 852.183 728.789 846.545 734.435C841.737 740.411 837.688 746.734 834.445 753.389C832.16 760.437 830.646 767.825 829.796 775.498C829.677 783.472 829.971 791.615 830.515 799.873C831.3 808.241 831.991 816.571 832.391 824.782C832.518 832.88 832.058 840.726 830.895 848.282C829.078 855.558 826.378 862.471 822.789 868.983C818.43 875.179 813.18 880.974 807.115 886.397C800.416 891.549 793.064 896.384 785.179 900.93C776.96 905.326 768.455 909.522 759.806 913.575C751.179 917.59 742.637 921.544 734.28 925.456C726.258 929.446 718.588 933.438 711.326 937.454C704.575 941.598 698.29 945.755 692.487 949.932C684.807 956.344 672.199 968.992 666.974 975.034C662.392 980.841 653.844 991.009 649.535 995.181C640.049 1001.09 623.075 1005.05 616.337 1004.67C609.089 1003.64 593.235 999.697 584.738 996.931C578.864 994.97 572.857 992.799 566.73 990.472C560.482 988.191 554.148 985.814 547.731 983.368C541.202 981.066 534.619 978.766 527.979 976.478C521.25 974.426 514.465 972.447 507.646 970.573C500.737 968.97 493.788 967.518 486.801 966.217C479.729 965.237 472.62 964.432 465.475 963.802C458.254 963.498 450.997 963.369 443.719 963.398C436.367 963.717 429.002 964.173 421.63 964.746C414.191 965.553 406.767 966.413 399.361 967.316C391.913 968.345 384.51 969.333 377.173 970.252C369.819 971.189 362.629 971.955 355.624 972.512C348.651 972.975 341.866 973.159 335.298 973.04C328.777 972.714 322.49 972.033 316.43 970.958C310.447 969.617 304.697 967.861 299.199 965.662C293.771 963.158 288.595 960.212 283.65 956.825C278.789 953.117 274.16 948.969 269.754 944.401C265.407 939.526 261.264 934.258 257.322 928.61C253.416 922.691 249.683 916.439 246.099 909.868C242.54 903.093 239.105 896.037 235.778 888.751C232.44 881.306 229.195 873.674 226.028 865.872C222.813 857.991 219.652 849.977 216.531 841.873C213.354 833.746 210.204 825.571 207.077 817.357C203.886 809.176 200.707 800.989 197.563 792.828C194.347 784.756 191.161 776.72 188.021 768.739C184.827 760.89 181.698 753.103 178.641 745.418C175.559 737.876 172.572 730.433 169.698 723.097C166.837 715.919 164.111 708.845 161.528 701.889C159.001 695.086 156.628 688.395 154.443 681.816C151.339 672.21 146.155 653.607 144.07 644.562C142.201 635.701 139.284 618.172 138.171 609.443C137.103 600.708 135.399 583.025 134.711 574.007C134.001 564.896 132.942 546.23 132.642 536.682C132.445 530.278 132.389 523.801 132.493 517.26C132.597 510.718 132.88 504.119 133.36 497.471C133.881 490.827 134.619 484.142 135.588 477.433C136.607 470.733 137.868 464.013 139.377 457.252C140.938 450.524 142.74 443.777 144.787 437C146.881 430.242 149.206 423.46 151.741 416.657C154.304 409.866 157.033 403.119 159.922 396.438C162.782 389.746 165.787 383.1 168.901 376.512C171.972 369.893 175.139 363.339 178.4 356.822C181.591 350.289 184.873 343.805 188.233 337.377C191.523 330.932 194.9 324.547 198.357 318.242C201.774 311.932 205.302 305.704 208.928 299.563C212.548 293.444 216.295 287.424 220.18 281.533C224.087 275.674 228.161 269.955 232.392 264.372C236.678 258.848 241.147 253.481 245.779 248.265C250.488 243.14 255.36 238.165 260.395 233.376C265.491 228.659 270.734 224.11 276.096 219.752C281.49 215.455 286.987 211.331 292.565 207.383C298.121 203.498 303.73 199.776 309.37 196.222C314.941 192.711 320.521 189.37 326.099 186.194C331.572 183.047 337.021 180.068 342.434 177.264C350.367 173.154 365.865 165.854 373.462 162.664C380.895 159.68 395.667 154.672 403.064 152.671C410.457 150.871 425.527 148.255 433.254 147.413C441.125 146.748 457.399 146.231 465.815 146.337C471.523 146.412 477.336 146.625 483.233 146.968C489.205 147.246 495.268 147.634 501.402 148.133C507.613 148.557 513.895 149.058 520.237 149.667C526.655 150.176 533.121 150.765 539.636 151.432C546.213 152.007 552.82 152.653 559.457 153.371C566.14 154.013 572.843 154.723 579.537 155.524C586.282 156.238 593.004 157.051 599.714 157.965C606.442 158.828 613.144 159.798 619.792 160.901C626.46 161.977 633.057 163.201 639.593 164.579" stroke="black" stroke-opacity="0.05" stroke-width="2.5" stroke-linecap="round" stroke-dasharray="21 15"/>
<path opacity="0.47" d="M649.184 189.282C655.293 190.931 661.256 192.728 667.076 194.698C672.883 196.699 678.542 198.884 684.053 201.251C692.198 205 707.691 213.617 715.031 218.53C722.218 223.808 735.9 235.656 742.457 242.233C746.795 246.816 751.054 251.629 755.238 256.66C759.463 261.809 763.628 267.197 767.767 272.79C771.952 278.516 776.133 284.447 780.315 290.597C784.569 296.843 788.838 303.303 793.132 309.946C797.512 316.68 801.918 323.596 806.346 330.681C810.861 337.821 815.387 345.101 819.914 352.514C824.479 359.946 829.013 367.485 833.491 375.081C837.941 382.664 842.285 390.269 846.478 397.897C850.55 405.417 854.41 412.92 857.994 420.348C861.369 427.639 864.399 434.81 867.047 441.868C869.395 448.719 871.296 455.401 872.731 461.906C874.097 471.236 873.885 488.608 872.399 496.695C870.196 504.409 864.331 519.331 861.116 526.759C858.282 534.36 854.276 550.663 853.536 559.576C853.789 565.869 854.521 572.469 855.739 579.39C857.542 586.572 859.776 594.049 862.375 601.789C865.377 609.701 868.57 617.792 871.814 626.004C875.121 634.223 878.222 642.438 880.979 650.584C883.383 658.546 885.177 666.308 886.234 673.808C886.603 680.973 886.074 687.786 884.574 694.235C882.268 700.292 878.995 705.975 874.81 711.312C869.974 716.331 864.406 721.103 858.234 725.691C851.837 730.157 845.165 734.598 838.402 739.105C831.924 743.75 825.78 748.571 820.091 753.625C815.107 759.023 810.77 764.748 807.121 770.807C804.31 777.288 802.159 784.089 800.628 791.205C799.769 798.636 799.31 806.274 799.147 814.044C799.275 821.968 799.401 829.866 799.38 837.694C799.217 845.439 798.636 852.969 797.517 860.2C795.922 867.2 793.62 873.831 790.564 880.046C786.861 885.933 782.387 891.397 777.162 896.434C771.332 901.151 764.844 905.487 757.81 909.461C750.362 913.208 742.535 916.673 734.441 919.898C726.221 923.026 717.926 925.984 709.676 928.829C701.568 931.671 693.665 934.466 686.028 937.22C678.74 940.059 671.818 942.882 665.29 945.703C656.377 950.099 641.233 958.872 634.871 963.136C624.496 971.043 611.002 980.535 606.681 982.568C597.444 984.616 581.586 983.732 575.48 982.132C568.951 980.133 554.729 974.849 547.079 971.731C541.782 969.65 536.334 967.459 530.751 965.19C525.022 963.045 519.175 960.866 513.226 958.699C507.137 956.719 500.944 954.785 494.659 952.917C488.256 951.295 481.768 949.778 475.205 948.37C468.519 947.219 461.773 946.221 454.97 945.342C448.046 944.744 441.083 944.273 434.085 943.919C426.996 943.825 419.88 943.828 412.746 943.906C405.548 944.173 398.353 944.49 391.186 944.82C383.965 945.258 376.792 945.659 369.673 945.976C362.546 946.314 355.586 946.502 348.798 946.506C342.037 946.438 335.475 946.114 329.111 945.533C322.802 944.785 316.716 943.719 310.861 942.315C302.288 939.685 286.433 932.133 279.135 927.167C274.435 923.454 269.948 919.334 265.664 914.837C261.456 910.062 257.446 904.92 253.617 899.429C249.843 893.684 246.229 887.616 242.766 881.244C239.329 874.666 236.028 867.825 232.841 860.723C229.651 853.486 226.568 846.034 223.575 838.406C220.559 830.67 217.614 822.81 214.739 814.826C211.835 806.803 208.986 798.698 206.197 790.549C203.364 782.403 200.602 774.242 197.884 766.079C195.151 757.982 192.483 749.916 189.888 741.886C187.294 733.965 184.779 726.12 182.366 718.349C179.977 710.711 177.692 703.173 175.55 695.74C173.437 688.456 171.478 681.283 169.667 674.231C167.904 667.337 166.307 660.547 164.882 653.877C162.896 644.124 159.835 625.303 158.729 616.173C157.775 607.238 156.467 589.625 156.055 580.869C155.64 572.148 155.071 554.541 154.892 545.607C154.652 536.606 154.457 518.269 154.565 508.963C154.738 499.579 155.821 480.623 156.828 471.086C158.1 461.568 161.881 442.551 164.413 433.075C166.261 426.795 168.36 420.516 170.683 414.248C173.075 408.002 175.691 401.767 178.522 395.541C181.376 389.312 184.39 383.15 187.546 377.069C190.687 370.969 193.939 364.922 197.288 358.935C200.581 352.921 203.958 346.972 207.4 341.054C210.769 335.126 214.198 329.239 217.684 323.404C221.097 317.557 224.567 311.763 228.103 306.05C231.58 300.32 235.145 294.669 238.788 289.13C242.417 283.596 246.146 278.171 249.997 272.879C253.867 267.62 257.879 262.504 262.023 257.549C266.233 252.651 270.598 247.913 275.124 243.351C279.707 238.865 284.468 234.564 289.373 230.455C294.344 226.426 299.463 222.579 304.707 218.939C309.995 215.357 315.39 211.973 320.866 208.774C326.362 205.634 331.911 202.666 337.496 199.885C343.055 197.141 348.632 194.576 354.203 192.165C362.432 188.677 378.62 182.506 386.525 179.821C394.226 177.292 409.261 173.006 416.604 171.252C423.815 169.641 438.116 167.199 445.257 166.381C452.403 165.688 466.909 165.038 474.317 165.068C481.855 165.186 497.361 166.021 505.346 166.697C513.516 167.403 530.327 169.226 538.967 170.319C544.802 170.995 550.713 171.756 556.668 172.6C562.69 173.355 568.753 174.202 574.85 175.128C580.998 175.98 587.172 176.906 593.359 177.936C599.588 178.889 605.817 179.952 612.033 181.105C618.283 182.226 624.511 183.459 630.701 184.819C636.911 186.152 643.075 187.633 649.175 189.277" stroke="black" stroke-opacity="0.05" stroke-width="2.5" stroke-linecap="round" stroke-dasharray="18 15"/>
<path opacity="0.21" d="M659.652 215.473C665.365 217.363 670.983 219.412 676.483 221.619C684.655 225.079 700.37 232.981 707.914 237.473C712.876 240.614 717.73 243.969 722.466 247.532C731.892 254.956 740.915 263.291 749.587 272.515C758.279 282.189 766.719 292.783 774.989 304.244C783.363 316.139 791.629 328.837 799.783 342.272C808.025 355.957 816.089 370.204 823.856 384.858C831.426 399.45 838.396 414.178 844.512 428.809C849.947 442.966 854.124 456.735 856.801 469.903C858.41 482.314 858.377 494.02 856.712 505C854.295 515.365 850.736 525.283 846.449 535.001C842.645 544.792 839.142 554.979 836.472 565.877C835.665 577.656 836.34 590.564 838.587 604.627C842.671 619.606 847.617 635.401 852.74 651.595C857.654 667.609 860.997 683.081 861.9 697.507C860.81 707.349 853.422 724.529 847.173 731.908C842.221 736.393 836.64 740.634 830.564 744.682C824.292 748.618 817.801 752.518 811.206 756.472C804.875 760.563 798.806 764.815 793.126 769.275C788.038 774.084 783.484 779.196 779.519 784.641C776.267 790.492 773.608 796.666 771.488 803.133C769.97 809.954 768.857 816.993 768.039 824.174C767.28 839.021 766.321 853.668 764.276 867.522C760.908 880.589 755.147 892.086 746.826 901.842C736.354 910.24 723.66 917.014 709.32 922.379C694.098 927.02 678.471 930.854 663.097 934.131C648.528 937.54 635.069 940.777 622.956 943.866C612.349 947.37 603.089 950.649 595.007 953.535C588.043 956.603 581.758 958.968 575.827 960.458C570.269 961.797 564.561 962.062 558.533 961.232C552.274 960.171 545.409 958.078 537.914 955.077C529.896 952.093 521.175 948.484 511.818 944.426C501.867 940.808 491.3 937.09 480.187 933.413C468.523 930.55 456.37 927.947 443.844 925.67C437.396 924.877 430.88 924.158 424.292 923.524C417.6 923.093 410.871 922.716 404.102 922.38C397.265 922.217 390.406 922.054 383.551 921.881C376.664 921.803 369.782 921.665 362.955 921.432C356.113 921.23 349.421 920.874 342.885 920.369C336.373 919.79 330.041 918.988 323.893 917.953C317.796 916.783 311.897 915.326 306.21 913.576C300.596 911.643 295.19 909.376 289.996 906.767C279.867 900.883 270.597 893.56 262.136 884.855C253.986 875.176 246.559 864.181 239.774 851.998C233.182 839.049 227.119 825.137 221.527 810.44C215.995 795.339 210.846 779.743 206.066 763.83C201.317 747.923 196.94 731.964 192.986 716.132C189.138 700.636 185.776 685.428 182.979 670.628C180.353 656.338 178.329 642.501 176.941 629.139C175.666 616.266 174.97 603.771 174.795 591.61C174.538 579.728 174.647 568.003 175.073 556.345C175.176 544.729 175.473 533.036 175.989 521.229C176.126 509.345 176.541 497.293 177.327 485.139C177.971 472.954 179.206 460.729 181.142 448.539C182.804 439.46 187.352 421.52 190.265 412.674C193.544 403.936 201.357 386.685 205.86 378.166C208.954 372.514 212.191 366.943 215.562 361.448C218.91 355.953 222.365 350.518 225.896 345.139C229.369 339.739 232.899 334.385 236.479 329.096C239.987 323.766 243.526 318.492 247.109 313.267C254.017 302.722 261.112 292.458 268.423 282.554C275.595 272.659 283.154 263.271 291.156 254.485C299.331 245.91 308.092 238.068 317.397 231.022C327.001 224.284 337.114 218.347 347.647 213.236C358.294 208.366 369.178 204.231 380.152 200.81C390.987 197.472 401.728 194.757 412.309 192.64C422.569 190.465 432.615 188.832 442.451 187.756C451.976 186.528 461.372 185.827 470.702 185.665C479.872 185.312 489.102 185.469 498.436 186.134C507.798 186.566 517.386 187.463 527.203 188.816C537.187 189.876 547.446 191.342 557.949 193.184C568.677 194.704 579.645 196.584 590.785 198.825C599.259 200.392 616.415 203.931 625.052 205.928C630.831 207.255 636.618 208.711 642.377 210.302C648.159 211.868 653.913 213.593 659.639 215.478" stroke="black" stroke-opacity="0.05" stroke-width="2.5" stroke-linecap="round" stroke-dasharray="25 8"/>
<path opacity="0.96" d="M671.202 243.851C681.945 248.109 692.351 253.052 702.39 258.673C712.344 264.522 721.928 271.164 731.136 278.633C740.262 286.436 749.04 295.123 757.502 304.677C765.901 314.616 774.034 325.415 781.892 337.003C789.712 348.929 797.244 361.558 804.437 374.767C811.488 388.115 818.062 401.864 824.038 415.803C829.579 429.576 834.26 443.29 837.893 456.747C840.777 469.69 842.376 482.143 842.591 493.99C842 505.208 840.096 515.814 837.023 525.89C833.687 535.627 829.739 545.183 825.581 554.809C822.252 564.796 819.506 575.396 817.72 586.816C817.63 599.2 818.799 612.652 821.131 627.108C824.761 642.295 828.785 658.01 832.548 673.826C835.801 689.245 837.385 703.871 836.629 717.281C833.695 729.232 827.848 739.603 819.164 748.447C808.794 756.178 796.739 763.145 783.879 769.922C771.879 777.248 761.114 785.354 752.149 794.558C745.596 805.347 740.934 817.281 737.746 830.047C735.902 843.677 734.174 857.216 731.835 870.109C728.688 882.424 723.727 893.271 716.715 902.417C707.911 910.253 697.079 916.325 684.606 920.797C671.042 924.324 656.728 926.741 642.23 928.316C628.009 929.76 614.434 930.812 601.829 931.606C590.332 932.761 580.029 933.738 570.878 934.486C562.84 935.585 555.659 936.287 549.147 936.443C543.203 936.751 537.49 936.357 531.783 935.178C526.086 934.044 520.071 932.148 513.62 929.515C506.815 927.051 499.405 924.037 491.392 920.605C482.83 917.602 473.63 914.402 463.81 911.146C453.435 908.55 442.485 906.056 431.062 903.692C419.152 902.058 406.867 900.541 394.319 899.084C381.467 898.14 368.512 897.039 355.59 895.61C342.63 894.233 330.191 892.214 318.354 889.401C306.737 886.148 295.841 881.829 285.708 876.366C275.91 870.153 266.909 862.665 258.671 853.942C250.791 844.406 243.622 833.668 237.139 821.866C230.924 809.398 225.3 796.025 220.248 781.938C215.387 767.486 211.034 752.551 207.186 737.339C203.515 722.099 200.344 706.811 197.712 691.643C195.267 676.738 193.384 662.11 192.073 647.868C190.954 634.036 190.388 620.629 190.388 607.643C190.437 595.051 190.929 582.786 191.823 570.836C192.537 559.053 193.497 547.417 194.664 535.852C195.447 524.268 196.371 512.635 197.429 500.947C198.14 489.148 199.095 477.302 200.392 465.422C201.582 453.548 203.35 441.742 205.786 430.1C208.446 418.604 211.961 407.356 216.382 396.39C221.136 385.628 226.763 375.125 233.23 364.874C239.81 354.695 246.853 344.871 254.213 335.37C261.358 325.729 268.636 316.317 275.991 307.135C283.011 297.774 290.118 288.689 297.343 279.953C304.391 271.179 311.732 262.906 319.406 255.238C327.194 247.747 335.476 240.993 344.231 235.039C353.272 229.4 362.802 224.597 372.74 220.628C382.872 216.929 393.272 213.999 403.836 211.796C414.362 209.71 424.878 208.239 435.297 207.349C445.496 206.394 455.517 205.931 465.336 205.942C474.893 205.769 484.277 206.014 493.514 206.692C502.588 207.109 511.615 207.922 520.645 209.15C529.657 210.082 538.776 211.407 548.033 213.106C557.391 214.483 566.959 216.231 576.73 218.343C586.646 220.136 596.786 222.295 607.105 224.843C617.571 227.111 628.176 229.819 638.862 232.994C649.628 236.014 660.427 239.611 671.194 243.846" stroke="black" stroke-opacity="0.05" stroke-width="2.5" stroke-linecap="round" stroke-dasharray="17 1"/>
<path opacity="0.67" d="M682.941 274.421C693.05 279.125 702.872 284.488 712.376 290.526C721.799 296.758 730.881 303.741 739.61 311.495C748.234 319.546 756.489 328.394 764.386 338.022C772.149 347.953 779.536 358.635 786.509 369.949C793.296 381.513 799.617 393.615 805.38 406.106C810.825 418.628 815.584 431.352 819.528 444.112C822.959 456.624 825.405 468.954 826.756 480.925C827.455 492.438 827.004 503.483 825.407 514.012C823.308 524.113 820.294 533.816 816.561 543.212C812.943 552.598 809.144 562.065 805.472 571.842C802.796 582.224 800.819 593.328 799.749 605.308C800.118 618.237 801.429 632.082 803.509 646.713C806.41 661.861 809.294 677.237 811.618 692.425C813.229 707.016 813.173 720.635 810.965 732.908C806.869 743.736 800.278 752.989 791.312 760.744C781.013 767.493 769.315 773.485 756.95 779.247C745.305 785.532 734.668 792.486 725.53 800.408C718.408 809.843 712.934 820.343 708.81 831.659C706.009 843.92 703.552 856.208 700.851 868.02C697.759 879.461 693.397 889.608 687.49 898.177C680.158 905.553 671.101 911.149 660.542 915.037C648.843 917.876 636.209 919.364 623.099 919.76C609.849 919.784 596.842 919.183 584.389 918.138C572.624 917.309 561.78 916.267 551.898 915.042C542.934 914.233 534.858 913.225 527.545 911.927C520.872 910.985 514.635 909.656 508.658 907.852C502.87 906.334 497.013 904.31 490.953 901.8C484.702 899.59 478.016 896.962 470.842 893.984C463.248 891.446 455.048 888.697 446.287 885.8C437.004 883.493 427.151 881.136 416.781 878.758C405.962 876.97 394.71 875.143 383.137 873.209C371.283 871.684 359.258 869.884 347.174 867.679C335.063 865.519 323.365 862.729 312.196 859.194C301.22 855.319 290.878 850.481 281.228 844.63C271.93 838.169 263.364 830.604 255.533 821.95C248.102 812.629 241.393 802.262 235.396 790.964C229.749 779.122 224.773 766.48 220.444 753.218C216.428 739.654 213.014 725.666 210.219 711.427C207.703 697.183 205.77 682.889 204.448 668.701C203.352 654.735 202.837 640.986 202.901 627.574C203.109 614.484 203.816 601.725 204.992 589.328C206.126 577.182 207.618 565.302 209.376 553.66C210.873 542.092 212.54 530.623 214.309 519.204C215.69 507.71 217.159 496.189 218.726 484.645C219.979 473.003 221.457 461.367 223.268 449.818C225.018 438.291 227.306 426.949 230.245 415.864C233.426 404.999 237.397 394.48 242.239 384.354C247.392 374.473 253.368 364.963 260.112 355.797C266.965 346.711 274.23 338.04 281.732 329.719C289.042 321.255 296.432 313.038 303.828 305.054C310.896 296.853 317.976 288.915 325.081 281.317C331.98 273.62 339.059 266.405 346.372 259.766C353.729 253.254 361.482 247.466 369.626 242.451C378.017 237.727 386.84 233.848 396.051 230.806C405.501 228.05 415.253 226.094 425.202 224.875C435.237 223.814 445.333 223.374 455.417 223.516C465.393 223.618 475.267 224.193 484.979 225.197C494.515 226.017 503.897 227.191 513.11 228.709C522.188 229.952 531.162 231.507 540.079 233.381C548.956 234.918 557.862 236.77 566.809 238.934C575.825 240.761 584.955 242.901 594.232 245.378C603.617 247.533 613.16 250.048 622.844 252.948C632.651 255.605 642.585 258.691 652.594 262.276C662.677 265.715 672.808 269.739 682.933 274.415" stroke="black" stroke-opacity="0.05" stroke-width="2.5" stroke-linecap="round" stroke-dasharray="21 11"/>
<path opacity="0.25" d="M693.24 306.355C702.714 311.445 711.894 317.153 720.751 323.485C729.513 329.96 737.924 337.117 745.941 344.949C753.813 352.995 761.265 361.734 768.261 371.11C775.063 380.699 781.358 390.868 787.1 401.522C792.566 412.306 797.396 423.435 801.52 434.793C805.252 446.101 808.178 457.471 810.204 468.725C811.739 479.761 812.314 490.547 811.883 500.989C810.99 511.112 809.153 520.872 806.457 530.271C803.592 539.514 800.163 548.59 796.358 557.628C792.942 566.925 789.609 576.543 786.617 586.657C784.6 597.496 783.259 609.114 782.663 621.556C783.179 634.836 784.32 648.839 785.856 663.37C787.804 678.179 789.445 692.925 790.324 707.224C790.39 720.796 788.868 733.254 785.419 744.284C780.378 753.944 773.246 762.066 764.157 768.748C754.022 774.55 742.76 779.61 730.943 784.399C719.726 789.708 709.345 795.539 700.176 802.21C692.688 810.284 686.607 819.333 681.749 829.148C678.123 839.958 674.998 850.898 671.918 861.511C668.756 871.987 664.786 881.361 659.737 889.351C653.647 896.324 646.182 901.607 637.412 905.19C627.594 907.694 616.813 908.715 605.395 908.473C593.564 907.659 581.633 905.992 569.922 903.686C558.508 901.406 547.674 898.804 537.547 895.974C528.059 893.514 519.319 890.93 511.29 888.203C503.831 885.93 496.887 883.489 490.331 880.844C484.034 878.613 477.856 876.133 471.665 873.376C465.398 871.045 458.892 868.456 452.071 865.629C444.929 863.259 437.329 860.713 429.252 858.002C420.755 855.818 411.742 853.507 402.264 851.069C392.384 849.132 382.096 847.019 371.484 844.702C360.618 842.702 349.559 840.359 338.412 837.535C327.243 834.763 316.426 831.379 306.051 827.305C295.879 822.968 286.277 817.771 277.309 811.695C268.689 805.159 260.777 797.653 253.588 789.247C246.803 780.3 240.766 770.489 235.458 759.88C230.575 748.846 226.402 737.153 222.943 724.943C219.861 712.491 217.464 699.694 215.744 686.712C214.339 673.69 213.575 660.647 213.434 647.683C213.525 634.858 214.182 622.216 215.377 609.833C216.646 597.637 218.352 585.684 220.436 574.007C222.417 562.425 224.635 551.029 227.043 539.779C229.147 528.497 231.351 517.27 233.601 506.069C235.485 494.741 237.417 483.398 239.453 472.086C241.22 460.673 243.204 449.346 245.508 438.175C247.805 427.07 250.624 416.25 254.045 405.798C257.712 395.595 262.125 385.825 267.309 376.564C272.81 367.557 279.053 359.008 285.979 350.894C293.023 342.866 300.403 335.303 307.974 328.124C315.353 320.783 322.774 313.715 330.168 306.891C337.223 299.808 344.23 292.979 351.199 286.467C357.929 279.809 364.741 273.584 371.675 267.881C378.619 262.257 385.831 257.292 393.336 253.077C401.043 249.101 409.123 245.944 417.535 243.611C426.203 241.564 435.171 240.315 444.361 239.812C453.732 239.503 463.225 239.829 472.772 240.759C482.349 241.7 491.891 243.101 501.337 244.939C510.728 246.618 519.995 248.626 529.13 250.942C538.195 252.99 547.15 255.294 556.016 257.859C564.855 260.093 573.667 262.57 582.468 265.304C591.313 267.697 600.206 270.369 609.163 273.317C618.211 275.965 627.349 278.941 636.568 282.279C645.889 285.394 655.281 288.92 664.721 292.932C674.222 296.816 683.738 301.27 693.232 306.348" stroke="black" stroke-opacity="0.05" stroke-width="2.5" stroke-linecap="round" stroke-dasharray="22 16"/>
<path opacity="0.16" d="M700.294 338.082C709.093 343.487 717.554 349.42 725.632 355.853C733.627 362.413 741.2 369.525 748.307 377.16C755.242 384.969 761.682 393.304 767.567 402.093C773.213 411.036 778.257 420.374 782.642 430.023C786.72 439.732 790.059 449.632 792.63 459.609C794.821 469.532 796.179 479.395 796.668 489.122C796.777 498.692 796.027 508.046 794.456 517.133C792.613 526.094 790.09 534.862 786.988 543.475C783.943 552.187 780.612 560.963 777.174 569.931C774.245 579.368 771.527 589.285 769.206 599.783C767.741 611.052 766.803 623.041 766.419 635.733C766.806 649.099 767.499 662.961 768.272 677.061C769.162 691.214 769.535 705.064 769.037 718.248C767.713 730.604 764.936 741.768 760.495 751.498C754.722 759.945 747.235 766.955 738.176 772.602C728.318 777.488 717.551 781.673 706.33 785.557C695.618 789.911 685.575 794.696 676.53 800.151C668.855 806.908 662.369 814.518 656.969 822.821C652.684 832.157 648.967 841.68 645.52 851.021C642.199 860.437 638.453 868.966 634.014 876.337C628.888 882.924 622.737 887.98 615.565 891.449C607.491 893.899 598.527 894.83 588.886 894.413C578.698 893.301 568.204 891.18 557.659 888.233C547.094 885.121 536.8 881.535 526.937 877.609C517.402 873.923 508.403 870.087 499.979 866.153C491.934 862.667 484.374 859.114 477.229 855.517C470.296 852.399 463.591 849.205 457.001 845.914C450.388 843.116 443.69 840.207 436.848 837.176C429.757 834.626 422.381 831.966 414.67 829.179C406.616 826.857 398.177 824.403 389.379 821.798C380.241 819.588 370.769 817.179 361.037 814.492C351.089 812.069 340.972 809.265 330.806 805.976C320.607 802.729 310.745 798.922 301.306 794.492C292.046 789.88 283.336 784.531 275.233 778.44C267.452 771.996 260.36 764.77 253.994 756.784C248.027 748.415 242.809 739.322 238.355 729.607C234.311 719.564 231.023 708.994 228.488 698.026C226.328 686.858 224.886 675.42 224.151 663.832C223.717 652.195 223.932 640.515 224.755 628.9C225.766 617.331 227.303 605.882 229.305 594.597C231.347 583.364 233.748 572.281 236.429 561.363C238.966 550.41 241.68 539.537 244.498 528.749C247.038 517.828 249.613 506.911 252.232 496.007C254.513 484.943 256.858 473.88 259.3 462.897C261.538 451.82 264.013 440.897 266.796 430.207C269.617 419.641 272.923 409.419 276.786 399.653C280.903 390.158 285.689 381.197 291.168 372.792C296.944 364.684 303.374 357.08 310.399 349.968C317.545 342.957 324.953 336.445 332.505 330.347C339.889 324.09 347.278 318.101 354.587 312.373C361.584 306.364 368.5 300.599 375.308 295.113C381.867 289.42 388.419 284.131 395.011 279.289C401.554 274.46 408.26 270.225 415.163 266.676C422.207 263.305 429.54 260.692 437.141 258.861C444.988 257.294 453.124 256.5 461.477 256.454C470.05 256.617 478.799 257.446 487.655 258.874C496.635 260.362 505.651 262.354 514.649 264.782C523.703 267.102 532.697 269.776 541.598 272.742C550.52 275.494 559.352 278.482 568.093 281.693C576.865 284.624 585.579 287.749 594.251 291.085C602.973 294.115 611.689 297.375 620.402 300.88C629.201 304.101 638.028 307.613 646.857 311.448C655.77 315.07 664.696 319.071 673.603 323.509C682.552 327.84 691.467 332.68 700.279 338.068" stroke="black" stroke-opacity="0.05" stroke-width="2.5" stroke-linecap="round" stroke-dasharray="17 16"/>
<path opacity="0.82" d="M702.785 367.754C710.867 373.357 718.524 379.357 725.751 385.729C732.872 392.19 739.513 399.049 745.61 406.283C751.553 413.632 756.908 421.34 761.647 429.332C766.146 437.423 769.979 445.759 773.107 454.252C775.945 462.777 778.036 471.381 779.369 479.979C780.391 488.553 780.641 497.058 780.124 505.439C779.36 513.77 777.9 521.991 775.808 530.093C773.632 538.243 770.997 546.397 768.009 554.59C765.217 563.086 762.324 571.845 759.452 580.951C757.107 590.636 754.991 600.86 753.204 611.683C752.088 623.193 751.323 635.326 750.871 647.981C750.881 661.097 750.945 674.458 750.853 687.806C750.645 700.998 749.813 713.693 748.088 725.572C745.577 736.578 741.784 746.367 736.578 754.769C730.305 762.013 722.656 767.908 713.753 772.57C704.265 776.591 694.058 779.95 683.499 782.993C673.329 786.47 663.731 790.264 654.936 794.593C647.244 800.086 640.534 806.307 634.777 813.16C629.986 821.016 625.801 829.119 621.996 837.149C618.465 845.426 614.787 853.051 610.76 859.746C606.319 865.906 601.175 870.757 595.312 874.19C588.733 876.747 581.405 877.871 573.458 877.636C564.932 876.673 556.01 874.592 546.866 871.592C537.49 868.252 528.144 864.279 518.973 859.845C509.875 855.488 501.083 850.887 492.657 846.136C484.42 841.727 476.551 837.279 469.014 832.831C461.605 828.829 454.431 824.846 447.426 820.89C440.388 817.408 433.385 813.934 426.347 810.436C419.119 807.401 411.742 804.345 404.18 801.214C396.343 798.5 388.271 795.705 379.962 792.75C371.384 790.155 362.584 787.353 353.63 784.294C344.488 781.437 335.263 778.227 326.057 774.574C316.817 770.962 307.936 766.868 299.491 762.283C291.199 757.536 283.447 752.21 276.3 746.293C269.445 740.118 263.279 733.319 257.817 725.944C252.724 718.268 248.377 710.047 244.8 701.351C241.6 692.409 239.156 683.055 237.456 673.401C236.107 663.58 235.468 653.53 235.506 643.37C235.811 633.125 236.737 622.818 238.216 612.53C239.835 602.207 241.921 591.905 244.419 581.689C246.902 571.409 249.668 561.17 252.676 550.989C255.505 540.677 258.475 530.363 261.53 520.062C264.313 509.563 267.145 499.038 270.012 488.521C272.614 477.828 275.295 467.174 278.098 456.618C280.773 446.019 283.678 435.635 286.9 425.543C290.188 415.6 293.944 406.08 298.197 397.076C302.697 388.367 307.794 380.236 313.496 372.706C319.465 365.477 325.997 358.803 333.054 352.661C340.199 346.628 347.558 341.103 355.017 336.009C362.332 330.76 369.617 325.805 376.793 321.104C383.709 316.109 390.488 311.338 397.123 306.815C403.52 302.054 409.839 297.625 416.115 293.584C422.305 289.481 428.562 285.898 434.935 282.903C441.381 280.018 448.038 277.821 454.878 276.33C461.934 275.055 469.223 274.524 476.723 274.698C484.447 275.08 492.366 276.12 500.417 277.78C508.654 279.546 516.993 281.822 525.368 284.556C533.877 287.278 542.393 290.347 550.872 293.748C559.448 296.989 567.979 300.491 576.45 304.208C584.995 307.71 593.487 311.403 601.918 315.278C610.437 318.907 618.911 322.735 627.338 326.76C635.86 330.562 644.33 334.603 652.749 338.896C661.256 343.038 669.691 347.49 678.034 352.29C686.418 357.01 694.689 362.152 702.778 367.747" stroke="black" stroke-opacity="0.05" stroke-width="2.5" stroke-linecap="round" stroke-dasharray="10 21"/>
<path opacity="0.29" d="M700.304 393.832C707.597 399.508 714.428 405.434 720.763 411.582C727.003 417.814 732.705 424.283 737.833 430.965C742.802 437.75 747.169 444.731 750.881 451.873C754.391 459.085 757.233 466.411 759.379 473.802C761.29 481.239 762.506 488.708 763.023 496.141C763.333 503.619 762.973 511.062 761.991 518.462C760.893 525.936 759.25 533.426 757.16 540.937C755.105 548.67 752.748 556.548 750.186 564.639C747.884 573.158 745.549 582.048 743.278 591.358C741.453 601.255 739.801 611.689 738.351 622.628C737.363 634.139 736.537 646.092 735.806 658.356C735.285 670.874 734.617 683.393 733.623 695.685C732.385 707.667 730.476 719.005 727.72 729.424C724.251 738.998 719.704 747.375 713.986 754.44C707.431 760.498 699.786 765.341 691.181 769.063C682.141 772.277 672.549 774.876 662.685 777.147C653.139 779.818 644.054 782.699 635.619 786.002C628.042 790.32 621.278 795.24 615.324 800.708C610.186 807.142 605.641 813.831 601.533 820.553C597.78 827.654 594.078 834.307 590.251 840.268C586.251 845.922 581.834 850.516 576.934 853.922C571.533 856.643 565.569 858.063 559.088 858.237C552.101 857.718 544.698 856.078 536.997 853.453C528.957 850.404 520.793 846.616 512.614 842.236C504.318 837.763 496.126 832.94 488.113 827.872C480.106 822.993 472.302 818.013 464.739 813.011C457.171 808.349 449.786 803.726 442.555 799.141C435.261 794.971 428.035 790.868 420.843 786.806C413.488 783.154 406.09 779.533 398.621 775.909C390.921 772.645 383.116 769.338 375.214 765.948C367.091 762.832 358.874 759.57 350.608 756.101C342.186 752.807 333.796 749.222 325.496 745.286C317.167 741.365 309.246 737.098 301.777 732.455C294.439 727.708 287.646 722.518 281.463 716.897C275.527 711.08 270.25 704.811 265.674 698.121C261.411 691.2 257.882 683.885 255.08 676.229C252.611 668.366 250.859 660.203 249.823 651.817C249.076 643.254 249 634.515 249.55 625.676C250.31 616.696 251.632 607.638 253.457 598.545C255.365 589.322 257.684 580.069 260.364 570.808C262.993 561.387 265.879 551.913 268.956 542.424C271.864 532.731 274.901 522.979 278.024 513.185C280.928 503.175 283.89 493.121 286.922 483.086C289.762 472.884 292.72 462.759 295.82 452.789C298.865 442.802 302.149 433.069 305.739 423.704C309.443 414.51 313.555 405.792 318.13 397.613C322.935 389.745 328.251 382.474 334.096 375.841C340.165 369.494 346.717 363.728 353.71 358.509C360.798 353.405 368.024 348.811 375.314 344.639C382.488 340.344 389.616 336.338 396.616 332.572C403.392 328.535 410.019 324.698 416.469 321.074C422.702 317.188 428.805 313.573 434.818 310.294C440.717 306.859 446.608 303.874 452.517 301.372C458.475 298.91 464.525 297.037 470.71 295.785C477.06 294.682 483.571 294.249 490.257 294.47C497.156 294.882 504.225 295.925 511.436 297.566C518.863 299.334 526.412 301.628 534.031 304.398C541.838 307.217 549.704 310.416 557.571 313.963C565.597 317.437 573.628 321.196 581.607 325.189C589.733 329.047 597.824 333.108 605.831 337.347C613.971 341.419 622.055 345.669 630.048 350.089C638.161 354.341 646.188 358.802 654.096 363.463C662.092 368.002 669.96 372.795 677.669 377.858C685.431 382.853 692.983 388.169 700.29 393.831" stroke="black" stroke-opacity="0.05" stroke-width="2.5" stroke-linecap="round" stroke-dasharray="21 2"/>
<path opacity="0.44" d="M693.409 415.64C699.903 421.249 705.896 426.986 711.376 432.833C716.785 438.744 721.637 444.777 725.918 450.915C730.066 457.117 733.608 463.427 736.534 469.798C739.304 476.239 741.436 482.745 742.949 489.272C744.292 495.867 745.021 502.491 745.167 509.13C745.176 515.866 744.655 522.655 743.648 529.471C742.596 536.487 741.15 543.62 739.378 550.907C737.692 558.504 735.813 566.366 733.793 574.53C732.011 583.155 730.201 592.181 728.433 601.616C726.975 611.576 725.578 621.97 724.262 632.738C723.203 643.905 722.122 655.324 720.968 666.838C719.838 678.418 718.425 689.809 716.6 700.798C714.463 711.366 711.666 721.196 708.112 730.104C703.946 738.201 698.883 745.171 692.888 750.946C686.27 755.878 678.795 759.718 670.588 762.583C662.082 765.044 653.156 766.952 644.023 768.544C635.138 770.472 626.617 772.542 618.637 774.925C611.298 778.178 604.628 781.915 598.629 786.105C593.298 791.184 588.505 796.535 584.165 801.975C580.19 807.89 576.388 813.516 572.642 818.671C566.886 825.859 553.65 834.985 545.875 836.487C540.151 836.539 534.071 835.547 527.706 833.589C520.975 831.171 514.044 827.971 506.985 824.107C499.702 820.045 492.375 815.502 485.087 810.608C477.659 805.769 470.312 800.725 463.061 795.565C455.72 790.617 448.473 785.655 441.338 780.706C434.072 776.051 426.877 771.46 419.735 766.921C412.43 762.706 405.127 758.547 397.85 754.422C390.37 750.583 382.876 746.744 375.384 742.873C367.709 739.228 360.043 735.488 352.438 731.621C344.7 727.889 337.079 723.949 329.629 719.766C322.164 715.596 315.13 711.204 308.571 706.579C302.112 701.861 296.205 696.855 290.904 691.566C285.788 686.122 281.316 680.376 277.501 674.345C273.943 668.135 271.071 661.643 268.88 654.917C266.954 648.005 265.693 640.872 265.086 633.572C264.701 626.099 264.92 618.461 265.708 610.718C266.648 602.794 268.08 594.765 269.967 586.65C271.905 578.359 274.193 569.963 276.807 561.499C279.356 552.807 282.147 544.021 285.115 535.161C287.947 526.063 290.922 516.878 293.995 507.632C296.915 498.18 299.93 488.698 303.049 479.251C306.065 469.682 309.227 460.224 312.557 450.959C315.892 441.718 319.478 432.781 323.362 424.25C327.372 415.906 331.758 408.054 336.556 400.778C341.556 393.794 347.007 387.421 352.893 381.673C358.975 376.208 365.469 371.319 372.327 366.976C379.261 362.737 386.294 358.999 393.352 355.7C400.322 352.265 407.231 349.132 414.02 346.24C420.605 343.072 427.044 340.11 433.304 337.327C439.362 334.252 445.272 331.415 451.06 328.834C456.716 326.056 462.304 323.644 467.86 321.608C476.201 318.749 493.304 315.708 502.194 315.682C508.341 315.992 514.621 316.887 521.024 318.335C527.634 319.923 534.364 322.024 541.172 324.601C548.188 327.247 555.288 330.307 562.414 333.735C569.737 337.167 577.077 340.903 584.408 344.907C591.908 348.843 599.381 353.005 606.802 357.359C614.366 361.626 621.872 366.061 629.277 370.676C636.806 375.177 644.228 379.848 651.498 384.702C658.87 389.463 666.075 394.42 673.063 399.575C680.105 404.697 686.899 410.045 693.403 415.631" stroke="black" stroke-opacity="0.05" stroke-width="2.5" stroke-linecap="round" stroke-dasharray="8 2"/>
<path opacity="0.47" d="M683.42 433.603C689.113 439.023 694.323 444.517 699.043 450.038C703.698 455.611 707.83 461.236 711.426 466.911C716.389 475.531 723.399 493.099 725.448 502.032C726.808 511.178 726.999 530.051 726.014 539.888C725.243 546.738 724.157 553.788 722.824 561.066C721.587 568.681 720.178 576.6 718.66 584.843C717.306 593.491 715.885 602.51 714.43 611.874C713.151 621.62 711.824 631.654 710.45 641.918C709.167 652.398 707.734 662.931 706.098 673.381C704.366 683.743 702.275 693.762 699.749 703.266C696.894 712.305 693.453 720.579 689.331 727.943C684.737 734.586 679.415 740.208 673.361 744.767C666.847 748.639 659.691 751.569 651.989 753.66C644.086 755.445 635.859 756.734 627.474 757.724C619.289 759.02 611.397 760.368 603.919 761.932C596.938 764.237 590.476 766.921 584.557 769.964C579.163 773.808 574.249 777.897 569.752 782.13C563.638 789.154 552.353 801.993 546.657 806.966C540.541 810.748 526.689 813.199 518.907 811.836C513.321 810.235 507.514 807.861 501.547 804.788C495.322 801.471 488.974 797.605 482.565 793.305C475.95 788.937 469.306 784.277 462.678 779.396C455.867 774.595 449.085 769.687 442.349 764.716C435.45 759.931 428.573 755.142 421.757 750.372C414.753 745.825 407.795 741.309 400.874 736.832C393.775 732.555 386.715 728.301 379.727 724.044C372.587 719.951 365.518 715.815 358.58 711.615C351.542 707.508 344.667 703.27 338.018 698.889C331.348 694.512 325.138 690.023 319.394 685.417C313.732 680.745 308.61 675.897 304.04 670.889C299.623 665.757 295.813 660.436 292.607 654.941C288.396 646.373 283.342 628.125 282.444 618.493C282.201 611.833 282.5 605.036 283.288 598.117C284.191 590.995 285.533 583.751 287.257 576.389C289.02 568.803 291.114 561.1 293.49 553.278C295.82 545.216 298.382 537.036 301.13 528.76C303.802 520.256 306.623 511.658 309.579 503.02C312.451 494.215 315.461 485.395 318.61 476.654C321.72 467.836 325.017 459.169 328.51 450.729C332.043 442.367 335.837 434.331 339.916 426.711C344.123 419.306 348.681 412.401 353.591 406.053C358.681 400 364.153 394.532 369.985 389.67C375.986 385.07 382.328 381.008 388.964 377.492C395.665 374.076 402.434 371.143 409.205 368.609C415.916 365.985 422.546 363.634 429.063 361.526C435.435 359.178 441.646 357.001 447.692 354.987C456.431 351.64 472.997 345.617 480.941 343.137C488.782 340.823 504.538 338.274 512.574 338.189C518.088 338.372 523.688 339.066 529.367 340.26C535.22 341.549 541.176 343.318 547.203 345.555C553.427 347.867 559.722 350.59 566.056 353.695C572.579 356.825 579.141 360.298 585.712 364.051C592.442 367.8 599.165 371.804 605.851 376.016C612.678 380.197 619.456 384.57 626.13 389.123C632.935 393.612 639.616 398.271 646.152 403.088C652.781 407.857 659.223 412.793 665.442 417.881C671.707 422.946 677.713 428.181 683.414 433.594" stroke="black" stroke-opacity="0.05" stroke-width="2.5" stroke-linecap="round" stroke-dasharray="16 6"/>
<path opacity="0.7" d="M671.908 449.147C676.846 454.318 681.343 459.528 685.401 464.759C691.176 472.685 700.289 488.782 703.621 496.986C706.355 505.366 709.491 522.682 709.996 531.691C710.174 537.925 710.003 544.316 709.527 550.899C709.064 557.712 708.35 564.77 707.422 572.075C706.545 579.674 705.51 587.558 704.333 595.731C703.234 604.205 702.017 612.948 700.691 621.916C699.415 631.113 698.014 640.466 696.448 649.884C694.868 659.338 693.051 668.711 690.954 677.846C688.716 686.778 686.091 695.284 683.034 703.226C679.687 710.685 675.825 717.414 671.404 723.296C666.618 728.565 661.263 732.93 655.34 736.389C649.099 739.295 642.381 741.415 635.261 742.816C628.008 744.007 620.521 744.769 612.902 745.242C605.426 745.983 598.197 746.72 591.273 747.595C584.715 749.084 578.56 750.841 572.842 752.881C565.057 757.09 551.755 767.053 545.925 772.222C540.403 777.409 529.349 785.311 523.539 787.563C517.3 788.677 503.585 786.716 496.119 783.779C490.852 781.361 485.442 778.383 479.931 774.92C474.205 771.333 468.394 767.37 462.532 763.112C456.471 758.838 450.376 754.362 444.267 749.738C437.991 745.193 431.701 740.565 425.438 735.879C419.007 731.313 412.597 726.744 406.235 722.155C399.721 717.714 393.255 713.253 386.897 708.794C380.401 704.446 374.005 700.067 367.777 695.647C361.469 691.297 355.344 686.87 349.464 682.333C343.572 677.818 338.109 673.262 333.095 668.661C328.143 664.003 323.684 659.271 319.733 654.453C314.253 647.019 306.186 631.417 303.619 623.223C301.795 614.668 300.845 596.648 301.601 587.187C302.329 580.649 303.447 573.964 304.909 567.152C306.404 560.13 308.21 552.966 310.27 545.686C312.327 538.196 314.611 530.583 317.107 522.885C319.553 514.997 322.192 507.051 325 499.089C327.779 491.016 330.733 482.976 333.876 475.04C337.014 467.094 340.363 459.328 343.929 451.818C347.575 444.423 351.47 437.379 355.639 430.749C359.932 424.335 364.528 418.407 369.438 413.022C374.499 407.9 379.879 403.332 385.569 399.324C391.386 395.557 397.478 392.308 403.814 389.546C410.219 386.882 416.649 384.676 423.071 382.847C429.45 380.943 435.761 379.313 441.966 377.892C448.058 376.273 454.008 374.822 459.814 373.514C468.235 371.235 484.196 367.108 491.812 365.392C499.264 363.701 513.995 361.793 521.361 361.727C528.881 362.095 544.353 365.024 552.319 367.59C557.801 369.496 563.339 371.786 568.912 374.449C574.651 377.151 580.41 380.198 586.183 383.538C592.112 386.9 598.026 390.525 603.91 394.409C609.923 398.268 615.89 402.358 621.771 406.628C627.758 410.876 633.643 415.317 639.375 419.907C645.191 424.476 650.829 429.212 656.26 434.084C661.735 438.95 666.956 443.972 671.903 449.138" stroke="black" stroke-opacity="0.05" stroke-width="2.5" stroke-linecap="round" stroke-dasharray="14 18"/>
<path opacity="0.35" d="M660.17 464.191C666.332 471.549 676.734 486.547 680.934 494.2C686.104 504.597 689.704 515.338 691.859 526.422C693.802 537.997 694.448 550.205 694 563.112C693.542 576.819 692.193 591.442 690.139 606.852C688.139 623.009 685.4 639.654 681.86 656.214C677.999 672.5 672.916 687.659 666.403 700.799C658.915 712.208 649.656 720.786 638.68 726.232C632.846 728.289 626.657 729.711 620.17 730.54C613.609 731.224 606.87 731.532 600.027 731.587C593.277 731.851 586.719 732.084 580.406 732.395C574.338 733.192 568.578 734.166 563.145 735.358C553.136 739.443 544.288 744.08 536.409 748.749C529.017 754.43 521.88 758.865 514.764 761.521C507.227 763.66 499.256 763.41 490.853 760.873C481.682 757.537 472.032 752.225 462.092 745.406C451.393 738.333 440.482 730.268 429.562 721.62C417.999 713.195 406.515 704.427 395.364 695.476C389.623 691.117 383.986 686.692 378.514 682.229C372.967 677.799 367.614 673.299 362.486 668.722C357.341 664.156 352.593 659.584 348.248 654.989C343.946 650.368 340.077 645.693 336.654 640.994C330.07 631.342 325.361 621.36 322.466 611.06C320.013 600.227 319.294 588.921 320.124 577.182C321.232 564.744 323.656 551.775 327.169 538.418C330.748 524.394 335.24 510.065 340.539 495.768C345.882 481.239 352.081 467.158 359.134 454.065C366.501 441.504 374.909 430.44 384.367 421.301C389.285 417.106 394.466 413.411 399.902 410.222C405.437 407.252 411.203 404.739 417.176 402.685C423.193 400.717 429.233 399.158 435.252 397.945C441.237 396.688 447.175 395.679 453.006 394.89C464.429 392.746 475.384 391.177 485.765 390.083C495.788 388.099 505.421 386.796 514.704 386.325C523.97 385.431 533.166 385.744 542.33 387.357C551.817 388.998 561.442 392.074 571.117 396.5C581.268 401.051 591.49 406.837 601.573 413.668C612.097 420.53 622.396 428.289 632.212 436.798C637.213 441.032 642.069 445.434 646.736 450.006C651.434 454.571 655.923 459.292 660.165 464.182" stroke="black" stroke-opacity="0.05" stroke-width="2.5" stroke-linecap="round" stroke-dasharray="25 13"/>
<path opacity="0.89" d="M648.866 480.48C656.052 489.677 661.977 499.248 666.647 509.104C671.146 519.127 674.37 529.619 676.418 540.552C678.292 551.876 679.07 563.846 678.875 576.418C678.582 589.527 677.41 603.3 675.425 617.477C673.316 631.956 670.33 646.466 666.415 660.45C662.089 673.877 656.581 685.972 649.799 696.118C642.285 704.763 633.366 711.008 623.153 714.669C612.4 717.147 600.725 717.793 588.526 717.136C576.621 717.176 565.372 717.244 555.04 717.781C545.505 720.119 536.861 722.915 529.02 725.846C521.629 729.884 514.594 733.183 507.758 735.333C500.744 737.405 493.544 737.755 486.134 736.296C478.187 734.323 469.886 730.619 461.361 725.437C452.204 719.953 442.834 713.344 433.427 705.887C423.493 698.468 413.603 690.467 403.996 682.039C394.047 673.773 384.553 665.097 375.814 656.062C367.021 647.056 359.62 637.951 353.678 628.749C347.98 619.34 343.836 609.645 341.219 599.704C338.919 589.342 338.095 578.564 338.598 567.437C339.361 555.784 341.308 543.712 344.296 531.397C347.43 518.655 351.518 505.805 356.454 493.164C361.551 480.51 367.541 468.45 374.381 457.417C381.541 446.967 389.659 437.944 398.681 430.663C408.084 424.229 418.362 419.517 429.365 416.543C440.521 413.896 451.653 412.54 462.533 412.114C473.205 411.156 483.509 410.733 493.33 410.734C502.886 409.923 512.071 409.637 520.887 409.935C529.642 409.708 538.24 410.372 546.664 412.012C555.291 413.505 563.92 416.15 572.48 419.936C581.376 423.726 590.247 428.659 598.948 434.601C607.967 440.558 616.757 447.444 625.128 455.153C633.674 462.83 641.658 471.283 648.862 480.47" stroke="black" stroke-opacity="0.05" stroke-width="2.5" stroke-linecap="round" stroke-dasharray="22 19"/>
<path opacity="0.88" d="M637.916 498.888C643.936 507.474 648.921 516.539 652.888 525.98C656.721 535.556 659.505 545.631 661.293 556.143C662.931 566.919 663.604 578.215 663.381 589.927C663.011 601.912 661.765 614.219 659.673 626.581C657.363 638.911 654.151 650.911 649.992 662.118C645.459 672.641 639.86 681.846 633.194 689.264C626.023 695.503 617.76 699.773 608.531 701.978C598.984 703.388 588.73 703.339 578.056 702.192C567.577 701.596 557.539 700.878 548.142 700.395C539.254 701.307 531.014 702.534 523.393 703.908C516.115 706.319 509.207 708.329 502.571 709.645C495.884 711.202 489.195 711.564 482.467 710.628C475.402 709.461 468.152 706.894 460.785 703.029C452.975 698.934 445.012 693.703 437.045 687.532C428.672 681.319 420.357 674.33 412.308 666.723C403.986 659.194 396.054 651.085 388.755 642.466C381.428 633.859 375.233 625.065 370.24 616.124C365.416 607.057 361.874 597.708 359.579 588.131C357.533 578.294 356.72 568.102 357.055 557.679C357.622 546.919 359.257 535.916 361.87 524.835C364.671 513.558 368.402 502.368 372.985 491.544C377.782 480.887 383.438 470.906 389.913 461.958C396.665 453.582 404.261 446.506 412.653 440.956C421.307 436.107 430.714 432.756 440.724 430.902C450.85 429.331 460.962 428.914 470.879 429.337C480.672 429.371 490.195 429.928 499.334 430.881C508.3 431.166 516.95 431.851 525.254 432.974C533.489 433.561 541.523 434.774 549.315 436.702C557.217 438.374 565.012 440.917 572.637 444.373C580.479 447.74 588.202 452.067 595.716 457.314C603.425 462.53 610.898 468.654 617.968 475.616C625.158 482.547 631.865 490.306 637.916 498.888Z" stroke="black" stroke-opacity="0.05" stroke-width="2.5" stroke-linecap="round" stroke-dasharray="9 21"/>
<path opacity="0.78" d="M626.644 519.038C631.599 526.961 635.691 535.374 638.917 544.17C642.053 553.049 644.29 562.372 645.677 572.026C646.924 581.805 647.314 591.928 646.884 602.206C646.284 612.549 644.856 622.919 642.612 633.051C640.15 642.961 636.828 652.32 632.666 660.789C628.199 668.62 622.831 675.231 616.607 680.321C610.052 684.558 602.682 687.235 594.583 688.329C586.308 688.925 577.477 688.355 568.291 686.884C559.226 685.838 550.428 684.559 542.051 683.34C533.981 683.135 526.34 683.083 519.152 683.126C512.19 684.062 505.532 684.785 499.157 685.09C492.79 685.795 486.511 685.732 480.313 684.776C473.929 683.833 467.504 681.844 461.087 678.8C454.375 675.658 447.626 671.514 440.938 666.45C433.981 661.336 427.114 655.396 420.511 648.74C413.712 642.1 407.262 634.782 401.345 626.831C395.399 618.891 390.389 610.658 386.348 602.237C382.433 593.744 379.551 584.967 377.682 576.009C376.011 566.903 375.368 557.563 375.703 548.102C376.24 538.504 377.721 528.81 380.079 519.212C382.636 509.608 386.05 500.237 390.264 491.358C394.673 482.734 399.889 474.824 405.841 467.88C412.008 461.454 418.919 456.157 426.486 452.175C434.245 448.744 442.628 446.56 451.542 445.668C460.525 444.998 469.514 445.329 478.37 446.421C487.153 447.246 495.759 448.588 504.088 450.298C512.303 451.509 520.28 453.073 527.947 454.969C535.564 456.401 542.972 458.28 550.121 460.685C557.319 462.776 564.349 465.511 571.149 468.937C578.062 472.214 584.8 476.255 591.274 481.072C597.859 485.81 604.18 491.36 610.103 497.703C616.098 504.005 621.657 511.115 626.644 519.038Z" stroke="black" stroke-opacity="0.05" stroke-width="2.5" stroke-linecap="round" stroke-dasharray="20 3"/>
<path opacity="0.7" d="M614.218 539.32C618.192 546.479 621.406 554.04 623.891 561.878C626.303 569.763 627.948 577.937 628.848 586.289C629.646 594.65 629.679 603.149 628.989 611.587C628.154 619.944 626.567 628.121 624.259 635.877C621.775 643.353 618.551 650.206 614.608 656.196C610.474 661.679 605.609 666.129 600.071 669.367C594.357 672.034 588.008 673.512 581.117 673.804C574.134 673.813 566.712 672.917 558.966 671.277C551.294 669.927 543.759 668.302 536.484 666.595C529.377 665.588 522.523 664.593 515.975 663.618C509.555 663.309 503.372 662.867 497.414 662.168C491.481 661.891 485.674 661.133 480.014 659.807C474.254 658.617 468.555 656.688 462.956 654.009C457.192 651.337 451.483 647.858 445.916 643.592C440.182 639.321 434.606 634.282 429.298 628.543C423.867 622.809 418.771 616.388 414.134 609.324C409.479 602.266 405.592 594.882 402.503 587.282C399.482 579.66 397.305 571.805 395.957 563.815C394.743 555.782 394.38 547.62 394.828 539.456C395.44 531.285 396.854 523.163 399.044 515.27C401.385 507.48 404.488 500.028 408.288 493.109C412.241 486.467 416.898 480.505 422.192 475.409C427.635 470.741 433.693 467.014 440.31 464.385C447.051 462.157 454.314 460.959 462.015 460.827C469.771 460.875 477.557 461.772 485.25 463.324C492.916 464.733 500.466 466.621 507.822 468.894C515.127 470.8 522.25 473.054 529.121 475.585C535.975 477.762 542.625 480.282 549.038 483.179C555.463 485.793 561.695 488.874 567.669 492.454C573.703 495.865 579.512 499.857 585.027 504.452C590.61 508.944 595.894 514.099 600.783 519.913C605.716 525.689 610.231 532.155 614.218 539.32Z" stroke="black" stroke-opacity="0.05" stroke-width="2.5" stroke-linecap="round" stroke-dasharray="9 9"/>
<path opacity="0.89" d="M600.025 557.36C606.108 569.896 609.563 583.332 610.526 596.801C611.193 610.172 609.255 623.112 604.932 634.357C600.178 644.668 592.991 652.371 583.732 656.45C574.132 659.219 562.675 658.724 549.949 655.286C537.393 652.663 525.111 649.093 513.625 645.304C502.391 643.348 491.66 640.629 481.689 636.728C471.515 633.563 461.705 628.309 452.726 620.793C443.343 613.355 434.8 603.493 427.874 591.405C420.887 579.32 416.536 566.173 414.804 552.803C413.422 539.494 414.802 526.166 418.712 513.87C423.051 502.142 429.874 492.085 438.828 484.826C448.125 478.773 459.423 475.835 472.25 476.472C485.184 477.654 498.24 481.353 510.747 486.627C523.173 491.075 535.129 496.77 546.149 503.473C557.222 509.364 567.553 516.728 576.646 525.643C585.872 534.251 593.89 544.824 600.025 557.36Z" stroke="black" stroke-opacity="0.05" stroke-width="2.5" stroke-linecap="round" stroke-dasharray="2 2"/>
<path opacity="0.2" d="M583.965 570.792C588.399 581.204 590.648 591.769 590.9 601.833C590.978 611.747 588.99 620.811 585.149 628.185C581.09 634.964 575.197 639.622 567.77 641.639C560.2 643.015 551.227 642.034 541.225 638.819C531.295 636.111 521.392 632.325 511.966 628.047C502.629 624.883 493.615 621.006 485.262 616.378C476.813 612.343 468.832 606.994 461.731 600.222C454.444 593.562 448.032 585.244 443.1 575.385C438.117 565.523 435.266 555.066 434.468 544.727C433.848 534.503 435.374 524.618 438.846 515.876C442.57 507.609 448.213 500.861 455.488 496.375C462.954 492.657 471.96 491.339 482.18 492.753C492.462 494.529 502.89 498.379 512.956 503.581C523.006 508.391 532.722 514.334 541.674 521.091C550.661 527.379 558.975 534.702 566.14 542.976C573.389 551.054 579.509 560.373 583.965 570.792Z" stroke="black" stroke-opacity="0.05" stroke-width="2.5" stroke-linecap="round" stroke-dasharray="11 8"/>
<path opacity="0.29" d="M566.496 577.996C569.46 586.014 570.773 593.668 570.599 600.536C569.492 610.221 560.168 622.968 552.425 625.036C546.855 625.571 540.273 624.47 532.9 621.721C525.542 619.262 518.122 615.768 510.979 611.681C503.846 608.143 496.916 603.955 490.52 599.236C484.067 594.882 478.064 589.715 472.878 583.807C467.591 578 463.123 571.249 459.869 563.7C456.586 556.155 454.924 548.529 454.772 541.272C455.418 530.82 464.13 514.633 471.796 510.254C477.367 508.285 484.049 508.051 491.632 509.779C499.236 511.739 506.971 515.255 514.471 519.861C521.96 524.335 529.234 529.773 535.912 535.84C542.601 541.703 548.743 548.289 553.953 555.36C559.196 562.349 563.512 569.98 566.496 577.996Z" stroke="black" stroke-opacity="0.05" stroke-width="2.5" stroke-linecap="round" stroke-dasharray="4 26"/>
<path opacity="0.67" d="M548.411 578.679C551.406 593.844 538.673 607.793 525.227 603.904C515.583 600.23 505.602 593.425 497.146 585.365C488.591 577.902 481.425 568.444 477.709 558.135C473.964 547.838 474.552 538.602 478.606 532.421C482.777 526.692 490.377 524.611 500.279 527.67C510.205 531.129 520.503 538.635 529.153 547.879C537.836 556.933 544.936 567.834 548.411 578.679Z" stroke="black" stroke-opacity="0.05" stroke-width="2.5" stroke-linecap="round" stroke-dasharray="24 3"/>
</svg>
