<svg width="462" height="696" viewBox="0 0 462 696" fill="none" xmlns="http://www.w3.org/2000/svg">
<g opacity="0.2">
<path d="M385.875 284.925C385.875 284.925 353.25 315.375 297.787 351.262C282.562 263.175 240.15 154.425 157.5 21.75C157.5 21.75 130.312 164.212 40.0498 297.975C0.89975 237.075 -16.5002 189.225 -16.5002 189.225C-299.25 473.062 -64.3503 674.25 83.5498 674.25C272.775 674.25 439.162 582.9 385.875 284.925Z" fill="#4527B3"/>
<path d="M273.862 537.225C290.175 501.337 302.137 454.575 304.312 395.85C304.312 395.85 281.475 415.425 242.325 440.437C231.45 381.712 202.087 309.937 144.45 220.762C144.45 220.762 125.962 315.375 62.8873 405.637C35.6998 365.4 23.7373 332.775 23.7373 332.775C-23.0252 406.725 -41.5127 465.45 -42.6002 512.212C-68.7002 502.425 -85.0127 494.812 -85.0127 494.812C-40.4252 627.487 52.0123 656.85 93.3373 656.85C167.287 656.85 242.325 635.1 316.275 529.612C316.275 528.525 299.962 532.875 273.862 537.225Z" fill="#7861CD"/>
<path d="M4.1627 477.413C4.1627 477.413 34.6127 518.738 57.4502 508.95C57.4502 508.95 100.95 440.438 164.025 402.375C164.025 402.375 150.975 506.775 166.2 525.263C185.775 550.275 239.063 498.075 239.063 498.075C239.063 560.062 171.638 637.275 110.738 637.275C52.0127 637.275 -32.8123 569.85 4.1627 477.413Z" fill="#A391DF"/>
<path d="M307.575 196.838C330.413 164.213 345.638 129.412 345.638 129.412C383.7 192.488 360.863 230.55 344.55 242.512C321.713 259.912 281.475 234.9 307.575 196.838ZM-107.85 185.963C-130.687 147.9 -132.862 100.05 -132.862 100.05C-187.237 181.613 -166.575 227.288 -148.087 240.338C-124.162 258.825 -82.8374 230.55 -107.85 185.963ZM18.3 101.138C21.5626 75.0375 10.6875 48.9375 10.6875 48.9375C61.8 82.65 61.8 110.925 55.2751 122.888C45.4875 137.025 15.0376 130.5 18.3 101.138Z" fill="#4527B3"/>
</g>
</svg>
