<svg width="211" height="159" viewBox="0 0 211 159" fill="none" xmlns="http://www.w3.org/2000/svg">
<path d="M4.26 151V137.9H0.22V136.1H10.22V137.9H6.24V151H4.26ZM24.6238 151.24C23.5704 151.24 22.5838 151.053 21.6638 150.68C20.7438 150.293 19.9371 149.753 19.2438 149.06C18.5638 148.367 18.0304 147.553 17.6438 146.62C17.2571 145.673 17.0638 144.647 17.0638 143.54C17.0638 142.42 17.2571 141.393 17.6438 140.46C18.0304 139.527 18.5638 138.713 19.2438 138.02C19.9371 137.327 20.7371 136.793 21.6438 136.42C22.5638 136.047 23.5571 135.86 24.6238 135.86C25.6904 135.86 26.6771 136.053 27.5838 136.44C28.5038 136.813 29.3038 137.347 29.9838 138.04C30.6771 138.72 31.2171 139.527 31.6038 140.46C32.0038 141.393 32.2038 142.42 32.2038 143.54C32.2038 144.647 32.0038 145.673 31.6038 146.62C31.2171 147.553 30.6771 148.367 29.9838 149.06C29.3038 149.753 28.5038 150.293 27.5838 150.68C26.6771 151.053 25.6904 151.24 24.6238 151.24ZM24.6238 149.42C25.4504 149.42 26.2038 149.273 26.8838 148.98C27.5638 148.673 28.1504 148.253 28.6438 147.72C29.1504 147.173 29.5371 146.547 29.8038 145.84C30.0838 145.12 30.2238 144.353 30.2238 143.54C30.2238 142.727 30.0838 141.967 29.8038 141.26C29.5371 140.553 29.1504 139.933 28.6438 139.4C28.1504 138.853 27.5638 138.433 26.8838 138.14C26.2038 137.833 25.4504 137.68 24.6238 137.68C23.8104 137.68 23.0638 137.833 22.3838 138.14C21.7038 138.433 21.1104 138.853 20.6038 139.4C20.1104 139.933 19.7238 140.553 19.4438 141.26C19.1638 141.967 19.0238 142.727 19.0238 143.54C19.0238 144.353 19.1638 145.12 19.4438 145.84C19.7238 146.547 20.1104 147.173 20.6038 147.72C21.1104 148.253 21.7038 148.673 22.3838 148.98C23.0638 149.273 23.8104 149.42 24.6238 149.42ZM43.0569 151V137.9H39.0169V136.1H49.0169V137.9H45.0369V151H43.0569ZM54.47 151L59.81 136.1H62.13L67.47 151H65.37L64.15 147.5H57.79L56.57 151H54.47ZM58.41 145.7H63.53L60.69 137.52H61.25L58.41 145.7ZM75.3475 151V136.1H77.3075V149.2H83.8475V151H75.3475ZM104.108 151V137.9H100.068V136.1H110.068V137.9H106.088V151H104.108ZM124.471 151.24C123.418 151.24 122.431 151.053 121.511 150.68C120.591 150.293 119.785 149.753 119.091 149.06C118.411 148.367 117.878 147.553 117.491 146.62C117.105 145.673 116.911 144.647 116.911 143.54C116.911 142.42 117.105 141.393 117.491 140.46C117.878 139.527 118.411 138.713 119.091 138.02C119.785 137.327 120.585 136.793 121.491 136.42C122.411 136.047 123.405 135.86 124.471 135.86C125.538 135.86 126.525 136.053 127.431 136.44C128.351 136.813 129.151 137.347 129.831 138.04C130.525 138.72 131.065 139.527 131.451 140.46C131.851 141.393 132.051 142.42 132.051 143.54C132.051 144.647 131.851 145.673 131.451 146.62C131.065 147.553 130.525 148.367 129.831 149.06C129.151 149.753 128.351 150.293 127.431 150.68C126.525 151.053 125.538 151.24 124.471 151.24ZM124.471 149.42C125.298 149.42 126.051 149.273 126.731 148.98C127.411 148.673 127.998 148.253 128.491 147.72C128.998 147.173 129.385 146.547 129.651 145.84C129.931 145.12 130.071 144.353 130.071 143.54C130.071 142.727 129.931 141.967 129.651 141.26C129.385 140.553 128.998 139.933 128.491 139.4C127.998 138.853 127.411 138.433 126.731 138.14C126.051 137.833 125.298 137.68 124.471 137.68C123.658 137.68 122.911 137.833 122.231 138.14C121.551 138.433 120.958 138.853 120.451 139.4C119.958 139.933 119.571 140.553 119.291 141.26C119.011 141.967 118.871 142.727 118.871 143.54C118.871 144.353 119.011 145.12 119.291 145.84C119.571 146.547 119.958 147.173 120.451 147.72C120.958 148.253 121.551 148.673 122.231 148.98C122.911 149.273 123.658 149.42 124.471 149.42ZM140.91 151V136.1H142.87V144.48L142.39 144.28L149.51 136.1H151.97L145.99 143L146.09 141.6L152.27 151H149.93L145.21 143.92L142.87 146.6V151H140.91ZM160.152 151V136.1H169.852V137.9H162.112V142.62H169.452V144.42H162.112V149.2H169.852V151H160.152ZM178.281 151V136.1H179.921L188.481 148.14L187.741 148.22V136.1H189.721V151H188.081L179.561 138.88L180.241 138.8V151H178.281ZM204.167 151.24C203.22 151.24 202.353 151.067 201.567 150.72C200.78 150.36 200.113 149.873 199.567 149.26C199.02 148.647 198.627 147.96 198.387 147.2L200.087 146.5C200.447 147.46 200.98 148.2 201.687 148.72C202.407 149.227 203.247 149.48 204.207 149.48C204.793 149.48 205.307 149.387 205.747 149.2C206.187 149.013 206.527 148.753 206.767 148.42C207.02 148.073 207.147 147.673 207.147 147.22C207.147 146.593 206.967 146.1 206.607 145.74C206.26 145.367 205.747 145.087 205.067 144.9L202.327 144.06C201.247 143.727 200.42 143.2 199.847 142.48C199.273 141.76 198.987 140.933 198.987 140C198.987 139.187 199.18 138.473 199.567 137.86C199.967 137.233 200.513 136.747 201.207 136.4C201.913 136.04 202.713 135.86 203.607 135.86C204.5 135.86 205.307 136.02 206.027 136.34C206.76 136.66 207.38 137.093 207.887 137.64C208.393 138.173 208.767 138.787 209.007 139.48L207.327 140.18C207.007 139.34 206.527 138.707 205.887 138.28C205.247 137.84 204.493 137.62 203.627 137.62C203.093 137.62 202.62 137.713 202.207 137.9C201.807 138.073 201.493 138.333 201.267 138.68C201.053 139.013 200.947 139.413 200.947 139.88C200.947 140.427 201.12 140.913 201.467 141.34C201.813 141.767 202.34 142.093 203.047 142.32L205.547 143.06C206.72 143.42 207.607 143.933 208.207 144.6C208.807 145.267 209.107 146.093 209.107 147.08C209.107 147.893 208.893 148.613 208.467 149.24C208.053 149.867 207.473 150.36 206.727 150.72C205.993 151.067 205.14 151.24 204.167 151.24Z" fill="#484848"/>
<path d="M12.76 106V88.808H8.7V85.14H17.1V106H12.76ZM43.2457 106V85.14H52.0657C53.503 85.14 54.735 85.3827 55.7617 85.868C56.7883 86.3533 57.5723 87.0533 58.1137 87.968C58.655 88.864 58.9257 89.956 58.9257 91.244C58.9257 92.1587 58.6737 93.036 58.1697 93.876C57.6657 94.6973 56.835 95.388 55.6777 95.948V93.82C56.779 94.2493 57.6283 94.7627 58.2257 95.36C58.823 95.9573 59.2337 96.6107 59.4577 97.32C59.6817 98.0107 59.7937 98.7387 59.7937 99.504C59.7937 101.557 59.1123 103.153 57.7497 104.292C56.387 105.431 54.4923 106 52.0657 106H43.2457ZM47.5857 102.22H52.5697C53.447 102.22 54.147 101.968 54.6697 101.464C55.1923 100.96 55.4537 100.307 55.4537 99.504C55.4537 98.6827 55.1923 98.02 54.6697 97.516C54.147 97.012 53.447 96.76 52.5697 96.76H47.5857V102.22ZM47.5857 92.98H52.3737C53.0457 92.98 53.5777 92.7933 53.9697 92.42C54.3803 92.028 54.5857 91.5147 54.5857 90.88C54.5857 90.2453 54.3803 89.7413 53.9697 89.368C53.5777 88.976 53.0457 88.78 52.3737 88.78H47.5857V92.98ZM70.9777 106V85.14H75.3177V106H70.9777ZM87.4167 106V85.14H91.7567V102.22H100.577V106H87.4167ZM111.129 106V85.14H115.469V102.22H124.289V106H111.129ZM134.842 106V85.14H139.182V106H134.842ZM161.725 106.336C160.157 106.336 158.701 106.065 157.357 105.524C156.013 104.983 154.837 104.227 153.829 103.256C152.839 102.267 152.065 101.119 151.505 99.812C150.945 98.5053 150.665 97.0867 150.665 95.556C150.665 94.0253 150.935 92.6067 151.477 91.3C152.037 89.9933 152.811 88.8547 153.801 87.884C154.809 86.9133 155.985 86.1573 157.329 85.616C158.673 85.0747 160.138 84.804 161.725 84.804C163.311 84.804 164.777 85.0747 166.121 85.616C167.465 86.1573 168.631 86.9133 169.621 87.884C170.629 88.8547 171.403 89.9933 171.945 91.3C172.505 92.6067 172.785 94.0253 172.785 95.556C172.785 97.0867 172.505 98.5053 171.945 99.812C171.385 101.119 170.601 102.267 169.593 103.256C168.603 104.227 167.437 104.983 166.093 105.524C164.749 106.065 163.293 106.336 161.725 106.336ZM161.725 102.416C162.677 102.416 163.554 102.248 164.357 101.912C165.178 101.576 165.897 101.109 166.513 100.512C167.129 99.896 167.605 99.168 167.941 98.328C168.277 97.488 168.445 96.564 168.445 95.556C168.445 94.548 168.277 93.6333 167.941 92.812C167.605 91.972 167.129 91.244 166.513 90.628C165.897 90.012 165.178 89.5453 164.357 89.228C163.554 88.892 162.677 88.724 161.725 88.724C160.773 88.724 159.886 88.892 159.065 89.228C158.262 89.5453 157.553 90.012 156.937 90.628C156.321 91.244 155.845 91.972 155.509 92.812C155.173 93.6333 155.005 94.548 155.005 95.556C155.005 96.564 155.173 97.488 155.509 98.328C155.845 99.168 156.321 99.896 156.937 100.512C157.553 101.109 158.262 101.576 159.065 101.912C159.886 102.248 160.773 102.416 161.725 102.416ZM184.263 106V85.14H187.595L198.795 99.896L197.003 100.316V85.14H201.343V106H197.983L186.979 91.132L188.603 90.712V106H184.263Z" fill="#4527B3"/>
<path d="M119.125 21V19.6875C119.125 13.8047 110.266 9.375 98.5 9.375C86.7344 9.375 77.875 13.8047 77.875 19.6875V29.0625C77.875 33.9609 84.0156 37.8516 92.875 39.0234V40.3125C92.875 46.1953 101.734 50.625 113.5 50.625C125.266 50.625 134.125 46.1953 134.125 40.3125V30.9375C134.125 26.0859 128.172 22.1953 119.125 21ZM92.875 35.2031V29.6484C94.7403 29.8882 96.6193 30.0056 98.5 30C100.381 30.0056 102.26 29.8882 104.125 29.6484V35.2031C102.264 35.4931 100.383 35.6342 98.5 35.625C96.6168 35.6342 94.7358 35.4931 92.875 35.2031V35.2031ZM115.375 25.7578V29.0625C115.375 31.0312 112.469 33.1406 107.875 34.4297V28.9453C110.898 28.2188 113.453 27.1172 115.375 25.7578V25.7578ZM81.625 29.0625V25.7578C83.5469 27.1172 86.1016 28.2188 89.125 28.9453V34.4297C84.5312 33.1406 81.625 31.0312 81.625 29.0625ZM96.625 40.3125V39.3281L98.5 39.375C99.4219 39.375 100.313 39.3516 101.172 39.3047C102.109 39.6328 103.094 39.9141 104.125 40.1719V45.6797C99.5312 44.3906 96.625 42.2812 96.625 40.3125V40.3125ZM107.875 46.4531V40.875C109.74 41.1197 111.619 41.2449 113.5 41.25C115.381 41.2556 117.26 41.1382 119.125 40.8984V46.4531C115.396 47.0156 111.604 47.0156 107.875 46.4531V46.4531ZM122.875 45.6797V40.1953C125.898 39.4688 128.453 38.3672 130.375 37.0078V40.3125C130.375 42.2812 127.469 44.3906 122.875 45.6797V45.6797Z" fill="black"/>
</svg>
