<svg width="32" height="32" viewBox="0 0 32 32" fill="none" xmlns="http://www.w3.org/2000/svg">
<path d="M22.6667 1V7.66667M9.33333 1V7.66667M29.3333 31H2.66667C2.22464 31 1.80072 30.8244 1.48816 30.5118C1.17559 30.1993 1 29.7754 1 29.3333V12.6667H31V29.3333C31 29.7754 30.8244 30.1993 30.5118 30.5118C30.1993 30.8244 29.7754 31 29.3333 31ZM31 6C31 5.55797 30.8244 5.13405 30.5118 4.82149C30.1993 4.50893 29.7754 4.33333 29.3333 4.33333H2.66667C2.22464 4.33333 1.80072 4.50893 1.48816 4.82149C1.17559 5.13405 1 5.55797 1 6V12.6667H31V6Z" stroke="#4527B3" stroke-width="1.5" stroke-linecap="round" stroke-linejoin="round"/>
</svg>
