<svg width="21" height="18" viewBox="0 0 21 18" fill="none" xmlns="http://www.w3.org/2000/svg">
<path d="M0 8.65712C0 8.1825 0.352692 7.79025 0.810287 7.72818L0.9375 7.71962L17.4175 7.72037L11.4638 1.79096C11.0969 1.42563 11.0956 0.832039 11.4609 0.465134C11.793 0.131584 12.3138 0.100204 12.6814 0.371733L12.7867 0.462278L20.3492 7.99228C20.3976 8.04043 20.4396 8.09255 20.4753 8.14759C20.4853 8.16416 20.4956 8.1811 20.5053 8.19839C20.5142 8.21321 20.5223 8.2286 20.5299 8.24416C20.5405 8.2668 20.5509 8.29018 20.5602 8.31405C20.5679 8.33245 20.5742 8.35034 20.5801 8.36838C20.587 8.39075 20.5937 8.41458 20.5994 8.43878C20.6037 8.45567 20.6071 8.47194 20.6101 8.48826C20.6143 8.51255 20.6178 8.53768 20.6203 8.56312C20.6225 8.58251 20.6238 8.60173 20.6246 8.62097C20.6248 8.63264 20.625 8.64485 20.625 8.65712L20.6245 8.69343C20.6238 8.71183 20.6226 8.73022 20.6208 8.74856L20.625 8.65712C20.625 8.71628 20.6195 8.77416 20.609 8.83028C20.6066 8.84368 20.6037 8.85744 20.6005 8.87115C20.5938 8.89937 20.5862 8.92654 20.5773 8.95319C20.5729 8.96643 20.5679 8.98057 20.5625 8.99461C20.5515 9.02282 20.5396 9.04971 20.5265 9.0759C20.5204 9.08822 20.5136 9.10111 20.5065 9.11388C20.4947 9.1347 20.4827 9.15449 20.4699 9.17378C20.4609 9.18743 20.4509 9.20164 20.4405 9.21562L20.4324 9.22642C20.4072 9.25942 20.3797 9.29069 20.3504 9.32003L20.3493 9.3209L12.7868 16.8521C12.4199 17.2175 11.8263 17.2163 11.461 16.8494C11.1288 16.5159 11.0996 15.995 11.3727 15.6285L11.4637 15.5236L17.415 9.59537L0.9375 9.59462C0.419733 9.59462 0 9.17488 0 8.65712Z" fill="black"/>
</svg>
