<svg width="40" height="40" viewBox="0 0 40 40" fill="none" xmlns="http://www.w3.org/2000/svg">
<rect x="0.324951" width="39.325" height="39.325" rx="19.6625" fill="#4527B3"/>
<path d="M14.4082 20.4309H16.9945V31.0787C16.9945 31.2889 17.1649 31.4592 17.3751 31.4592H21.7604C21.9706 31.4592 22.141 31.2889 22.141 31.0787V20.4811H25.1143C25.3076 20.4811 25.4702 20.336 25.4923 20.144L25.9439 16.224C25.9563 16.1162 25.9221 16.0082 25.85 15.9273C25.7777 15.8463 25.6744 15.7999 25.5659 15.7999H22.1411V13.3427C22.1411 12.602 22.54 12.2264 23.3267 12.2264C23.4388 12.2264 25.5659 12.2264 25.5659 12.2264C25.7761 12.2264 25.9465 12.0559 25.9465 11.8458V8.24764C25.9465 8.03741 25.7761 7.86707 25.5659 7.86707H22.4799C22.4581 7.86601 22.4098 7.86426 22.3386 7.86426C21.8031 7.86426 19.9419 7.96937 18.4717 9.32189C16.8428 10.8207 17.0692 12.6153 17.1233 12.9264V15.7999H14.4082C14.1979 15.7999 14.0276 15.9702 14.0276 16.1804V20.0503C14.0276 20.2605 14.1979 20.4309 14.4082 20.4309Z" fill="white"/>
</svg>
