<svg width="60" height="60" viewBox="0 0 60 60" fill="none" xmlns="http://www.w3.org/2000/svg">
<circle cx="30" cy="30" r="29.5" fill="white" stroke="#D9D9D9"/>
<path d="M25 36H22C21.7348 36 21.4804 35.8947 21.2929 35.7071C21.1054 35.5196 21 35.2652 21 35V22C21 21.7348 21.1054 21.4804 21.2929 21.2929C21.4804 21.1054 21.7348 21 22 21H27C27.1316 20.9993 27.2621 21.0245 27.3839 21.0742C27.5057 21.124 27.6166 21.1973 27.71 21.29L30.12 23.71C30.2134 23.8027 30.3243 23.876 30.4461 23.9258C30.5679 23.9756 30.6984 24.0008 30.83 24H38C38.2652 24 38.5196 24.1054 38.7071 24.2929C38.8946 24.4804 39 24.7348 39 25V28" stroke="#4527B3" stroke-width="1.5" stroke-linecap="round" stroke-linejoin="round"/>
<path d="M39 39L35.83 35.83M33 37C33.7911 37 34.5645 36.7654 35.2223 36.3259C35.8801 35.8864 36.3928 35.2616 36.6955 34.5307C36.9983 33.7998 37.0775 32.9956 36.9231 32.2196C36.7688 31.4437 36.3878 30.731 35.8284 30.1716C35.269 29.6122 34.5563 29.2312 33.7804 29.0769C33.0044 28.9225 32.2002 29.0017 31.4693 29.3045C30.7384 29.6072 30.1136 30.1199 29.6741 30.7777C29.2346 31.4355 29 32.2089 29 33C29 34.0609 29.4214 35.0783 30.1716 35.8284C30.9217 36.5786 31.9391 37 33 37Z" stroke="#4527B3" stroke-width="1.5" stroke-linecap="round" stroke-linejoin="round"/>
</svg>
