<svg width="41" height="40" viewBox="0 0 41 40" fill="none" xmlns="http://www.w3.org/2000/svg">
<rect x="0.974854" width="39.325" height="39.325" rx="19.6625" fill="#4527B3"/>
<path d="M20.6372 9.83008C17.9672 9.83008 17.6323 9.84141 16.5837 9.88923C15.5373 9.93697 14.8227 10.1032 14.1973 10.3462C13.5508 10.5974 13.0025 10.9336 12.456 11.4801C11.9094 12.0267 11.5733 12.575 11.322 13.2215C11.079 13.8468 10.9128 14.5615 10.865 15.6079C10.8172 16.6565 10.8059 16.9913 10.8059 19.6613C10.8059 22.3313 10.8172 22.6661 10.865 23.7147C10.9128 24.7612 11.079 25.4758 11.322 26.1011C11.5733 26.7476 11.9095 27.2959 12.456 27.8425C13.0026 28.389 13.5508 28.7252 14.1973 28.9765C14.8227 29.2194 15.5373 29.3856 16.5837 29.4334C17.6323 29.4812 17.9672 29.4926 20.6372 29.4926C23.3071 29.4926 23.6419 29.4812 24.6906 29.4334C25.737 29.3857 26.4516 29.2194 27.077 28.9765C27.7235 28.7252 28.2717 28.389 28.8183 27.8425C29.3649 27.2959 29.701 26.7476 29.9523 26.1011C30.1953 25.4758 30.3615 24.7612 30.4092 23.7147C30.4571 22.6661 30.4684 22.3313 30.4684 19.6613C30.4684 16.9913 30.4571 16.6565 30.4092 15.6079C30.3615 14.5615 30.1953 13.8468 29.9523 13.2215C29.701 12.575 29.3649 12.0267 28.8183 11.4801C28.2717 10.9336 27.7235 10.5974 27.077 10.3462C26.4516 10.1032 25.737 9.93697 24.6906 9.88923C23.6419 9.84141 23.3071 9.83008 20.6372 9.83008ZM20.6372 11.6015C23.2622 11.6015 23.5731 11.6115 24.6098 11.6588C25.5684 11.7025 26.0889 11.8627 26.4353 11.9973C26.8942 12.1757 27.2217 12.3887 27.5657 12.7327C27.9098 13.0767 28.1228 13.4042 28.3012 13.8631C28.4358 14.2096 28.596 14.7301 28.6397 15.6887C28.687 16.7253 28.697 17.0363 28.697 19.6613C28.697 22.2864 28.687 22.5973 28.6397 23.634C28.596 24.5925 28.4358 25.1131 28.3012 25.4595C28.1228 25.9184 27.9098 26.2459 27.5657 26.5899C27.2217 26.934 26.8942 27.147 26.4353 27.3253C26.0889 27.46 25.5683 27.6201 24.6098 27.6638C23.5733 27.7111 23.2624 27.7212 20.6371 27.7212C18.0119 27.7212 17.701 27.7111 16.6645 27.6638C15.7059 27.6201 15.1854 27.46 14.839 27.3253C14.38 27.147 14.0526 26.934 13.7086 26.5899C13.3645 26.2459 13.1515 25.9184 12.9731 25.4595C12.8385 25.1131 12.6784 24.5925 12.6346 23.634C12.5873 22.5973 12.5773 22.2864 12.5773 19.6613C12.5773 17.0363 12.5873 16.7253 12.6346 15.6887C12.6784 14.7301 12.8385 14.2096 12.9731 13.8632C13.1515 13.4042 13.3645 13.0767 13.7085 12.7327C14.0526 12.3887 14.3801 12.1757 14.839 11.9973C15.1854 11.8627 15.706 11.7025 16.6645 11.6588C17.7012 11.6115 18.0121 11.6015 20.6371 11.6015" fill="white"/>
<path d="M20.6371 22.9382C18.8272 22.9382 17.36 21.471 17.36 19.6611C17.36 17.8512 18.8272 16.384 20.6371 16.384C22.447 16.384 23.9142 17.8512 23.9142 19.6611C23.9142 21.471 22.447 22.9382 20.6371 22.9382ZM20.6371 14.6126C17.8489 14.6126 15.5886 16.8729 15.5886 19.6611C15.5886 22.4493 17.8489 24.7096 20.6371 24.7096C23.4253 24.7096 25.6856 22.4493 25.6856 19.6611C25.6856 16.8729 23.4253 14.6126 20.6371 14.6126V14.6126ZM27.0648 14.4132C27.0648 15.0648 26.5366 15.5929 25.885 15.5929C25.2335 15.5929 24.7053 15.0648 24.7053 14.4132C24.7053 13.7616 25.2335 13.2334 25.885 13.2334C26.5366 13.2334 27.0648 13.7616 27.0648 14.4132" fill="white"/>
</svg>
