<svg width="40" height="40" viewBox="0 0 40 40" fill="none" xmlns="http://www.w3.org/2000/svg">
<rect width="39.325" height="39.325" rx="19.6625" fill="#4527B3"/>
<path d="M28.3985 11.4768C26.7543 10.7075 24.9962 10.1484 23.1582 9.83008C22.9324 10.2382 22.6687 10.7871 22.4869 11.2238C20.533 10.9299 18.5971 10.9299 16.6792 11.2238C16.4974 10.7871 16.2277 10.2382 15.9999 9.83008C14.1599 10.1484 12.3998 10.7096 10.7556 11.4809C7.43921 16.4924 6.54019 21.3795 6.9897 26.1971C9.18932 27.8397 11.321 28.8376 13.4167 29.4905C13.9342 28.7784 14.3957 28.0214 14.7932 27.2235C14.0361 26.9358 13.3108 26.5808 12.6256 26.1686C12.8074 26.0339 12.9852 25.8931 13.157 25.7482C17.3365 27.703 21.8776 27.703 26.0071 25.7482C26.1809 25.8931 26.3587 26.0339 26.5385 26.1686C25.8512 26.5828 25.1241 26.9378 24.3669 27.2256C24.7644 28.0214 25.2239 28.7804 25.7434 29.4926C27.8411 28.8396 29.9748 27.8418 32.1744 26.1971C32.7018 20.6122 31.2734 15.7701 28.3985 11.4768ZM15.3626 23.2343C14.108 23.2343 13.0791 22.063 13.0791 20.6367C13.0791 19.2104 14.086 18.0371 15.3626 18.0371C16.6393 18.0371 17.6681 19.2083 17.6462 20.6367C17.6481 22.063 16.6393 23.2343 15.3626 23.2343ZM23.8015 23.2343C22.5469 23.2343 21.518 22.063 21.518 20.6367C21.518 19.2104 22.5249 18.0371 23.8015 18.0371C25.0781 18.0371 26.107 19.2083 26.085 20.6367C26.085 22.063 25.0781 23.2343 23.8015 23.2343Z" fill="white"/>
</svg>
