<svg width="40" height="40" viewBox="0 0 40 40" fill="none" xmlns="http://www.w3.org/2000/svg">
<rect x="0.649902" width="39.325" height="39.325" rx="19.6625" fill="#4527B3"/>
<path d="M24.2449 15.7295C25.8094 15.7295 27.3097 16.351 28.416 17.4572C29.5222 18.5634 30.1437 20.0638 30.1437 21.6282V28.5101H26.2112V21.6282C26.2112 21.1068 26.004 20.6066 25.6353 20.2379C25.2665 19.8691 24.7664 19.662 24.2449 19.662C23.7235 19.662 23.2233 19.8691 22.8546 20.2379C22.4858 20.6066 22.2787 21.1068 22.2787 21.6282V28.5101H18.3462V21.6282C18.3462 20.0638 18.9677 18.5634 20.0739 17.4572C21.1801 16.351 22.6805 15.7295 24.2449 15.7295V15.7295Z" fill="white"/>
<path d="M14.4139 16.7129H10.4814V28.5104H14.4139V16.7129Z" fill="white"/>
<path d="M12.4477 13.7636C13.5336 13.7636 14.4139 12.8832 14.4139 11.7973C14.4139 10.7114 13.5336 9.83105 12.4477 9.83105C11.3618 9.83105 10.4814 10.7114 10.4814 11.7973C10.4814 12.8832 11.3618 13.7636 12.4477 13.7636Z" fill="white"/>
</svg>
