<svg width="60" height="60" viewBox="0 0 60 60" fill="none" xmlns="http://www.w3.org/2000/svg">
<circle cx="30" cy="30" r="30" fill="#2C2C2C"/>
<path fill-rule="evenodd" clip-rule="evenodd" d="M26.7863 26.2113H31.4287V28.5238C32.0975 27.1938 33.8125 25.9988 36.3888 25.9988C41.3275 25.9988 42.5 28.6463 42.5 33.5037V42.5H37.5V34.61C37.5 31.8438 36.8313 30.2838 35.1287 30.2838C32.7675 30.2838 31.7863 31.965 31.7863 34.6087V42.5H26.7863V26.2113ZM18.2125 42.2875H23.2125V25.9988H18.2125V42.2875ZM23.9288 20.6875C23.9289 21.1066 23.8458 21.5215 23.6842 21.9082C23.5226 22.2949 23.2858 22.6456 22.9875 22.94C22.383 23.5408 21.5648 23.8771 20.7125 23.875C19.8617 23.8744 19.0454 23.539 18.44 22.9413C18.1428 22.6459 17.9067 22.2948 17.7454 21.908C17.5841 21.5213 17.5007 21.1065 17.5 20.6875C17.5 19.8413 17.8375 19.0313 18.4413 18.4338C19.0461 17.8352 19.8628 17.4996 20.7138 17.5C21.5663 17.5 22.3837 17.8363 22.9875 18.4338C23.59 19.0313 23.9288 19.8413 23.9288 20.6875Z" fill="white"/>
</svg>
