<svg width="60" height="60" viewBox="0 0 60 60" fill="none" xmlns="http://www.w3.org/2000/svg">
<circle cx="30" cy="30" r="29.5" fill="white" stroke="#D9D9D9"/>
<path d="M31.9201 26.29H31.8201" stroke="#4527B3" stroke-width="1.95" stroke-linecap="round" stroke-linejoin="round"/>
<path d="M22 22H38C38.2652 22 38.5196 22.1054 38.7071 22.2929C38.8946 22.4804 39 22.7348 39 23V37C39 37.2652 38.8946 37.5196 38.7071 37.7071C38.5196 37.8946 38.2652 38 38 38H22C21.7348 38 21.4804 37.8946 21.2929 37.7071C21.1054 37.5196 21 37.2652 21 37V23C21 22.7348 21.1054 22.4804 21.2929 22.2929C21.4804 22.1054 21.7348 22 22 22V22ZM26.71 28L21 33.73V37C21 37.2652 21.1054 37.5196 21.2929 37.7071C21.4804 37.8946 21.7348 38 22 38H26.29L31.49 32.8L26.71 28ZM34.29 30L26.29 38H38C38.2652 38 38.5196 37.8946 38.7071 37.7071C38.8946 37.5196 39 37.2652 39 37V34.71L34.29 30Z" stroke="#4527B3" stroke-width="1.5" stroke-linecap="round" stroke-linejoin="round"/>
</svg>
