<svg width="20" height="20" viewBox="0 0 20 20" fill="none" xmlns="http://www.w3.org/2000/svg">
<path fill-rule="evenodd" clip-rule="evenodd" d="M9.78283 1.66663C14.2578 1.66663 17.8978 5.30663 17.8978 9.78163C17.8978 11.8929 17.0876 13.8185 15.7617 15.2637L18.3707 17.8672C18.6148 18.1114 18.6157 18.5064 18.3715 18.7505C18.2498 18.8739 18.089 18.9347 17.929 18.9347C17.7698 18.9347 17.6098 18.8739 17.4873 18.7522L14.8469 16.1191C13.4579 17.2315 11.6967 17.8975 9.78283 17.8975C5.30783 17.8975 1.66699 14.2566 1.66699 9.78163C1.66699 5.30663 5.30783 1.66663 9.78283 1.66663ZM9.78283 2.91663C5.99699 2.91663 2.91699 5.99579 2.91699 9.78163C2.91699 13.5675 5.99699 16.6475 9.78283 16.6475C13.5678 16.6475 16.6478 13.5675 16.6478 9.78163C16.6478 5.99579 13.5678 2.91663 9.78283 2.91663Z" fill="black"/>
</svg>
