<svg width="60" height="60" viewBox="0 0 60 60" fill="none" xmlns="http://www.w3.org/2000/svg">
<circle cx="30" cy="30" r="29.5" fill="white" stroke="#D9D9D9"/>
<path d="M36 36V38C36 38.2652 35.8946 38.5196 35.7071 38.7071C35.5196 38.8946 35.2652 39 35 39H23C22.7348 39 22.4804 38.8946 22.2929 38.7071C22.1054 38.5196 22 38.2652 22 38V22C22 21.7348 22.1054 21.4804 22.2929 21.2929C22.4804 21.1054 22.7348 21 23 21H33" stroke="#4527B3" stroke-width="1.5" stroke-linecap="round" stroke-linejoin="round"/>
<path d="M21 26H23M21 30H23M21 34H23M38.71 25.69L37.31 24.29C37.1231 24.1068 36.8718 24.0042 36.61 24.0042C36.3482 24.0042 36.0969 24.1068 35.91 24.29L31 29.2V32H33.8L38.71 27.09C38.8932 26.9031 38.9959 26.6518 38.9959 26.39C38.9959 26.1283 38.8932 25.8769 38.71 25.69V25.69Z" stroke="#4527B3" stroke-width="1.5" stroke-linecap="round" stroke-linejoin="round"/>
</svg>
