<svg width="60" height="60" viewBox="0 0 60 60" fill="none" xmlns="http://www.w3.org/2000/svg">
<circle cx="30" cy="30" r="29.5" fill="white" stroke="#D9D9D9"/>
<path d="M34 21V25M26 21V25M38 39H22C21.7348 39 21.4804 38.8946 21.2929 38.7071C21.1054 38.5196 21 38.2652 21 38V28H39V38C39 38.2652 38.8946 38.5196 38.7071 38.7071C38.5196 38.8946 38.2652 39 38 39ZM39 24C39 23.7348 38.8946 23.4804 38.7071 23.2929C38.5196 23.1054 38.2652 23 38 23H22C21.7348 23 21.4804 23.1054 21.2929 23.2929C21.1054 23.4804 21 23.7348 21 24V28H39V24Z" stroke="#4527B3" stroke-width="1.5" stroke-linecap="round" stroke-linejoin="round"/>
</svg>
