<svg width="60" height="60" viewBox="0 0 60 60" fill="none" xmlns="http://www.w3.org/2000/svg">
<circle cx="30" cy="30" r="30" fill="#2C2C2C"/>
<path d="M41.9912 24.0038C41.8489 23.4755 41.5706 22.9938 41.1842 22.6065C40.7978 22.2192 40.3167 21.9398 39.7887 21.7963C37.8312 21.2588 30 21.25 30 21.25C30 21.25 22.17 21.2413 20.2112 21.755C19.6836 21.9052 19.2035 22.1885 18.8169 22.5777C18.4304 22.9669 18.1503 23.4489 18.0037 23.9775C17.4875 25.935 17.4825 29.995 17.4825 29.995C17.4825 29.995 17.4775 34.075 17.99 36.0125C18.2775 37.0838 19.1212 37.93 20.1937 38.2188C22.1712 38.7563 29.9812 38.765 29.9812 38.765C29.9812 38.765 37.8125 38.7738 39.77 38.2613C40.2981 38.1179 40.7797 37.8392 41.167 37.4527C41.5544 37.0662 41.8342 36.5853 41.9787 36.0575C42.4962 34.1013 42.5 30.0425 42.5 30.0425C42.5 30.0425 42.525 25.9613 41.9912 24.0038ZM27.495 33.7563L27.5012 26.2563L34.01 30.0125L27.495 33.7563Z" fill="white"/>
</svg>
