<svg width="165" height="18" viewBox="0 0 165 18" fill="none" xmlns="http://www.w3.org/2000/svg">
<path d="M11.0596 0.424713L20.7848 16.9806H17.247L14.0987 11.5841H5.23068L1.97334 16.9806H0.227783L10.1868 0.424713H11.0596ZM5.8385 10.5341H13.4597L9.70367 4.12415L5.8385 10.5341Z" fill="#1F211E"/>
<path d="M21.6732 0.790994H25.1487V15.9306H35.5597V16.9806H21.6732V0.790994Z" fill="#1F211E"/>
<path d="M52.9062 0.790994V1.841H45.4253V16.9806H41.9497V1.841H34.4688V0.790994H52.9062Z" fill="#1F211E"/>
<path d="M53.9972 0.790994H57.4727V11.3032C57.4727 11.9951 57.6234 12.6463 57.9247 13.2567C58.226 13.8591 58.6572 14.3881 59.2183 14.844C59.7793 15.2998 60.4547 15.662 61.2444 15.9306C62.0444 16.1911 62.9328 16.3213 63.9095 16.3213C64.8965 16.3213 65.7849 16.1911 66.5746 15.9306C67.3642 15.662 68.0344 15.2998 68.5851 14.844C69.1461 14.3881 69.5721 13.8591 69.8631 13.2567C70.1644 12.6463 70.315 11.9951 70.315 11.3032V0.790994H71.8424V11.3032C71.8424 12.1335 71.671 12.9149 71.3281 13.6474C70.9852 14.38 70.4449 15.023 69.7072 15.5765C68.9799 16.1219 68.0448 16.5573 66.9018 16.8829C65.7589 17.2004 64.3874 17.3591 62.7873 17.3591C61.3639 17.3591 60.1014 17.2004 59.0001 16.8829C57.9091 16.5573 56.9896 16.1178 56.2415 15.5643C55.5038 15.0108 54.9427 14.3637 54.5583 13.623C54.1842 12.8742 53.9972 12.0765 53.9972 11.23V0.790994Z" fill="#1F211E"/>
<path d="M75.1309 0.790994H82.3002C83.5366 0.790994 84.6224 0.896808 85.5575 1.10844C86.4926 1.31193 87.2719 1.60088 87.8953 1.9753C88.5187 2.34972 88.9863 2.7974 89.298 3.31833C89.6201 3.83112 89.7811 4.39275 89.7811 5.00322C89.7811 5.50787 89.6564 5.97997 89.4071 6.4195C89.1681 6.85904 88.8252 7.25788 88.3784 7.61602C87.942 7.96602 87.4121 8.27125 86.7887 8.53172C86.1653 8.78405 85.4796 8.98347 84.7315 9.12998L92.2592 16.9806H88.2226L81.0377 9.37416H78.6064V16.9806H75.1309V0.790994ZM78.6064 8.55614H80.6169C81.3962 8.55614 82.1131 8.47474 82.7677 8.31195C83.4327 8.14916 84.0042 7.92125 84.4821 7.62823C84.9704 7.32706 85.3497 6.96485 85.6198 6.5416C85.89 6.11834 86.0251 5.64217 86.0251 5.1131C86.0251 4.62473 85.916 4.17705 85.6978 3.77007C85.49 3.3631 85.1886 3.01716 84.7938 2.73228C84.4094 2.43926 83.947 2.21135 83.4067 2.04856C82.8768 1.88577 82.295 1.80437 81.6612 1.80437H78.6064V8.55614Z" fill="#1F211E"/>
<path d="M101.174 0.424713L110.899 16.9806H107.361L104.213 11.5841H95.3451L92.0877 16.9806H90.3422L100.301 0.424713H101.174ZM95.9529 10.5341H103.574L99.8181 4.12415L95.9529 10.5341Z" fill="#1F211E"/>
<path d="M119.876 0.424713L129.602 16.9806H126.064L122.916 11.5841H114.047L110.79 16.9806H109.045L119.004 0.424713H119.876ZM114.655 10.5341H122.277L118.52 4.12415L114.655 10.5341Z" fill="#1F211E"/>
<path d="M137.254 16.3335C137.763 16.3335 138.267 16.2806 138.766 16.1748C139.265 16.0608 139.711 15.898 140.106 15.6864C140.501 15.4666 140.818 15.2021 141.057 14.8928C141.296 14.5753 141.415 14.2091 141.415 13.7939C141.415 13.2974 141.249 12.8579 140.917 12.4753C140.594 12.0846 140.169 11.7306 139.639 11.4131C139.109 11.0875 138.501 10.7823 137.815 10.4974C137.14 10.2125 136.449 9.92766 135.742 9.64277C135.036 9.35789 134.34 9.06079 133.654 8.75149C132.978 8.43404 132.376 8.08404 131.846 7.70148C131.316 7.31079 130.885 6.87939 130.552 6.40729C130.23 5.92706 130.069 5.37764 130.069 4.75903C130.069 4.14042 130.215 3.56659 130.506 3.03751C130.807 2.50844 131.243 2.05263 131.815 1.67007C132.386 1.27937 133.088 0.974134 133.919 0.754366C134.76 0.534597 135.721 0.424713 136.802 0.424713C137.779 0.424713 138.652 0.506109 139.42 0.6689C140.189 0.831691 140.865 1.07181 141.447 1.38925C142.028 1.70669 142.522 2.09739 142.927 2.56135C143.332 3.0253 143.66 3.56252 143.909 4.17298L142.132 4.80787C141.924 4.31136 141.66 3.85961 141.337 3.45263C141.015 3.03751 140.631 2.68344 140.184 2.39042C139.737 2.09739 139.218 1.87356 138.626 1.7189C138.044 1.55611 137.384 1.47472 136.646 1.47472C135.992 1.47472 135.42 1.54797 134.932 1.69449C134.443 1.83286 134.033 2.02007 133.701 2.25612C133.378 2.48402 133.134 2.74449 132.968 3.03751C132.812 3.3224 132.734 3.61542 132.734 3.91659C132.734 4.33984 132.901 4.73054 133.233 5.08868C133.566 5.43868 134.007 5.77241 134.558 6.08985C135.108 6.39915 135.732 6.70032 136.428 6.99334C137.135 7.28637 137.851 7.58346 138.579 7.88462C139.306 8.18579 140.018 8.49916 140.714 8.82474C141.421 9.15033 142.049 9.50847 142.6 9.89917C143.15 10.2817 143.592 10.705 143.925 11.1689C144.257 11.6248 144.423 12.1375 144.423 12.7073C144.423 13.3503 144.267 13.9567 143.956 14.5265C143.644 15.0881 143.176 15.5806 142.553 16.0038C141.93 16.419 141.156 16.7486 140.231 16.9928C139.306 17.237 138.231 17.3591 137.005 17.3591C136.007 17.3591 135.119 17.2736 134.34 17.1027C133.56 16.9318 132.869 16.6835 132.267 16.3579C131.674 16.0323 131.165 15.6376 130.739 15.1736C130.313 14.7015 129.965 14.1643 129.695 13.562L131.55 12.9637C131.768 13.4928 132.059 13.9649 132.423 14.38C132.797 14.7951 133.228 15.1492 133.716 15.4422C134.205 15.7271 134.745 15.9469 135.337 16.1015C135.94 16.2562 136.579 16.3335 137.254 16.3335Z" fill="#1F211E"/>
<path d="M150.735 9.21544V16.9806H147.26V0.790994H150.735V8.16544H161.115V0.790994H164.591V16.9806H161.115V9.21544H150.735Z" fill="#1F211E"/>
</svg>
