<svg width="30" height="30" viewBox="0 0 30 30" fill="none" xmlns="http://www.w3.org/2000/svg">
<path d="M19.9995 11.25H22.912C23.2116 11.2462 23.5027 11.3501 23.7321 11.5428C23.9615 11.7355 24.1141 12.0042 24.162 12.3L26.2495 24.8C26.2787 24.9801 26.2682 25.1644 26.2186 25.34C26.169 25.5155 26.0815 25.6781 25.9624 25.8163C25.8433 25.9545 25.6954 26.0649 25.529 26.1398C25.3627 26.2148 25.1819 26.2524 24.9995 26.25H4.99952C4.8171 26.2524 4.63637 26.2148 4.47003 26.1398C4.30368 26.0649 4.15576 25.9545 4.03664 25.8163C3.91751 25.6781 3.83008 25.5155 3.78048 25.34C3.73088 25.1644 3.72031 24.9801 3.74952 24.8L5.83702 12.3C5.88494 12.0042 6.03751 11.7355 6.26694 11.5428C6.49638 11.3501 6.78741 11.2462 7.08702 11.25H9.99952" stroke="#6242A7" stroke-width="2.5" stroke-linecap="round" stroke-linejoin="round"/>
<path d="M20 8.75C20 7.42392 19.4732 6.15215 18.5355 5.21447C17.5979 4.27678 16.3261 3.75 15 3.75C13.6739 3.75 12.4021 4.27678 11.4645 5.21447C10.5268 6.15215 10 7.42392 10 8.75C10 13.75 15 18.75 15 18.75C15 18.75 20 13.75 20 8.75Z" stroke="#6242A7" stroke-width="2.5" stroke-linecap="round" stroke-linejoin="round"/>
</svg>
