<svg width="26" height="22" viewBox="0 0 26 22" fill="none" xmlns="http://www.w3.org/2000/svg">
<path d="M2.6 2.8125L12.225 10.3875C12.4457 10.5619 12.7187 10.6567 13 10.6567C13.2813 10.6567 13.5543 10.5619 13.775 10.3875L23.4 2.8125M23 19.75H3C2.66848 19.75 2.35054 19.6183 2.11612 19.3839C1.8817 19.1495 1.75 18.8315 1.75 18.5V3.5C1.75 3.16848 1.8817 2.85054 2.11612 2.61612C2.35054 2.3817 2.66848 2.25 3 2.25H23C23.3315 2.25 23.6495 2.3817 23.8839 2.61612C24.1183 2.85054 24.25 3.16848 24.25 3.5V18.5C24.25 18.8315 24.1183 19.1495 23.8839 19.3839C23.6495 19.6183 23.3315 19.75 23 19.75Z" stroke="#6242A7" stroke-width="2.66667" stroke-linecap="round" stroke-linejoin="round"/>
</svg>
