<svg width="44" height="44" viewBox="0 0 44 44" fill="none" xmlns="http://www.w3.org/2000/svg">
<path d="M39.9847 23.4946C40.1167 23.5688 40.1431 23.7263 40.1484 23.7863L40.1497 23.8102L40.003 33.2785C40.003 37.0554 37.0766 40.1353 33.3918 40.3241L33.0329 40.3333H10.9485C7.21692 40.3333 4.17393 37.3714 3.98739 33.6417L3.97833 33.2785L3.84993 23.8102C3.84993 23.8102 3.84993 23.5874 4.01501 23.4946C4.16175 23.4017 4.34518 23.5131 4.36352 23.5317C8.06871 26.0194 12.5259 27.6718 17.2033 28.3587C17.8636 28.4515 18.5239 28.0245 18.7074 27.3561C19.0857 25.9289 20.2539 24.9586 21.6832 24.8429L21.9723 24.8313H22.0274C23.5865 24.8313 24.8888 25.8338 25.2923 27.3561C25.4757 28.0245 26.1361 28.4515 26.7964 28.3587C31.4737 27.6718 35.931 26.0194 39.6362 23.5317C39.6362 23.5317 39.6728 23.5131 39.7095 23.4946C39.7829 23.4574 39.8929 23.4389 39.9847 23.4946ZM21.9907 27.4861C21.3013 27.4861 20.7198 28.0165 20.6277 28.6912L20.615 28.8785V31.2734C20.615 32.0532 21.2386 32.6658 21.9907 32.6658C22.6969 32.6658 23.2643 32.151 23.354 31.4646L23.3664 31.2734V28.8785C23.3664 28.1173 22.7611 27.4861 21.9907 27.4861ZM24.3568 3.66663C27.1082 3.66663 29.3644 5.76451 29.7129 8.45648H33.3447C37.1966 8.45648 40.3332 11.6311 40.3332 15.5299C40.3332 15.5299 40.2231 17.1803 40.1864 19.4787C40.1828 19.6606 40.0947 19.8389 39.9498 19.9465C39.0675 20.5982 38.2605 21.1366 38.1871 21.1737C35.1422 23.2159 31.604 24.6528 27.8346 25.3676C27.5888 25.4159 27.3467 25.2878 27.2219 25.0687C26.1654 23.2382 24.1918 22.0463 21.9907 22.0463C19.8042 22.0463 17.8122 23.2252 16.7245 25.0576C16.598 25.2729 16.3595 25.3973 16.1156 25.3509C12.3774 24.6343 8.83909 23.1992 5.81258 21.1923L4.0517 19.967C3.90496 19.8741 3.81324 19.7071 3.81324 19.5214C3.75822 18.5746 3.6665 15.5299 3.6665 15.5299C3.6665 11.6311 6.80307 8.45648 10.655 8.45648H14.2685C14.617 5.76451 16.8731 3.66663 19.6245 3.66663H24.3568ZM24.3568 6.45142H19.6245C18.3955 6.45142 17.35 7.30543 17.0565 8.45648H26.9248C26.6313 7.30543 25.5858 6.45142 24.3568 6.45142Z" fill="#4527B3"/>
</svg>
