<svg width="44" height="44" viewBox="0 0 44 44" fill="none" xmlns="http://www.w3.org/2000/svg">
<path d="M9.1665 22H7.33317V36.6666C7.33317 37.6391 7.71948 38.5717 8.40711 39.2594C9.09475 39.947 10.0274 40.3333 10.9998 40.3333H20.1665V22H9.1665ZM32.9998 22H23.8332V40.3333H32.9998C33.9723 40.3333 34.9049 39.947 35.5926 39.2594C36.2802 38.5717 36.6665 37.6391 36.6665 36.6666V22H32.9998ZM34.45 12.8333C34.7189 11.9419 34.8482 11.0142 34.8332 10.0833C34.8332 6.54496 31.9548 3.66663 28.4165 3.66663C25.4428 3.66663 23.4573 6.38363 22.1758 9.32246C20.9127 6.54496 18.8263 3.66663 15.5832 3.66663C12.0448 3.66663 9.1665 6.54496 9.1665 10.0833C9.1665 11.176 9.31134 12.0798 9.54967 12.8333H3.6665V20.1666H20.1665V16.5H23.8332V20.1666H40.3332V12.8333H34.45ZM12.8332 10.0833C12.8332 8.56713 14.067 7.33329 15.5832 7.33329C17.2112 7.33329 18.7255 10.1291 19.6128 12.8333H14.6665C13.9808 12.8333 12.8332 12.8333 12.8332 10.0833ZM28.4165 7.33329C29.9327 7.33329 31.1665 8.56713 31.1665 10.0833C31.1665 12.8333 30.0188 12.8333 29.3332 12.8333H24.792C25.727 9.94396 27.0855 7.33329 28.4165 7.33329Z" fill="#4527B3"/>
</svg>
