<svg width="33" height="32" viewBox="0 0 33 32" fill="none" xmlns="http://www.w3.org/2000/svg">
<path d="M32.2333 15.9954C32.2333 17.6621 30.8 18.9787 30.3333 20.4454C29.8667 21.9121 30.1667 23.9121 29.25 25.1621C28.3333 26.4121 26.3667 26.7287 25.0833 27.6454C23.8 28.5621 22.95 30.3454 21.45 30.8454C19.95 31.3454 18.2833 30.4121 16.6167 30.4121C14.95 30.4121 13.2833 31.3287 11.7833 30.8621C10.2833 30.3954 9.4 28.5787 8.15 27.6621C6.9 26.7454 4.95 26.4621 3.98333 25.1787C3.01667 23.8954 3.4 21.9787 2.9 20.4621C2.4 18.9454 1 17.6621 1 15.9954C1 14.3287 2.43333 12.9954 2.9 11.5287C3.36667 10.0621 3.06667 8.06207 3.98333 6.81207C4.9 5.56207 6.86667 5.26207 8.15 4.32873C9.43333 3.3954 10.2833 1.6454 11.7833 1.1454C13.2833 0.645399 15 1.5954 16.6167 1.5954C18.2333 1.5954 19.95 0.678733 21.45 1.1454C22.95 1.61207 23.8333 3.42873 25.0833 4.32873C26.3333 5.22873 28.3167 5.52873 29.25 6.81207C30.1833 8.0954 29.8333 10.0121 30.3333 11.5287C30.8333 13.0454 32.2333 14.3287 32.2333 15.9954Z" stroke="#4527B3" stroke-width="1.5" stroke-linecap="round" stroke-linejoin="round"/>
<path d="M9.94922 15.9954L14.9492 20.9954L23.2826 12.6621" stroke="#4527B3" stroke-width="1.5" stroke-linecap="round" stroke-linejoin="round"/>
</svg>
