<svg width="60" height="60" viewBox="0 0 60 60" fill="none" xmlns="http://www.w3.org/2000/svg">
<circle cx="30" cy="30" r="30" fill="#2C2C2C"/>
<path d="M33.525 20.325C33.2768 20.7696 33.0555 21.2287 32.8625 21.7C30.966 21.4 29.0341 21.4 27.1375 21.7C26.9445 21.2287 26.7233 20.7696 26.475 20.325C24.6885 20.6302 22.9518 21.1769 21.3125 21.95C18.3812 26.1803 17.0518 31.3161 17.5625 36.4375C19.4728 37.8735 21.6168 38.9688 23.9 39.6749C24.4199 38.9882 24.8839 38.2609 25.2875 37.5C24.5426 37.2253 23.8266 36.8778 23.15 36.4625C23.3356 36.339 23.5111 36.201 23.675 36.05C25.6481 37.0003 27.81 37.4939 30 37.4939C32.1901 37.4939 34.3519 37.0003 36.325 36.05C36.5 36.2 36.675 36.3375 36.85 36.4625C36.1697 36.8745 35.4545 37.2259 34.7125 37.5125C35.0994 38.2906 35.551 39.0349 36.0625 39.7375C38.3428 39.0337 40.4832 37.9382 42.3875 36.5C42.9105 31.3777 41.58 26.2377 38.6375 22.0125C37.0167 21.2234 35.2971 20.6558 33.525 20.325ZM25.85 33.5125C25.2245 33.4675 24.6407 33.1821 24.2212 32.7159C23.8016 32.2498 23.579 31.6392 23.6 31.0125C23.5758 30.3848 23.7974 29.7726 24.2175 29.3057C24.6377 28.8389 25.2233 28.5543 25.85 28.5125C26.4767 28.5543 27.0623 28.8389 27.4825 29.3057C27.9027 29.7726 28.1242 30.3848 28.1 31.0125C28.1242 31.6401 27.9027 32.2523 27.4825 32.7192C27.0623 33.186 26.4767 33.4706 25.85 33.5125ZM34.15 33.5125C33.5245 33.4675 32.9407 33.1821 32.5212 32.7159C32.1016 32.2498 31.879 31.6392 31.9 31.0125C31.8758 30.3848 32.0974 29.7726 32.5175 29.3057C32.9377 28.8389 33.5233 28.5543 34.15 28.5125C34.7779 28.5512 35.3654 28.8348 35.7862 29.3024C36.207 29.7699 36.4274 30.384 36.4 31.0125C36.4274 31.6409 36.207 32.255 35.7862 32.7225C35.3654 33.1901 34.7779 33.4737 34.15 33.5125Z" fill="white"/>
</svg>
