<svg width="44" height="44" viewBox="0 0 44 44" fill="none" xmlns="http://www.w3.org/2000/svg">
<path d="M30.8401 14.61C30.3294 14.099 29.7229 13.6936 29.0555 13.4171C28.388 13.1405 27.6726 12.9982 26.9501 12.9982C26.2276 12.9982 25.5122 13.1405 24.8448 13.4171C24.1773 13.6936 23.5709 14.099 23.0601 14.61L22.0001 15.67L20.9401 14.61C19.9084 13.5783 18.5092 12.9987 17.0501 12.9987C15.5911 12.9987 14.1918 13.5783 13.1601 14.61C12.1284 15.6417 11.5488 17.041 11.5488 18.5C11.5488 19.959 12.1284 21.3583 13.1601 22.39L14.2201 23.45L22.0001 31.23L29.7801 23.45L30.8401 22.39C31.3511 21.8792 31.7565 21.2728 32.033 20.6053C32.3096 19.9379 32.4519 19.2225 32.4519 18.5C32.4519 17.7775 32.3096 17.0621 32.033 16.3946C31.7565 15.7272 31.3511 15.1208 30.8401 14.61V14.61Z" stroke="#585858" stroke-width="1.5" stroke-linecap="round" stroke-linejoin="round"/>
<circle cx="22" cy="22" r="21.5" stroke="#D9D9D9"/>
</svg>
