<svg width="40" height="40" viewBox="0 0 40 40" fill="none" xmlns="http://www.w3.org/2000/svg">
<rect x="0.299805" width="39.325" height="39.325" rx="19.6625" fill="#4527B3"/>
<path d="M30.7772 10.8243C29.8357 11.4884 28.7933 11.9963 27.6902 12.3285C27.0981 11.6477 26.3112 11.1652 25.4359 10.9462C24.5606 10.7272 23.6392 10.7823 22.7962 11.104C21.9533 11.4257 21.2295 11.9986 20.7227 12.7451C20.216 13.4916 19.9507 14.3757 19.9628 15.2779V16.261C18.2351 16.3058 16.5231 15.9226 14.9794 15.1456C13.4356 14.3686 12.108 13.2218 11.1147 11.8075C11.1147 11.8075 7.18219 20.6556 16.0303 24.5881C14.0056 25.9625 11.5936 26.6516 9.14844 26.5543C17.9966 31.4699 28.8109 26.5543 28.8109 15.2484C28.81 14.9746 28.7837 14.7014 28.7323 14.4324C29.7356 13.4429 30.4437 12.1935 30.7772 10.8243V10.8243Z" fill="white"/>
</svg>
