<svg width="32" height="29" viewBox="0 0 32 29" fill="none" xmlns="http://www.w3.org/2000/svg">
<path d="M19.1999 8.1499H19.0332" stroke="#4527B3" stroke-width="1.95" stroke-linecap="round" stroke-linejoin="round"/>
<path d="M2.66667 1H29.3333C29.7754 1 30.1993 1.1756 30.5118 1.48816C30.8244 1.80072 31 2.22464 31 2.66667V26C31 26.442 30.8244 26.866 30.5118 27.1785C30.1993 27.4911 29.7754 27.6667 29.3333 27.6667H2.66667C2.22464 27.6667 1.80072 27.4911 1.48816 27.1785C1.17559 26.866 1 26.442 1 26V2.66667C1 2.22464 1.17559 1.80072 1.48816 1.48816C1.80072 1.1756 2.22464 1 2.66667 1V1ZM10.5167 11L1 20.55V26C1 26.442 1.17559 26.866 1.48816 27.1785C1.80072 27.4911 2.22464 27.6667 2.66667 27.6667H9.81667L18.4833 19L10.5167 11ZM23.15 14.3333L9.81667 27.6667H29.3333C29.7754 27.6667 30.1993 27.4911 30.5118 27.1785C30.8244 26.866 31 26.442 31 26V22.1833L23.15 14.3333Z" stroke="#4527B3" stroke-width="1.5" stroke-linecap="round" stroke-linejoin="round"/>
</svg>
