<svg width="60" height="60" viewBox="0 0 60 60" fill="none" xmlns="http://www.w3.org/2000/svg">
<circle cx="30" cy="30" r="30" fill="#2C2C2C"/>
<path d="M30 26.0947C27.8496 26.0947 26.0947 27.8496 26.0947 30C26.0947 32.1504 27.8496 33.9053 30 33.9053C32.1504 33.9053 33.9053 32.1504 33.9053 30C33.9053 27.8496 32.1504 26.0947 30 26.0947ZM41.7129 30C41.7129 28.3828 41.7275 26.7803 41.6367 25.166C41.5459 23.291 41.1182 21.627 39.7471 20.2559C38.373 18.8819 36.7119 18.457 34.8369 18.3662C33.2197 18.2754 31.6172 18.2901 30.0029 18.2901C28.3857 18.2901 26.7832 18.2754 25.1689 18.3662C23.2939 18.457 21.6299 18.8848 20.2588 20.2559C18.8848 21.6299 18.4599 23.291 18.3691 25.166C18.2783 26.7832 18.293 28.3858 18.293 30C18.293 31.6143 18.2783 33.2197 18.3691 34.834C18.4599 36.709 18.8877 38.3731 20.2588 39.7442C21.6328 41.1182 23.2939 41.543 25.1689 41.6338C26.7861 41.7246 28.3887 41.71 30.0029 41.71C31.6201 41.71 33.2226 41.7246 34.8369 41.6338C36.7119 41.543 38.376 41.1153 39.7471 39.7442C41.1211 38.3701 41.5459 36.709 41.6367 34.834C41.7305 33.2197 41.7129 31.6172 41.7129 30ZM30 36.0088C26.6748 36.0088 23.9912 33.3252 23.9912 30C23.9912 26.6748 26.6748 23.9912 30 23.9912C33.3252 23.9912 36.0088 26.6748 36.0088 30C36.0088 33.3252 33.3252 36.0088 30 36.0088ZM36.2549 25.1485C35.4785 25.1485 34.8515 24.5215 34.8515 23.7451C34.8515 22.9688 35.4785 22.3418 36.2549 22.3418C37.0312 22.3418 37.6582 22.9688 37.6582 23.7451C37.6584 23.9295 37.6223 24.1121 37.5518 24.2824C37.4814 24.4528 37.378 24.6076 37.2477 24.7379C37.1173 24.8683 36.9625 24.9717 36.7922 25.0421C36.6218 25.1125 36.4392 25.1487 36.2549 25.1485Z" fill="white"/>
</svg>
