<svg width="32" height="32" viewBox="0 0 32 32" fill="none" xmlns="http://www.w3.org/2000/svg">
<path d="M7.66667 26H2.66667C2.22464 26 1.80072 25.8244 1.48816 25.5119C1.17559 25.1993 1 24.7754 1 24.3334V2.66669C1 2.22467 1.17559 1.80074 1.48816 1.48818C1.80072 1.17562 2.22464 1.00003 2.66667 1.00003H11C11.2193 0.99876 11.4368 1.0408 11.6398 1.12374C11.8429 1.20668 12.0276 1.32889 12.1833 1.48336L16.2 5.51669C16.3557 5.67116 16.5404 5.79337 16.7435 5.87631C16.9466 5.95925 17.164 6.0013 17.3833 6.00003H29.3333C29.7754 6.00003 30.1993 6.17562 30.5118 6.48818C30.8244 6.80074 31 7.22467 31 7.66669V12.6667" stroke="#4527B3" stroke-width="1.5" stroke-linecap="round" stroke-linejoin="round"/>
<path d="M30.9997 30.9999L25.7163 25.7166M20.9997 27.6666C22.3182 27.6666 23.6071 27.2756 24.7035 26.5431C25.7998 25.8105 26.6543 24.7693 27.1589 23.5511C27.6635 22.333 27.7955 20.9925 27.5382 19.6993C27.281 18.4061 26.6461 17.2182 25.7137 16.2859C24.7814 15.3535 23.5935 14.7186 22.3003 14.4614C21.0071 14.2041 19.6666 14.3361 18.4485 14.8407C17.2303 15.3453 16.1891 16.1998 15.4565 17.2961C14.724 18.3924 14.333 19.6814 14.333 20.9999C14.333 22.768 15.0354 24.4637 16.2856 25.714C17.5359 26.9642 19.2316 27.6666 20.9997 27.6666Z" stroke="#4527B3" stroke-width="1.5" stroke-linecap="round" stroke-linejoin="round"/>
</svg>
