<svg width="60" height="60" viewBox="0 0 60 60" fill="none" xmlns="http://www.w3.org/2000/svg">
<circle cx="30" cy="30" r="29.5" fill="white" stroke="#D9D9D9"/>
<path d="M39.3699 30C39.3699 31 38.5099 31.79 38.2299 32.67C37.9499 33.55 38.1299 34.75 37.5799 35.5C37.0299 36.25 35.8499 36.44 35.0799 36.99C34.3099 37.54 33.7999 38.61 32.8999 38.91C31.9999 39.21 30.9999 38.65 29.9999 38.65C28.9999 38.65 27.9999 39.2 27.0999 38.92C26.1999 38.64 25.6699 37.55 24.9199 37C24.1699 36.45 22.9999 36.28 22.4199 35.51C21.8399 34.74 22.0699 33.59 21.7699 32.68C21.4699 31.77 20.6299 31 20.6299 30C20.6299 29 21.4899 28.2 21.7699 27.32C22.0499 26.44 21.8699 25.24 22.4199 24.49C22.9699 23.74 24.1499 23.56 24.9199 23C25.6899 22.44 26.1999 21.39 27.0999 21.09C27.9999 20.79 29.0299 21.36 29.9999 21.36C30.9699 21.36 31.9999 20.81 32.8999 21.09C33.7999 21.37 34.3299 22.46 35.0799 23C35.8299 23.54 37.0199 23.72 37.5799 24.49C38.1399 25.26 37.9299 26.41 38.2299 27.32C38.5299 28.23 39.3699 29 39.3699 30Z" stroke="#4527B3" stroke-width="1.5" stroke-linecap="round" stroke-linejoin="round"/>
<path d="M26 30L29 33L34 28" stroke="#4527B3" stroke-width="1.5" stroke-linecap="round" stroke-linejoin="round"/>
</svg>
