<svg width="60" height="60" viewBox="0 0 60 60" fill="none" xmlns="http://www.w3.org/2000/svg">
<circle cx="30" cy="30" r="29.5" fill="white" stroke="#D9D9D9"/>
<path d="M36.3701 29C35.643 29.625 34.6977 29.9359 33.7415 29.8647C32.7854 29.7935 31.8966 29.3458 31.2701 28.62C30.5329 27.8478 30.1166 26.8244 30.1055 25.7568C30.0944 24.6893 30.4892 23.6574 31.2101 22.87C31.6936 22.3302 32.2788 21.891 32.9322 21.5777C33.5856 21.2644 34.2944 21.083 35.018 21.044C35.7416 21.005 36.4658 21.1091 37.1491 21.3504C37.8324 21.5916 38.4614 21.9653 39.0001 22.45C37.2701 25 37.9401 27.41 36.3701 29ZM31.2701 28.62C30.7972 28.14 30.4533 27.5484 30.2701 26.9L21.5701 35.61C21.1976 35.9847 20.9885 36.4916 20.9885 37.02C20.9885 37.5484 21.1976 38.0553 21.5701 38.43C21.9448 38.8025 22.4517 39.0116 22.9801 39.0116C23.5085 39.0116 24.0154 38.8025 24.3901 38.43L33.1001 29.73C32.4062 29.5101 31.7775 29.1219 31.2701 28.6V28.62Z" stroke="#4527B3" stroke-width="1.5" stroke-linecap="round" stroke-linejoin="round"/>
</svg>
