<svg width="32" height="32" viewBox="0 0 32 32" fill="none" xmlns="http://www.w3.org/2000/svg">
<path d="M26.0003 26V29.3333C26.0003 29.7754 25.8247 30.1993 25.5122 30.5118C25.1996 30.8244 24.7757 31 24.3337 31H4.33366C3.89163 31 3.46771 30.8244 3.15515 30.5118C2.84259 30.1993 2.66699 29.7754 2.66699 29.3333V2.66667C2.66699 2.22464 2.84259 1.80072 3.15515 1.48816C3.46771 1.17559 3.89163 1 4.33366 1H21.0003" stroke="#4527B3" stroke-width="1.5" stroke-linecap="round" stroke-linejoin="round"/>
<path d="M1 9.33326H4.33333M1 15.9999H4.33333M1 22.6666H4.33333M30.5167 8.8166L28.1833 6.48326C27.8718 6.17789 27.4529 6.00684 27.0167 6.00684C26.5804 6.00684 26.1615 6.17789 25.85 6.48326L17.6667 14.6666V19.3333H22.3333L30.5167 11.1499C30.822 10.8384 30.9931 10.4195 30.9931 9.98327C30.9931 9.54701 30.822 9.12815 30.5167 8.8166V8.8166Z" stroke="#4527B3" stroke-width="1.5" stroke-linecap="round" stroke-linejoin="round"/>
</svg>
