<svg width="32" height="32" viewBox="0 0 32 32" fill="none" xmlns="http://www.w3.org/2000/svg">
<path d="M26.636 14.2733C25.4241 15.3149 23.8486 15.8332 22.255 15.7145C20.6614 15.5957 19.1801 14.8497 18.136 13.64C16.9073 12.353 16.2135 10.6473 16.1949 8.86805C16.1764 7.08883 16.8344 5.36901 18.036 4.05665C18.8417 3.15697 19.817 2.42506 20.9061 1.90284C21.9951 1.38062 23.1764 1.07834 24.3824 1.01332C25.5884 0.948297 26.7954 1.12181 27.9343 1.52391C29.0731 1.92601 30.1215 2.54881 31.0193 3.35665C28.136 7.60665 29.2526 11.6233 26.636 14.2733ZM18.136 13.64C17.3479 12.84 16.7746 11.854 16.4693 10.7733L1.96931 25.29C1.34847 25.9145 1 26.7594 1 27.64C1 28.5206 1.34847 29.3654 1.96931 29.99C2.59385 30.6108 3.43869 30.9593 4.31931 30.9593C5.19993 30.9593 6.04477 30.6108 6.66931 29.99L21.186 15.49C20.0295 15.1235 18.9816 14.4765 18.136 13.6067V13.64Z" stroke="#4527B3" stroke-width="1.5" stroke-linecap="round" stroke-linejoin="round"/>
</svg>
