<svg width="44" height="44" viewBox="0 0 44 44" fill="none" xmlns="http://www.w3.org/2000/svg">
<circle cx="22" cy="22" r="21.5" stroke="#D9D9D9"/>
<path d="M18.68 23.34L25.3 26.65M18.68 20.66L25.3 17.35M16 19C16.5933 19 17.1734 19.1759 17.6667 19.5056C18.1601 19.8352 18.5446 20.3038 18.7716 20.852C18.9987 21.4001 19.0581 22.0033 18.9424 22.5853C18.8266 23.1672 18.5409 23.7018 18.1213 24.1213C17.7018 24.5409 17.1672 24.8266 16.5853 24.9424C16.0033 25.0581 15.4001 24.9987 14.8519 24.7716C14.3038 24.5446 13.8352 24.1601 13.5056 23.6667C13.1759 23.1734 13 22.5933 13 22C13 21.2044 13.3161 20.4413 13.8787 19.8787C14.4413 19.3161 15.2044 19 16 19V19ZM25 28C25 28.5933 25.1759 29.1734 25.5056 29.6667C25.8352 30.1601 26.3038 30.5446 26.8519 30.7716C27.4001 30.9987 28.0033 31.0581 28.5853 30.9424C29.1672 30.8266 29.7018 30.5409 30.1213 30.1213C30.5409 29.7018 30.8266 29.1672 30.9424 28.5853C31.0581 28.0033 30.9987 27.4001 30.7716 26.852C30.5446 26.3038 30.1601 25.8352 29.6667 25.5056C29.1734 25.1759 28.5933 25 28 25C27.2044 25 26.4413 25.3161 25.8787 25.8787C25.3161 26.4413 25 27.2044 25 28ZM28 19C28.5933 19 29.1734 18.8241 29.6667 18.4944C30.1601 18.1648 30.5446 17.6962 30.7716 17.1481C30.9987 16.5999 31.0581 15.9967 30.9424 15.4147C30.8266 14.8328 30.5409 14.2982 30.1213 13.8787C29.7018 13.4591 29.1672 13.1734 28.5853 13.0576C28.0033 12.9419 27.4001 13.0013 26.8519 13.2284C26.3038 13.4554 25.8352 13.8399 25.5056 14.3333C25.1759 14.8266 25 15.4067 25 16C25 16.7957 25.3161 17.5587 25.8787 18.1213C26.4413 18.6839 27.2044 19 28 19Z" stroke="#585858" stroke-width="1.5" stroke-linecap="round" stroke-linejoin="round"/>
</svg>
