<svg width="60" height="60" viewBox="0 0 60 60" fill="none" xmlns="http://www.w3.org/2000/svg">
<path d="M22.3902 12.3988C23.6155 12.1694 24.844 12.7812 25.3786 13.887C25.5117 14.0876 25.6182 14.3041 25.6956 14.5311C26.0352 19.7732 26.3974 24.9265 26.737 30.0797C26.7293 30.6154 26.8135 31.1485 26.9861 31.6568C27.3924 32.6568 28.4034 33.2913 29.4991 33.2339L46.1395 32.1677L46.2527 32.2121L46.5564 32.234C47.158 32.311 47.7188 32.5856 48.1446 33.0176C48.6414 33.5217 48.9137 34.1987 48.902 34.8998C48.2459 44.455 41.2404 52.4388 31.7069 54.4956C22.1734 56.5524 12.4004 52.1886 7.71945 43.7847C6.34304 41.3643 5.47326 38.6985 5.16113 35.9438C5.04008 35.1275 4.98708 34.3029 5.00265 33.4782C5.03421 23.3177 12.2682 14.5477 22.3902 12.3988ZM32.2838 5.00206C43.7109 5.34414 53.2609 13.6395 54.9918 24.7266C55.0027 24.7928 55.0027 24.8603 54.9918 24.9265L54.9887 25.2395C54.9511 25.6532 54.7812 26.0478 54.4991 26.3646C54.1464 26.7606 53.6475 27.0025 53.1126 27.0367L33.9139 28.3028L33.5976 28.309C33.0736 28.2835 32.5711 28.0797 32.1796 27.7273C31.7099 27.3045 31.4436 26.707 31.4462 26.0815L30.1557 7.22329V6.91232C30.1792 6.38194 30.4167 5.88251 30.816 5.52416C31.2152 5.16581 31.7433 4.97797 32.2838 5.00206Z" fill="#4527B3"/>
</svg>
