<svg width="60" height="60" viewBox="0 0 60 60" fill="none" xmlns="http://www.w3.org/2000/svg">
<path d="M38.624 9.45075C38.524 10.0757 38.474 10.7007 38.474 11.3257C38.474 16.9507 43.024 21.4982 48.624 21.4982C49.249 21.4982 49.849 21.4258 50.474 21.3258V41.4983C50.474 49.9757 45.474 55.0007 36.974 55.0007H18.5015C9.99902 55.0007 4.99902 49.9757 4.99902 41.4983V23.0008C4.99902 14.5008 9.99902 9.45075 18.5015 9.45075H38.624ZM39.1265 24.6507C38.449 24.5758 37.7765 24.8757 37.374 25.4257L31.3265 33.2507L24.399 27.8008C23.974 27.4757 23.474 27.3483 22.974 27.4008C22.4765 27.4758 22.0265 27.7483 21.724 28.1483L14.3265 37.7757L14.174 38.0008C13.749 38.7983 13.949 39.8232 14.699 40.3758C15.049 40.6007 15.424 40.7507 15.849 40.7507C16.4265 40.7757 16.974 40.4733 17.324 40.0008L23.599 31.9233L30.724 37.2757L30.949 37.4233C31.749 37.8483 32.749 37.6507 33.324 36.8983L40.549 27.5758L40.449 27.6257C40.849 27.0757 40.924 26.3757 40.649 25.7507C40.3765 25.1257 39.774 24.7008 39.1265 24.6507ZM48.9743 5C52.2993 5 54.9993 7.7 54.9993 11.025C54.9993 14.35 52.2993 17.05 48.9743 17.05C45.6493 17.05 42.9493 14.35 42.9493 11.025C42.9493 7.7 45.6493 5 48.9743 5Z" fill="#4527B3"/>
</svg>
