<svg width="60" height="60" viewBox="0 0 60 60" fill="none" xmlns="http://www.w3.org/2000/svg">
<circle cx="30" cy="30" r="30" fill="#2C2C2C"/>
<path d="M44.5537 21.1712C43.51 21.6337 42.3888 21.9462 41.21 22.0875C42.4263 21.3597 43.3362 20.2143 43.77 18.865C42.6273 19.5437 41.3767 20.0215 40.0725 20.2775C39.1955 19.3411 38.0338 18.7204 36.7679 18.5118C35.502 18.3033 34.2026 18.5185 33.0715 19.124C31.9405 19.7296 31.041 20.6917 30.5127 21.8609C29.9844 23.03 29.8569 24.3409 30.15 25.59C27.8346 25.4737 25.5695 24.8719 23.5018 23.8236C21.434 22.7753 19.6098 21.3039 18.1475 19.505C17.6475 20.3675 17.36 21.3675 17.36 22.4325C17.3594 23.3912 17.5955 24.3353 18.0473 25.1809C18.4992 26.0265 19.1527 26.7475 19.95 27.28C19.0253 27.2506 18.1211 27.0007 17.3125 26.5512V26.6262C17.3124 27.9709 17.7775 29.2742 18.629 30.315C19.4804 31.3557 20.6657 32.0699 21.9837 32.3362C21.126 32.5684 20.2267 32.6026 19.3537 32.4362C19.7256 33.5932 20.45 34.605 21.4255 35.3299C22.4009 36.0548 23.5786 36.4564 24.7937 36.4787C22.731 38.098 20.1836 38.9763 17.5612 38.9725C17.0967 38.9726 16.6326 38.9455 16.1712 38.8912C18.8331 40.6027 21.9317 41.511 25.0962 41.5075C35.8087 41.5075 41.665 32.635 41.665 24.94C41.665 24.69 41.6588 24.4375 41.6475 24.1875C42.7866 23.3637 43.7699 22.3436 44.5513 21.175L44.5537 21.1712Z" fill="white"/>
</svg>
