<svg width="176" height="38" viewBox="0 0 176 38" fill="none" xmlns="http://www.w3.org/2000/svg">
<path d="M31.0686 11.4012C30.6759 11.1685 30.2306 11.046 29.7773 11.046C29.324 11.046 28.8787 11.1685 28.486 11.4012L22.5609 15.0306L18.535 17.3976L12.6099 21.0271C12.2172 21.2598 11.7719 21.3823 11.3186 21.3823C10.8653 21.3823 10.42 21.2598 10.0273 21.0271L5.31765 18.1867C4.93118 17.9494 4.60984 17.6148 4.38391 17.2145C4.15798 16.8142 4.03491 16.3613 4.0263 15.8985V10.2966C4.01879 9.83054 4.13507 9.37117 4.36262 8.96798C4.59017 8.56479 4.92036 8.23307 5.31765 8.00853L9.95131 5.24701C10.3441 5.01429 10.7894 4.8918 11.2427 4.8918C11.696 4.8918 12.1413 5.01429 12.534 5.24701L17.1677 8.00853C17.5541 8.24583 17.8755 8.5804 18.1014 8.98071C18.3273 9.38102 18.4503 9.83389 18.459 10.2966V13.9261L22.4849 11.4801V7.85068C22.4924 7.38459 22.3762 6.92522 22.1486 6.52203C21.9211 6.11885 21.5909 5.78712 21.1936 5.56257L12.6099 0.355214C12.2172 0.122497 11.7719 0 11.3186 0C10.8653 0 10.42 0.122497 10.0273 0.355214L1.29167 5.56264C0.894396 5.78718 0.564209 6.1189 0.336665 6.52207C0.109122 6.92524 -0.00715966 7.3846 0.000341928 7.85068V18.3444C-0.00716659 18.8105 0.109114 19.2699 0.336662 19.6731C0.564211 20.0763 0.894406 20.408 1.29169 20.6325L10.0273 25.8399C10.42 26.0727 10.8653 26.1952 11.3186 26.1952C11.7719 26.1952 12.2172 26.0727 12.6099 25.8399L18.535 22.2894L22.5609 19.8435L28.486 16.293C28.8787 16.0603 29.324 15.9378 29.7773 15.9378C30.2306 15.9378 30.6759 16.0603 31.0687 16.293L35.7023 19.0546C36.0888 19.2919 36.4101 19.6264 36.636 20.0267C36.8619 20.427 36.985 20.8799 36.9936 21.3426V26.9446C37.0011 27.4107 36.8849 27.87 36.6573 28.2732C36.4298 28.6764 36.0996 29.0081 35.7023 29.2326L31.0687 32.0731C30.6759 32.3059 30.2306 32.4283 29.7773 32.4283C29.324 32.4283 28.8787 32.3059 28.486 32.0731L23.8523 29.3116C23.4658 29.0743 23.1445 28.7397 22.9186 28.3394C22.6926 27.9391 22.5695 27.4862 22.5609 27.0234V23.3941L18.535 25.8399V29.4694C18.5275 29.9355 18.6437 30.3948 18.8713 30.798C19.0988 31.2012 19.429 31.5329 19.8263 31.7574L28.5619 36.965C28.9546 37.1977 29.3999 37.3202 29.8532 37.3202C30.3065 37.3202 30.7518 37.1977 31.1445 36.965L39.8801 31.7574C40.2666 31.5202 40.588 31.1856 40.8139 30.7853C41.0398 30.385 41.1629 29.9321 41.1715 29.4694V18.9756C41.179 18.5095 41.0627 18.0502 40.8352 17.647C40.6076 17.2438 40.2774 16.9121 39.8801 16.6876L31.0686 11.4012Z" fill="#7B3FE4"/>
<path d="M57.2132 33.9594V25.2475C57.794 25.8831 58.5042 26.3789 59.293 26.6995C60.0819 27.02 60.9298 27.1574 61.7763 27.1018C66.7511 27.1018 70.1133 23.4981 70.1133 18.0051C70.1133 12.5121 67.0256 8.9084 62.188 8.9084C61.2493 8.85375 60.3111 9.02445 59.4477 9.40702C58.5843 9.78959 57.8193 10.3735 57.2132 11.1126V9.1883H52.4443V33.9594H57.2132ZM61.1931 22.9034C58.6198 22.9034 56.9388 20.9441 56.9388 18.0051C56.9388 15.0312 58.6198 13.0719 61.1931 13.0719C63.6976 13.0719 65.413 15.0312 65.413 18.0051C65.413 20.9441 63.6976 22.9034 61.1931 22.9034Z" fill="black"/>
<path d="M80.941 27.1012C82.679 27.0456 84.3625 26.4648 85.7815 25.4313C87.2005 24.3979 88.292 22.9576 88.9198 21.2902C89.5475 19.6228 89.6838 17.8022 89.3114 16.0557C88.9391 14.3092 88.0747 12.7141 86.8262 11.4697C85.5777 10.2252 84.0003 9.38643 82.291 9.05809C80.5817 8.72976 78.8163 8.92639 77.215 9.62345C75.6137 10.3205 74.2476 11.4871 73.2872 12.9776C72.3268 14.4681 71.8146 16.2165 71.8146 18.0045C71.7917 19.2301 72.0142 20.4475 72.4684 21.5809C72.9226 22.7143 73.5987 23.7395 74.4547 24.5927C75.3107 25.4459 76.3283 26.1089 77.4442 26.5404C78.56 26.972 79.7503 27.1629 80.941 27.1012ZM80.941 22.9027C78.3677 22.9027 76.6179 20.9084 76.6179 18.0045C76.6179 15.0655 78.3677 13.0712 80.941 13.0712C83.5141 13.0712 85.2639 15.0655 85.2639 18.0045C85.2639 20.9084 83.5141 22.9027 80.941 22.9027Z" fill="black"/>
<path d="M97.7218 26.8213V1.52539H92.9531V26.8213H97.7218Z" fill="black"/>
<path d="M112.058 9.18848L108.455 20.5594L104.819 9.18848H99.9468L106.225 26.6822L103.686 33.9595H108.25L110.686 26.7521L116.964 9.18848H112.058Z" fill="black"/>
<path d="M130.354 10.9371C129.754 10.2576 129.016 9.72324 128.191 9.37236C127.366 9.02149 126.476 8.86286 125.585 8.90787C120.541 8.90787 117.488 12.5116 117.488 18.0046C117.488 23.4976 120.541 27.1013 125.654 27.1013C126.545 27.1567 127.436 26.9992 128.257 26.641C129.078 26.2829 129.808 25.7338 130.388 25.0371V27.3462C130.415 27.702 130.37 28.0595 130.257 28.3967C130.143 28.7338 129.963 29.0434 129.728 29.3059C129.493 29.5685 129.208 29.7785 128.891 29.9229C128.574 30.0673 128.231 30.143 127.884 30.1452H119.924V33.9588H128.638C132.55 33.9588 135.158 31.5447 135.158 27.871V9.18777H130.354V10.9371ZM126.408 22.9028C123.87 22.9028 122.188 20.9785 122.188 18.0046C122.188 15.0307 123.87 13.0714 126.408 13.0714C128.982 13.0714 130.663 15.0307 130.663 18.0046C130.663 20.9785 128.982 22.9028 126.408 22.9028V22.9028Z" fill="black"/>
<path d="M147.182 27.1012C148.92 27.0457 150.604 26.465 152.023 25.4316C153.442 24.3982 154.533 22.958 155.161 21.2906C155.789 19.6232 155.925 17.8026 155.553 16.056C155.181 14.3095 154.316 12.7144 153.068 11.4699C151.819 10.2253 150.242 9.38652 148.533 9.05813C146.824 8.72975 145.058 8.92635 143.457 9.62339C141.855 10.3204 140.489 11.487 139.529 12.9775C138.568 14.4681 138.056 16.2164 138.056 18.0044C138.033 19.23 138.256 20.4473 138.71 21.5806C139.164 22.714 139.84 23.7391 140.696 24.5923C141.552 25.4455 142.57 26.1085 143.685 26.5401C144.801 26.9718 145.991 27.1627 147.182 27.1012ZM147.182 22.9027C144.609 22.9027 142.86 20.9084 142.86 18.0044C142.86 15.0655 144.609 13.0712 147.182 13.0712C149.755 13.0712 151.505 15.0655 151.505 18.0044C151.505 20.9084 149.755 22.9027 147.182 22.9027Z" fill="black"/>
<path d="M163.719 26.8217V17.1652C163.684 16.6624 163.75 16.1577 163.914 15.6826C164.078 15.2075 164.335 14.7724 164.67 14.4045C165.005 14.0365 165.411 13.7438 165.861 13.5445C166.311 13.3453 166.797 13.2438 167.287 13.2466C167.746 13.2417 168.202 13.3354 168.624 13.5217C169.046 13.7079 169.426 13.9826 169.739 14.3283C170.053 14.674 170.292 15.083 170.443 15.5293C170.594 15.9756 170.653 16.4493 170.616 16.9203V26.8217H175.419V15.8357C175.419 11.7771 172.88 8.90817 168.969 8.90817C167.937 8.84172 166.906 9.05959 165.983 9.5393C165.06 10.019 164.279 10.7432 163.719 11.6372V9.18807H158.917V26.8217H163.719Z" fill="black"/>
</svg>
