<svg width="106" height="18" viewBox="0 0 106 18" fill="none" xmlns="http://www.w3.org/2000/svg">
<path d="M0.386 14V0.589999H5.264C6.164 0.589999 6.956 0.757999 7.64 1.094C8.336 1.418 8.876 1.898 9.26 2.534C9.644 3.158 9.836 3.908 9.836 4.784C9.836 5.648 9.638 6.392 9.242 7.016C8.858 7.64 8.324 8.12 7.64 8.456C6.956 8.792 6.164 8.96 5.264 8.96H2.51V14H0.386ZM2.51 7.07H5.318C5.798 7.07 6.218 6.974 6.578 6.782C6.938 6.59 7.22 6.326 7.424 5.99C7.628 5.642 7.73 5.234 7.73 4.766C7.73 4.298 7.628 3.896 7.424 3.56C7.22 3.212 6.938 2.948 6.578 2.768C6.218 2.576 5.798 2.48 5.318 2.48H2.51V7.07ZM16.4212 14.216C15.4852 14.216 14.6272 13.994 13.8472 13.55C13.0792 13.106 12.4672 12.5 12.0112 11.732C11.5552 10.964 11.3272 10.094 11.3272 9.122C11.3272 8.138 11.5552 7.268 12.0112 6.512C12.4672 5.744 13.0792 5.144 13.8472 4.712C14.6152 4.268 15.4732 4.046 16.4212 4.046C17.3812 4.046 18.2392 4.268 18.9952 4.712C19.7632 5.144 20.3692 5.744 20.8132 6.512C21.2692 7.268 21.4972 8.138 21.4972 9.122C21.4972 10.106 21.2692 10.982 20.8132 11.75C20.3572 12.518 19.7452 13.124 18.9772 13.568C18.2092 14 17.3572 14.216 16.4212 14.216ZM16.4212 12.326C16.9972 12.326 17.5072 12.188 17.9512 11.912C18.3952 11.636 18.7432 11.258 18.9952 10.778C19.2592 10.286 19.3912 9.734 19.3912 9.122C19.3912 8.51 19.2592 7.964 18.9952 7.484C18.7432 7.004 18.3952 6.626 17.9512 6.35C17.5072 6.074 16.9972 5.936 16.4212 5.936C15.8572 5.936 15.3472 6.074 14.8912 6.35C14.4472 6.626 14.0932 7.004 13.8292 7.484C13.5772 7.964 13.4512 8.51 13.4512 9.122C13.4512 9.734 13.5772 10.286 13.8292 10.778C14.0932 11.258 14.4472 11.636 14.8912 11.912C15.3472 12.188 15.8572 12.326 16.4212 12.326ZM25.9151 14L22.5671 4.262H24.7271L27.2831 12.02H26.5271L29.1371 4.262H30.9911L33.5831 12.02H32.8271L35.4011 4.262H37.5611L34.1951 14H32.3591L29.7311 6.062H30.3971L27.7691 14H25.9151ZM43.6018 14.216C42.6298 14.216 41.7658 13.994 41.0098 13.55C40.2658 13.094 39.6838 12.482 39.2638 11.714C38.8438 10.934 38.6338 10.064 38.6338 9.104C38.6338 8.12 38.8438 7.25 39.2638 6.494C39.6958 5.738 40.2718 5.144 40.9918 4.712C41.7118 4.268 42.5278 4.046 43.4398 4.046C44.1718 4.046 44.8258 4.172 45.4018 4.424C45.9778 4.676 46.4638 5.024 46.8598 5.468C47.2558 5.9 47.5558 6.398 47.7598 6.962C47.9758 7.526 48.0838 8.126 48.0838 8.762C48.0838 8.918 48.0778 9.08 48.0658 9.248C48.0538 9.416 48.0298 9.572 47.9938 9.716H40.2358V8.096H46.8418L45.8698 8.834C45.9898 8.246 45.9478 7.724 45.7438 7.268C45.5518 6.8 45.2518 6.434 44.8438 6.17C44.4478 5.894 43.9798 5.756 43.4398 5.756C42.8998 5.756 42.4198 5.894 41.9998 6.17C41.5798 6.434 41.2558 6.818 41.0278 7.322C40.7998 7.814 40.7098 8.414 40.7578 9.122C40.6978 9.782 40.7878 10.358 41.0278 10.85C41.2798 11.342 41.6278 11.726 42.0718 12.002C42.5278 12.278 43.0438 12.416 43.6198 12.416C44.2078 12.416 44.7058 12.284 45.1138 12.02C45.5338 11.756 45.8638 11.414 46.1038 10.994L47.7598 11.804C47.5678 12.26 47.2678 12.674 46.8598 13.046C46.4638 13.406 45.9838 13.694 45.4198 13.91C44.8678 14.114 44.2618 14.216 43.6018 14.216ZM50.3189 14V4.262H52.2629V6.224L52.0829 5.936C52.2989 5.3 52.6469 4.844 53.1269 4.568C53.6069 4.28 54.1829 4.136 54.8549 4.136H55.4489V5.99H54.6029C53.9309 5.99 53.3849 6.2 52.9649 6.62C52.5569 7.028 52.3529 7.616 52.3529 8.384V14H50.3189ZM61.6623 14.216C60.6903 14.216 59.8263 13.994 59.0703 13.55C58.3263 13.094 57.7443 12.482 57.3243 11.714C56.9043 10.934 56.6943 10.064 56.6943 9.104C56.6943 8.12 56.9043 7.25 57.3243 6.494C57.7563 5.738 58.3323 5.144 59.0523 4.712C59.7723 4.268 60.5883 4.046 61.5003 4.046C62.2323 4.046 62.8863 4.172 63.4623 4.424C64.0383 4.676 64.5243 5.024 64.9203 5.468C65.3163 5.9 65.6163 6.398 65.8203 6.962C66.0363 7.526 66.1443 8.126 66.1443 8.762C66.1443 8.918 66.1383 9.08 66.1263 9.248C66.1143 9.416 66.0903 9.572 66.0543 9.716H58.2963V8.096H64.9023L63.9303 8.834C64.0503 8.246 64.0083 7.724 63.8043 7.268C63.6123 6.8 63.3123 6.434 62.9043 6.17C62.5083 5.894 62.0403 5.756 61.5003 5.756C60.9603 5.756 60.4803 5.894 60.0603 6.17C59.6403 6.434 59.3163 6.818 59.0883 7.322C58.8603 7.814 58.7703 8.414 58.8183 9.122C58.7583 9.782 58.8483 10.358 59.0883 10.85C59.3403 11.342 59.6883 11.726 60.1323 12.002C60.5883 12.278 61.1043 12.416 61.6803 12.416C62.2683 12.416 62.7663 12.284 63.1743 12.02C63.5943 11.756 63.9243 11.414 64.1643 10.994L65.8203 11.804C65.6283 12.26 65.3283 12.674 64.9203 13.046C64.5243 13.406 64.0443 13.694 63.4803 13.91C62.9283 14.114 62.3223 14.216 61.6623 14.216ZM72.8794 14.216C71.9434 14.216 71.1034 13.994 70.3594 13.55C69.6274 13.094 69.0454 12.482 68.6134 11.714C68.1934 10.946 67.9834 10.082 67.9834 9.122C67.9834 8.162 68.1994 7.298 68.6314 6.53C69.0634 5.762 69.6454 5.156 70.3774 4.712C71.1094 4.268 71.9374 4.046 72.8614 4.046C73.6414 4.046 74.3314 4.202 74.9314 4.514C75.5314 4.826 76.0054 5.258 76.3534 5.81L76.0474 6.278V0.373999H78.0634V14H76.1374V12.02L76.3714 12.398C76.0354 12.986 75.5554 13.436 74.9314 13.748C74.3074 14.06 73.6234 14.216 72.8794 14.216ZM73.0774 12.326C73.6414 12.326 74.1454 12.188 74.5894 11.912C75.0454 11.636 75.3994 11.258 75.6514 10.778C75.9154 10.286 76.0474 9.734 76.0474 9.122C76.0474 8.51 75.9154 7.964 75.6514 7.484C75.3994 7.004 75.0454 6.626 74.5894 6.35C74.1454 6.074 73.6414 5.936 73.0774 5.936C72.5134 5.936 72.0034 6.074 71.5474 6.35C71.0914 6.626 70.7374 7.004 70.4854 7.484C70.2334 7.964 70.1074 8.51 70.1074 9.122C70.1074 9.734 70.2334 10.286 70.4854 10.778C70.7374 11.258 71.0854 11.636 71.5294 11.912C71.9854 12.188 72.5014 12.326 73.0774 12.326ZM89.2865 14.216C88.5305 14.216 87.8405 14.06 87.2165 13.748C86.6045 13.436 86.1305 12.986 85.7945 12.398L86.0285 12.02V14H84.0845V0.373999H86.1185V6.278L85.7945 5.81C86.1545 5.258 86.6345 4.826 87.2345 4.514C87.8345 4.202 88.5185 4.046 89.2865 4.046C90.2105 4.046 91.0385 4.268 91.7705 4.712C92.5145 5.156 93.0965 5.762 93.5165 6.53C93.9485 7.298 94.1645 8.162 94.1645 9.122C94.1645 10.082 93.9485 10.946 93.5165 11.714C93.0965 12.482 92.5205 13.094 91.7885 13.55C91.0565 13.994 90.2225 14.216 89.2865 14.216ZM89.0885 12.326C89.6645 12.326 90.1745 12.188 90.6185 11.912C91.0625 11.636 91.4105 11.258 91.6625 10.778C91.9265 10.286 92.0585 9.734 92.0585 9.122C92.0585 8.51 91.9265 7.964 91.6625 7.484C91.4105 7.004 91.0625 6.626 90.6185 6.35C90.1745 6.074 89.6645 5.936 89.0885 5.936C88.5245 5.936 88.0145 6.074 87.5585 6.35C87.1145 6.626 86.7605 7.004 86.4965 7.484C86.2445 7.964 86.1185 8.51 86.1185 9.122C86.1185 9.734 86.2445 10.286 86.4965 10.778C86.7605 11.258 87.1145 11.636 87.5585 11.912C88.0145 12.188 88.5245 12.326 89.0885 12.326ZM97.0813 17.978C96.8413 17.978 96.6013 17.954 96.3613 17.906C96.1333 17.87 95.9233 17.81 95.7313 17.726V15.98C95.8753 16.016 96.0493 16.046 96.2533 16.07C96.4573 16.106 96.6553 16.124 96.8473 16.124C97.4113 16.124 97.8253 15.998 98.0893 15.746C98.3653 15.506 98.6113 15.128 98.8273 14.612L99.4753 13.136L99.4393 14.846L95.2273 4.262H97.4053L100.519 12.38H99.7813L102.877 4.262H105.073L100.771 15.062C100.543 15.638 100.255 16.142 99.9073 16.574C99.5713 17.018 99.1693 17.36 98.7013 17.6C98.2453 17.852 97.7053 17.978 97.0813 17.978Z" fill="black"/>
</svg>
