<svg width="23" height="20" viewBox="0 0 23 20" fill="none" xmlns="http://www.w3.org/2000/svg">
<path d="M22.7912 7.44253H16.108C15.9931 7.44253 15.8991 7.53461 15.8991 7.64715V8.87488C15.8991 8.98742 15.9931 9.0795 16.108 9.0795H22.7912C22.9061 9.0795 23.0001 8.98742 23.0001 8.87488V7.64715C23.0001 7.53461 22.9061 7.44253 22.7912 7.44253ZM19.2929 10.9211H16.108C15.9931 10.9211 15.8991 11.0132 15.8991 11.1257V12.3534C15.8991 12.466 15.9931 12.5581 16.108 12.5581H19.2929C19.4078 12.5581 19.5018 12.466 19.5018 12.3534V11.1257C19.5018 11.0132 19.4078 10.9211 19.2929 10.9211ZM10.5812 5.15332H9.45084C9.28898 5.15332 9.15845 5.28121 9.15845 5.43979V11.7831C9.15845 11.8751 9.20283 11.9596 9.27854 12.0133L13.1658 14.791C13.2963 14.8831 13.4791 14.8575 13.573 14.7296L14.244 13.8318V13.8293C14.338 13.7014 14.3092 13.5223 14.1787 13.4303L10.871 11.0874V5.43979C10.8736 5.28121 10.7405 5.15332 10.5812 5.15332Z" fill="#E07A03"/>
<path d="M19.1308 14.1401H17.6218C17.4756 14.1401 17.3373 14.2143 17.2589 14.3371C16.9274 14.8512 16.541 15.327 16.0972 15.7618C15.3323 16.5112 14.4421 17.0995 13.4526 17.5087C12.4267 17.9333 11.338 18.1482 10.2154 18.1482C9.09026 18.1482 8.00162 17.9333 6.97825 17.5087C5.98882 17.0995 5.09859 16.5112 4.33368 15.7618C3.56876 15.0123 2.96831 14.1401 2.55061 13.1707C2.11725 12.1681 1.89795 11.1015 1.89795 9.99911C1.89795 8.89671 2.11725 7.83268 2.55061 6.82747C2.96831 5.85808 3.56876 4.98588 4.33368 4.23645C5.09859 3.48702 5.98882 2.89874 6.97825 2.48949C8.00162 2.0649 9.09287 1.85005 10.2154 1.85005C11.3406 1.85005 12.4293 2.0649 13.4526 2.48949C14.4421 2.89874 15.3323 3.48702 16.0972 4.23645C16.541 4.67127 16.9274 5.14702 17.2589 5.66113C17.3373 5.7839 17.4756 5.85808 17.6218 5.85808H19.1308C19.3109 5.85808 19.4258 5.67392 19.3448 5.51789C17.6427 2.20046 14.1914 0.0442623 10.3381 0.000780188C4.69656 -0.0682797 0.0104604 4.45642 1.78354e-05 9.97865C-0.0104247 15.5111 4.56602 20 10.2128 20C14.1157 20 17.6244 17.8361 19.3448 14.4803C19.4258 14.3243 19.3083 14.1401 19.1308 14.1401Z" fill="#E07A03"/>
</svg>
