<svg width="44" height="44" viewBox="0 0 44 44" fill="none" xmlns="http://www.w3.org/2000/svg">
<path d="M8.25 11.6875C8.25 9.6818 9.04676 7.75825 10.465 6.34C11.8832 4.92176 13.8068 4.125 15.8125 4.125C17.8182 4.125 19.7418 4.92176 21.16 6.34C22.5782 7.75825 23.375 9.6818 23.375 11.6875C23.375 13.6932 22.5782 15.6168 21.16 17.035C19.7418 18.4532 17.8182 19.25 15.8125 19.25C13.8068 19.25 11.8832 18.4532 10.465 17.035C9.04676 15.6168 8.25 13.6932 8.25 11.6875ZM26.125 15.8125C26.125 14.9999 26.285 14.1953 26.596 13.4446C26.9069 12.6939 27.3627 12.0118 27.9373 11.4373C28.5118 10.8627 29.1939 10.4069 29.9446 10.096C30.6953 9.78504 31.4999 9.625 32.3125 9.625C33.1251 9.625 33.9297 9.78504 34.6804 10.096C35.4311 10.4069 36.1132 10.8627 36.6877 11.4373C37.2623 12.0118 37.7181 12.6939 38.029 13.4446C38.34 14.1953 38.5 14.9999 38.5 15.8125C38.5 17.4535 37.8481 19.0273 36.6877 20.1877C35.5273 21.3481 33.9535 22 32.3125 22C30.6715 22 29.0977 21.3481 27.9373 20.1877C26.7769 19.0273 26.125 17.4535 26.125 15.8125ZM2.75 35.0625C2.75 31.5981 4.12622 28.2756 6.57592 25.8259C9.02561 23.3762 12.3481 22 15.8125 22C19.2769 22 22.5994 23.3762 25.0491 25.8259C27.4988 28.2756 28.875 31.5981 28.875 35.0625V35.068L28.8732 35.2862C28.8693 35.5193 28.8062 35.7477 28.6897 35.9497C28.5733 36.1518 28.4074 36.3209 28.2077 36.4412C24.4662 38.6943 20.18 39.8817 15.8125 39.875C11.2805 39.875 7.03817 38.621 3.41917 36.4412C3.21906 36.3211 3.05281 36.1521 2.93606 35.95C2.81931 35.7479 2.75591 35.5195 2.75183 35.2862L2.75 35.0625ZM31.625 35.068L31.6232 35.332C31.6129 35.9431 31.467 36.5442 31.196 37.092C34.3965 37.2894 37.5932 36.6513 40.4727 35.2403C40.6953 35.1315 40.8845 34.9645 41.02 34.757C41.1556 34.5494 41.2325 34.3091 41.2427 34.0615C41.3074 32.5238 40.9739 30.9954 40.2745 29.6244C39.5751 28.2534 38.5336 27.0862 37.2507 26.2359C35.9678 25.3856 34.487 24.8811 32.9519 24.771C31.4167 24.661 29.8792 24.9493 28.4882 25.608C30.529 28.3371 31.6291 31.6547 31.6232 35.0625V35.068H31.625Z" fill="#4527B3"/>
</svg>
