<svg width="44" height="44" viewBox="0 0 44 44" fill="none" xmlns="http://www.w3.org/2000/svg">
<path d="M27.0488 18.3333C28.8198 18.3333 30.2572 19.7707 30.2572 21.5417V30.2482C30.2572 32.4367 29.3878 34.5356 27.8403 36.0831C26.2927 37.6306 24.1939 38.5 22.0053 38.5C19.8168 38.5 17.7179 37.6306 16.1704 36.0831C14.6229 34.5356 13.7535 32.4367 13.7535 30.2482V21.5417C13.7535 19.7707 15.189 18.3333 16.9618 18.3333H27.0488ZM13.0733 18.3333C12.413 19.128 12.0158 20.1082 11.9367 21.1383L11.9183 21.5417V30.2482C11.9183 31.801 12.2703 33.2713 12.8973 34.584C11.8107 34.8747 10.6717 34.9116 9.56854 34.6918C8.46536 34.4721 7.42749 34.0015 6.53521 33.3166C5.64292 32.6316 4.92012 31.7506 4.42269 30.7417C3.92526 29.7328 3.66653 28.623 3.6665 27.4982V21.5417C3.66653 20.7365 3.96932 19.9608 4.51475 19.3684C5.06018 18.7761 5.80839 18.4106 6.61084 18.3443L6.87484 18.3333H13.0733ZM30.9373 18.3333H37.1248C38.8958 18.3333 40.3332 19.7707 40.3332 21.5417V27.5C40.3334 28.6241 40.0752 29.7333 39.5785 30.7417C39.0819 31.7502 38.36 32.631 37.4687 33.316C36.5774 34.001 35.5406 34.472 34.4383 34.6925C33.336 34.913 32.1977 34.8771 31.1115 34.5877C31.6615 33.4363 31.9988 32.1677 32.074 30.8257L32.0905 30.2482V21.5417C32.0905 20.3225 31.6578 19.2042 30.9355 18.3333H30.9373ZM21.9998 5.5C23.4585 5.5 24.8575 6.07946 25.8889 7.11091C26.9204 8.14236 27.4998 9.54131 27.4998 11C27.4998 12.4587 26.9204 13.8576 25.8889 14.8891C24.8575 15.9205 23.4585 16.5 21.9998 16.5C20.5411 16.5 19.1422 15.9205 18.1107 14.8891C17.0793 13.8576 16.4998 12.4587 16.4998 11C16.4998 9.54131 17.0793 8.14236 18.1107 7.11091C19.1422 6.07946 20.5411 5.5 21.9998 5.5ZM33.9165 7.33333C35.1321 7.33333 36.2979 7.81622 37.1574 8.67576C38.017 9.5353 38.4998 10.7011 38.4998 11.9167C38.4998 13.1322 38.017 14.298 37.1574 15.1576C36.2979 16.0171 35.1321 16.5 33.9165 16.5C32.7009 16.5 31.5351 16.0171 30.6756 15.1576C29.8161 14.298 29.3332 13.1322 29.3332 11.9167C29.3332 10.7011 29.8161 9.5353 30.6756 8.67576C31.5351 7.81622 32.7009 7.33333 33.9165 7.33333ZM10.0832 7.33333C11.2987 7.33333 12.4645 7.81622 13.3241 8.67576C14.1836 9.5353 14.6665 10.7011 14.6665 11.9167C14.6665 13.1322 14.1836 14.298 13.3241 15.1576C12.4645 16.0171 11.2987 16.5 10.0832 16.5C8.8676 16.5 7.70181 16.0171 6.84226 15.1576C5.98272 14.298 5.49984 13.1322 5.49984 11.9167C5.49984 10.7011 5.98272 9.5353 6.84226 8.67576C7.70181 7.81622 8.8676 7.33333 10.0832 7.33333Z" fill="#4527B3"/>
</svg>
