<svg width="44" height="44" viewBox="0 0 44 44" fill="none" xmlns="http://www.w3.org/2000/svg">
<path d="M18.3332 36.6667H10.9998V40.3334H7.33317V36.6667H5.49984C5.01361 36.6667 4.54729 36.4735 4.20347 36.1297C3.85966 35.7859 3.6665 35.3196 3.6665 34.8334V7.33336C3.6665 6.84713 3.85966 6.38081 4.20347 6.03699C4.54729 5.69318 5.01361 5.50002 5.49984 5.50002H18.3332V2.91502C18.3332 2.78196 18.3623 2.65051 18.4182 2.52979C18.4742 2.40908 18.5558 2.302 18.6573 2.21599C18.7589 2.12999 18.8779 2.06712 19.0062 2.03175C19.1345 1.99638 19.2689 1.98937 19.4002 2.01119L38.8005 5.24519C39.2286 5.31636 39.6176 5.53708 39.8982 5.86808C40.1788 6.19908 40.333 6.6189 40.3332 7.05286V11H42.1665V14.6667H40.3332V27.5H42.1665V31.1667H40.3332V35.1139C40.333 35.5478 40.1788 35.9676 39.8982 36.2986C39.6176 36.6296 39.2286 36.8504 38.8005 36.9215L36.6665 37.2772V40.3334H32.9998V37.8895L19.4002 40.1555C19.2689 40.1773 19.1345 40.1703 19.0062 40.135C18.8779 40.0996 18.7589 40.0367 18.6573 39.9507C18.5558 39.8647 18.4742 39.7576 18.4182 39.6369C18.3623 39.5162 18.3332 39.3848 18.3332 39.2517V36.6667ZM21.9998 36.0067L36.6665 33.561V8.60569L21.9998 6.16186V36.0049V36.0067ZM30.2498 25.6667C28.7318 25.6667 27.4998 23.6134 27.4998 21.0834C27.4998 18.5534 28.7318 16.5 30.2498 16.5C31.7678 16.5 32.9998 18.5534 32.9998 21.0834C32.9998 23.6134 31.7678 25.6667 30.2498 25.6667Z" fill="#4527B3"/>
</svg>
